<?xml version="1.0" encoding="utf-8"?>
<svg version="1.1" xmlns:xlink="http://www.w3.org/1999/xlink" width="82px" height="82px" xmlns="http://www.w3.org/2000/svg">
  <g transform="matrix(1 0 0 1 -548 -447 )">
    <path d="M 61.5 38.0638020833333  C 62.6388888888889 38.7044270833333  63.2083333333333 39.6831597222222  63.2083333333333 41  C 63.2083333333333 42.3168402777778  62.6388888888889 43.2955729166667  61.5 43.9361979166667  L 32.4583333333333 61.01953125  C 31.9244791666667 61.33984375  31.3550347222222 61.5  30.75 61.5  C 30.1805555555556 61.5  29.6111111111111 61.3576388888889  29.0416666666667 61.0729166666667  C 27.9027777777778 60.3967013888889  27.3333333333333 59.4001736111111  28 58.0833333333333  L 28 23.9166666666667  C 27.3333333333333 22.5998263888889  27.9027777777778 21.6032986111111  29.0416666666667 20.9270833333333  C 30.2161458333333 20.2864583333333  31.3550347222222 20.3042534722222  32.4583333333333 20.98046875  L 61.5 38.0638020833333  Z M 66.14453125 55.57421875  C 68.7426215277778 51.1254340277778  70.0416666666667 46.2673611111111  70.0416666666667 41  C 70.0416666666667 35.7326388888889  68.7426215277778 30.8745659722222  66.14453125 26.42578125  C 63.5464409722222 21.9769965277778  60.0230034722222 18.4535590277778  55.57421875 15.85546875  C 51.1254340277778 13.2573784722222  46.2673611111111 11.9583333333333  41 11.9583333333333  C 35.7326388888889 11.9583333333333  30.8745659722222 13.2573784722222  26.42578125 15.85546875  C 21.9769965277778 18.4535590277778  18.4535590277778 21.9769965277778  15.85546875 26.42578125  C 13.2573784722222 30.8745659722222  11.9583333333333 35.7326388888889  11.9583333333333 41  C 11.9583333333333 46.2673611111111  13.2573784722222 51.1254340277778  15.85546875 55.57421875  C 18.4535590277778 60.0230034722222  21.9769965277778 63.5464409722222  26.42578125 66.14453125  C 30.8745659722222 68.7426215277778  35.7326388888889 70.0416666666667  41 70.0416666666667  C 46.2673611111111 70.0416666666667  51.1254340277778 68.7426215277778  55.57421875 66.14453125  C 60.0230034722222 63.5464409722222  63.5464409722222 60.0230034722222  66.14453125 55.57421875  Z M 76.5013020833333 20.419921875  C 80.1671006944444 26.7016059027778  82 33.5616319444444  82 41  C 82 48.4383680555556  80.1671006944444 55.2983940972222  76.5013020833333 61.580078125  C 72.8355034722222 67.8617621527778  67.8617621527778 72.8355034722222  61.580078125 76.5013020833333  C 55.2983940972222 80.1671006944445  48.4383680555556 82  41 82  C 33.5616319444445 82  26.7016059027778 80.1671006944445  20.419921875 76.5013020833333  C 14.1382378472222 72.8355034722222  9.16449652777778 67.8617621527778  5.49869791666667 61.580078125  C 1.83289930555556 55.2983940972222  0 48.4383680555556  0 41  C 0 33.5616319444444  1.83289930555556 26.7016059027778  5.49869791666667 20.419921875  C 9.16449652777778 14.1382378472222  14.1382378472222 9.16449652777777  20.419921875 5.49869791666666  C 26.7016059027778 1.83289930555555  33.5616319444445 0  41 0  C 48.4383680555556 0  55.2983940972222 1.83289930555555  61.580078125 5.49869791666666  C 67.8617621527778 9.16449652777777  72.8355034722222 14.1382378472222  76.5013020833333 20.419921875  Z " fill-rule="nonzero" fill="#000000" stroke="none" transform="matrix(1 0 0 1 548 447 )" />
  </g>
</svg>