<?xml version="1.0" encoding="utf-8"?>
<svg version="1.1" xmlns:xlink="http://www.w3.org/1999/xlink" width="107px" height="56px" xmlns="http://www.w3.org/2000/svg">
  <g transform="matrix(1 0 0 1 -1057 -269 )">
    <path d="M 1057 269  L 1164 269  L 1164 325  L 1057 325  L 1057 269  " fill-rule="nonzero" fill="#cccccc" stroke="none" />
    <path d="M 1061 273  L 1160 273  L 1160 321  L 1061 321  L 1061 273  " fill-rule="nonzero" fill="#ffffff" stroke="none" />
    <path d="M 1116.84 285.8  C 1114.488 285.8  1112.64 283.952  1112.64 281.6  C 1112.64 279.248  1114.488 277.4  1116.84 277.4  C 1119.192 277.4  1121.04 279.248  1121.04 281.6  C 1121.04 283.952  1119.192 285.8  1116.84 285.8  " fill-rule="nonzero" fill="#cccccc" stroke="none" />
    <path d="M 1063 320  L 1063 295.25  L 1087 284  L 1120.6 305.869158878505  L 1139.8 290.75  L 1159 305.869158878505  L 1159 320  L 1063 320  " fill-rule="nonzero" fill="#169bd5" stroke="none" />
  </g>
</svg>