<?xml version="1.0" encoding="utf-8"?>
<svg version="1.1" xmlns:xlink="http://www.w3.org/1999/xlink" width="22px" height="18px" xmlns="http://www.w3.org/2000/svg">
  <g transform="matrix(1 0 0 1 -787 -205 )">
    <path d="M 7.39676339285714 6.439453125  C 7.70368303571429 6.732421875  7.85714285714286 7.0859375  7.85714285714286 7.5  C 7.85714285714286 7.9140625  7.70368303571429 8.267578125  7.39676339285714 8.560546875  C 7.08984375 8.853515625  6.71949404761905 9  6.28571428571429 9  C 5.85193452380952 9  5.48158482142857 8.853515625  5.17466517857143 8.560546875  C 4.86774553571429 8.267578125  4.71428571428571 7.9140625  4.71428571428571 7.5  C 4.71428571428571 7.0859375  4.86774553571429 6.732421875  5.17466517857143 6.439453125  C 5.48158482142857 6.146484375  5.85193452380952 6  6.28571428571429 6  C 6.71949404761905 6  7.08984375 6.146484375  7.39676339285714 6.439453125  Z M 12.1110491071429 6.439453125  C 12.41796875 6.732421875  12.5714285714286 7.0859375  12.5714285714286 7.5  C 12.5714285714286 7.9140625  12.41796875 8.267578125  12.1110491071429 8.560546875  C 11.8041294642857 8.853515625  11.4337797619048 9  11 9  C 10.5662202380952 9  10.1958705357143 8.853515625  9.88895089285714 8.560546875  C 9.58203125 8.267578125  9.42857142857143 7.9140625  9.42857142857143 7.5  C 9.42857142857143 7.0859375  9.58203125 6.732421875  9.88895089285714 6.439453125  C 10.1958705357143 6.146484375  10.5662202380952 6  11 6  C 11.4337797619048 6  11.8041294642857 6.146484375  12.1110491071429 6.439453125  Z M 16.8253348214286 6.439453125  C 17.1322544642857 6.732421875  17.2857142857143 7.0859375  17.2857142857143 7.5  C 17.2857142857143 7.9140625  17.1322544642857 8.267578125  16.8253348214286 8.560546875  C 16.5184151785714 8.853515625  16.1480654761905 9  15.7142857142857 9  C 15.280505952381 9  14.91015625 8.853515625  14.6032366071429 8.560546875  C 14.2963169642857 8.267578125  14.1428571428571 7.9140625  14.1428571428571 7.5  C 14.1428571428571 7.0859375  14.2963169642857 6.732421875  14.6032366071429 6.439453125  C 14.91015625 6.146484375  15.280505952381 6  15.7142857142857 6  C 16.1480654761905 6  16.5184151785714 6.146484375  16.8253348214286 6.439453125  Z M 15.68359375 2.314453125  C 14.2308407738095 1.771484375  12.6696428571429 1.5  11 1.5  C 9.33035714285714 1.5  7.76915922619048 1.771484375  6.31640625 2.314453125  C 4.86365327380952 2.857421875  3.70963541666667 3.58984375  2.85435267857143 4.51171875  C 1.99906994047619 5.43359375  1.57142857142857 6.4296875  1.57142857142857 7.5  C 1.57142857142857 8.375  1.86402529761905 9.208984375  2.44921875 10.001953125  C 3.03441220238095 10.794921875  3.85900297619048 11.48046875  4.92299107142857 12.05859375  L 5.99107142857143 12.64453125  L 5.65959821428571 13.76953125  C 5.46316964285714 14.48046875  5.17671130952381 15.15234375  4.80022321428571 15.78515625  C 6.04427083333333 15.29296875  7.16964285714286 14.625  8.17633928571428 13.78125  L 8.70424107142857 13.3359375  L 9.40401785714286 13.40625  C 9.96875 13.46875  10.500744047619 13.5  11 13.5  C 12.6696428571429 13.5  14.2308407738095 13.228515625  15.68359375 12.685546875  C 17.1363467261905 12.142578125  18.2903645833333 11.41015625  19.1456473214286 10.48828125  C 20.0009300595238 9.56640625  20.4285714285714 8.5703125  20.4285714285714 7.5  C 20.4285714285714 6.4296875  20.0009300595238 5.43359375  19.1456473214286 4.51171875  C 18.2903645833333 3.58984375  17.1363467261905 2.857421875  15.68359375 2.314453125  Z M 21.1283482142857 4.587890625  C 21.7094494047619 5.513671875  22 6.484375  22 7.5  C 22 8.859375  21.5089285714286 10.115234375  20.5267857142857 11.267578125  C 19.5446428571429 12.419921875  18.2105654761905 13.330078125  16.5245535714286 13.998046875  C 14.8385416666667 14.666015625  12.9970238095238 15  11 15  C 10.4270833333333 15  9.83370535714286 14.96875  9.21986607142857 14.90625  C 7.59933035714286 16.2734375  5.71688988095238 17.21875  3.57254464285714 17.7421875  C 3.17150297619048 17.8515625  2.70498511904762 17.9375  2.17299107142857 18  L 2.11160714285714 18  C 1.98883928571429 18  1.87834821428571 17.958984375  1.78013392857143 17.876953125  C 1.68191964285714 17.794921875  1.61644345238095 17.6875  1.58370535714286 17.5546875  L 1.58370535714286 17.54296875  C 1.55915178571429 17.51171875  1.5571056547619 17.46484375  1.57756696428571 17.40234375  C 1.59802827380952 17.33984375  1.60621279761905 17.30078125  1.60212053571429 17.28515625  C 1.59802827380952 17.26953125  1.61644345238095 17.232421875  1.65736607142857 17.173828125  L 1.73102678571429 17.068359375  C 1.73102678571429 17.068359375  1.75967261904762 17.03515625  1.81696428571429 16.96875  C 1.87425595238095 16.90234375  1.90699404761905 16.8671875  1.91517857142857 16.86328125  C 1.97247023809524 16.80078125  2.09933035714286 16.666015625  2.29575892857143 16.458984375  C 2.4921875 16.251953125  2.63337053571429 16.103515625  2.71930803571429 16.013671875  C 2.80524553571429 15.923828125  2.93210565476191 15.76953125  3.09988839285714 15.55078125  C 3.26767113095238 15.33203125  3.40066964285714 15.1328125  3.49888392857143 14.953125  C 3.59709821428571 14.7734375  3.70758928571429 14.54296875  3.83035714285714 14.26171875  C 3.953125 13.98046875  4.05952380952381 13.68359375  4.14955357142857 13.37109375  C 2.86458333333333 12.67578125  1.85174851190476 11.81640625  1.11104910714286 10.79296875  C 0.370349702380952 9.76953125  0 8.671875  0 7.5  C 0 6.484375  0.290550595238095 5.513671875  0.871651785714286 4.587890625  C 1.45275297619048 3.662109375  2.234375 2.86328125  3.21651785714286 2.19140625  C 4.19866071428571 1.51953125  5.36904761904762 0.986328124999998  6.72767857142857 0.591796874999999  C 8.08630952380952 0.197265624999999  9.51041666666667 0  11 0  C 12.4895833333333 0  13.9136904761905 0.197265624999999  15.2723214285714 0.591796874999999  C 16.6309523809524 0.986328124999998  17.8013392857143 1.51953125  18.7834821428571 2.19140625  C 19.765625 2.86328125  20.5472470238095 3.662109375  21.1283482142857 4.587890625  Z " fill-rule="nonzero" fill="#aaaaaa" stroke="none" transform="matrix(1 0 0 1 787 205 )" />
  </g>
</svg>