<?xml version="1.0" encoding="utf-8"?>
<svg version="1.1" xmlns:xlink="http://www.w3.org/1999/xlink" width="19px" height="18px" xmlns="http://www.w3.org/2000/svg">
  <g transform="matrix(1 0 0 1 -861 -205 )">
    <path d="M 2.814375 14.783203125  C 2.96479166666662 14.638671875  3.04000000000003 14.4609375  3.04000000000003 14.25  C 3.04000000000003 14.046875  2.96479166666662 13.87109375  2.814375 13.72265625  C 2.66395833333337 13.57421875  2.48583333333336 13.5  2.27999999999996 13.5  C 2.06625000000006 13.5  1.88614583333336 13.57421875  1.73968750000005 13.72265625  C 1.59322916666667 13.87109375  1.52000000000002 14.046875  1.52000000000002 14.25  C 1.52000000000002 14.4609375  1.59322916666667 14.638671875  1.73968750000005 14.783203125  C 1.88614583333336 14.927734375  2.06625000000006 15  2.27999999999996 15  C 2.48583333333336 15  2.66395833333337 14.927734375  2.814375 14.783203125  Z M 4.71437499999999 7.72265624999998  C 4.86479166666667 7.87109374999999  4.93999999999995 8.04687499999999  4.93999999999995 8.24999999999998  L 4.93999999999995 15.75  C 4.93999999999995 15.953125  4.86479166666667 16.12890625  4.71437499999999 16.27734375  C 4.56395833333336 16.42578125  4.38583333333335 16.5  4.18000000000001 16.5  L 0.760000000000008 16.5  C 0.554166666666671 16.5  0.376041666666722 16.42578125  0.22562499999997 16.27734375  C 0.0752083333333444 16.12890625  0 15.953125  0 15.75  L 0 8.24999999999998  C 0 8.04687499999999  0.0752083333333444 7.87109374999999  0.22562499999997 7.72265624999998  C 0.376041666666722 7.57421875000003  0.554166666666671 7.50000000000002  0.760000000000008 7.50000000000002  L 4.18000000000001 7.50000000000002  C 4.38583333333335 7.50000000000002  4.56395833333336 7.57421875000003  4.71437499999999 7.72265624999998  Z M 18.323125 6.66796874999998  C 18.774375 7.11328125000002  19 7.64062500000002  19 8.24999999999998  C 19 8.92187499999999  18.7822916666667 9.50390625000002  18.346875 9.99609375000002  C 18.465625 10.33984375  18.525 10.63671875  18.525 10.88671875  C 18.54875 11.48046875  18.3785416666667 12.015625  18.014375 12.4921875  C 18.1489583333333 12.9296875  18.1489583333333 13.38671875  18.014375 13.86328125  C 17.895625 14.30859375  17.681875 14.67578125  17.373125 14.96484375  C 17.444375 15.83984375  17.2504166666667 16.546875  16.79125 17.0859375  C 16.2845833333334 17.6796875  15.5047916666667 17.984375  14.451875 18  L 14.024375 18  L 13.121875 18  L 12.92 18  C 12.3975 18  11.8275 17.939453125  11.21 17.818359375  C 10.5925 17.697265625  10.1115625 17.583984375  9.76718749999999 17.478515625  C 9.42281250000003 17.373046875  8.94583333333333 17.21875  8.33625000000001 17.015625  C 7.36250000000004 16.6796875  6.73708333333334 16.5078125  6.45999999999997 16.5  C 6.2541666666667 16.4921875  6.07604166666668 16.416015625  5.92562500000006 16.271484375  C 5.77520833333331 16.126953125  5.69999999999996 15.953125  5.69999999999996 15.75  L 5.69999999999996 8.23828125000002  C 5.69999999999996 8.04296874999999  5.77124999999999 7.87304687500003  5.91374999999999 7.72851562500002  C 6.05624999999999 7.58398437500001  6.22645833333337 7.50390625000003  6.42437499999995 7.48828125  C 6.61437499999997 7.47265624999997  6.91520833333335 7.2421875  7.32687499999996 6.79687500000002  C 7.7385416666667 6.35156249999998  8.13833333333337 5.87890625000001  8.52625000000003 5.37890625  C 9.06458333333332 4.69921874999998  9.46437499999998 4.23046875000002  9.72562499999997 3.97265625  C 9.86812500000003 3.83203125  9.99083333333333 3.64453124999998  10.09375 3.41015625  C 10.1966666666667 3.17578125000002  10.2659375 2.98632812500003  10.3015625 2.84179687500002  C 10.3371875 2.69726562500001  10.390625 2.4609375  10.461875 2.13281249999998  C 10.5172916666667 1.828125  10.5667708333333 1.58984375000001  10.6103125 1.41796875000002  C 10.6538541666667 1.24609375000003  10.7310416666666 1.04296874999998  10.841875 0.80859375  C 10.9527083333333 0.574218750000021  11.0872916666667 0.378906249999986  11.245625 0.222656250000021  C 11.3960416666667 0.0742187500000071  11.5741666666666 0  11.78 0  C 12.1441666666667 0  12.4707291666667 0.0410156249999787  12.7596875 0.123046875  C 13.0486458333333 0.205078125000021  13.2861458333333 0.306640625000014  13.4721875 0.427734374999979  C 13.6582291666667 0.548828125000007  13.8165624999999 0.707031250000007  13.9471875 0.902343749999979  C 14.0778125 1.09765625000001  14.1728125 1.27343750000001  14.2321875 1.42968749999998  C 14.2915625 1.58593750000001  14.3390625 1.78124999999998  14.3746875 2.01562500000002  C 14.4103124999999 2.25  14.4301041666667 2.42578125  14.4340625 2.54296875000002  C 14.4380208333333 2.66015624999998  14.44 2.8125  14.44 3.00000000000002  C 14.44 3.29687499999999  14.4023958333334 3.59375000000001  14.3271875 3.89062499999998  C 14.2519791666667 4.18750000000001  14.1767708333333 4.42187499999999  14.1015625 4.59374999999998  C 14.0263541666667 4.76562499999997  13.9175 4.98437499999999  13.775 5.25000000000002  C 13.75125 5.29687499999998  13.7116666666666 5.36718749999998  13.65625 5.46093750000002  C 13.6008333333334 5.5546875  13.5572916666667 5.64062500000003  13.525625 5.71874999999998  C 13.4939583333333 5.79687499999999  13.4622916666667 5.89062499999997  13.430625 5.99999999999998  L 16.72 5.99999999999998  C 17.3375 5.99999999999998  17.871875 6.22265625  18.323125 6.66796874999998  Z " fill-rule="nonzero" fill="#00bfbf" stroke="none" transform="matrix(1 0 0 1 861 205 )" />
  </g>
</svg>