<?xml version="1.0" encoding="utf-8"?>
<svg version="1.1" xmlns:xlink="http://www.w3.org/1999/xlink" width="37px" height="15px" xmlns="http://www.w3.org/2000/svg">
  <g transform="matrix(1 0 0 1 -313 -203 )">
    <path d="M 20.080810546875 9.826171875  C 20.568603515625 9.087890625  20.8125 8.3125  20.8125 7.5  C 20.8125 6.6875  20.568603515625 5.912109375  20.080810546875 5.173828125  C 19.593017578125 4.435546875  18.93359375 3.796875  18.1025390625 3.2578125  C 17.271484375 2.71875  16.286865234375 2.291015625  15.148681640625 1.974609375  C 14.010498046875 1.658203125  12.8151041666667 1.5  11.5625 1.5  C 10.3098958333333 1.5  9.114501953125 1.658203125  7.976318359375 1.974609375  C 6.838134765625 2.291015625  5.853515625 2.71875  5.0224609375 3.2578125  C 4.19140625 3.796875  3.531982421875 4.435546875  3.044189453125 5.173828125  C 2.556396484375 5.912109375  2.3125 6.6875  2.3125 7.5  C 2.3125 8.3125  2.556396484375 9.087890625  3.044189453125 9.826171875  C 3.531982421875 10.564453125  4.19140625 11.203125  5.0224609375 11.7421875  C 5.853515625 12.28125  6.838134765625 12.708984375  7.976318359375 13.025390625  C 9.114501953125 13.341796875  10.3098958333333 13.5  11.5625 13.5  C 12.8151041666667 13.5  14.010498046875 13.341796875  15.148681640625 13.025390625  C 16.286865234375 12.708984375  17.271484375 12.28125  18.1025390625 11.7421875  C 18.93359375 11.203125  19.593017578125 10.564453125  20.080810546875 9.826171875  Z M 33.955810546875 9.826171875  C 34.443603515625 9.087890625  34.6875 8.3125  34.6875 7.5  C 34.6875 6.6875  34.443603515625 5.912109375  33.955810546875 5.173828125  C 33.468017578125 4.435546875  32.80859375 3.796875  31.9775390625 3.2578125  C 31.146484375 2.71875  30.161865234375 2.291015625  29.023681640625 1.974609375  C 27.885498046875 1.658203125  26.6901041666667 1.5  25.4375 1.5  L 18.4638671875 1.5  C 19.8971354166667 2.203125  21.0323079427083 3.078125  21.869384765625 4.125  C 22.7064615885417 5.171875  23.125 6.296875  23.125 7.5  C 23.125 8.703125  22.7064615885417 9.828125  21.869384765625 10.875  C 21.0323079427083 11.921875  19.8971354166667 12.796875  18.4638671875 13.5  L 25.4375 13.5  C 26.6901041666667 13.5  27.885498046875 13.341796875  29.023681640625 13.025390625  C 30.161865234375 12.708984375  31.146484375 12.28125  31.9775390625 11.7421875  C 32.80859375 11.203125  33.468017578125 10.564453125  33.955810546875 9.826171875  Z M 36.07861328125 4.587890625  C 36.69287109375 5.513671875  37 6.484375  37 7.5  C 37 8.515625  36.69287109375 9.486328125  36.07861328125 10.412109375  C 35.46435546875 11.337890625  34.642333984375 12.134765625  33.612548828125 12.802734375  C 32.582763671875 13.470703125  31.354248046875 14.00390625  29.927001953125 14.40234375  C 28.499755859375 14.80078125  27.0032552083333 15  25.4375 15  L 11.5625 15  C 9.99674479166667 15  8.500244140625 14.80078125  7.072998046875 14.40234375  C 5.645751953125 14.00390625  4.417236328125 13.470703125  3.387451171875 12.802734375  C 2.357666015625 12.134765625  1.53564453125 11.337890625  0.92138671875 10.412109375  C 0.30712890625 9.486328125  0 8.515625  0 7.5  C 0 6.484375  0.30712890625 5.513671875  0.92138671875 4.587890625  C 1.53564453125 3.662109375  2.357666015625 2.865234375  3.387451171875 2.197265625  C 4.417236328125 1.529296875  5.645751953125 0.99609375  7.072998046875 0.597656249999999  C 8.500244140625 0.19921875  9.99674479166667 0  11.5625 0  L 25.4375 0  C 27.0032552083333 0  28.499755859375 0.19921875  29.927001953125 0.597656249999999  C 31.354248046875 0.99609375  32.582763671875 1.529296875  33.612548828125 2.197265625  C 34.642333984375 2.865234375  35.46435546875 3.662109375  36.07861328125 4.587890625  Z " fill-rule="nonzero" fill="#aaaaaa" stroke="none" transform="matrix(1 0 0 1 313 203 )" />
  </g>
</svg>