<?xml version="1.0" encoding="utf-8"?>
<svg version="1.1" xmlns:xlink="http://www.w3.org/1999/xlink" width="27px" height="23px" xmlns="http://www.w3.org/2000/svg">
  <g transform="matrix(1 0 0 1 -132 -268 )">
    <path d="M 12.1532451923077 1.9732770745429  C 12.3587740384615 2.17815283638068  12.4615384615385 2.42076887013596  13 2.70112517580872  L 13 20.2988748241913  C 12.4615384615385 20.579231129864  12.3587740384615 20.8218471636193  12.1532451923077 21.0267229254571  C 11.9477163461538 21.2315986872949  11.7043269230769 21.3340365682138  11.4230769230769 21.3340365682138  C 11.1418269230769 21.3340365682138  10.8984375 21.2315986872949  10.6929086538462 21.0267229254571  L 5.28966346153846 15.64064697609  L 1.03846153846154 15.64064697609  C 0.757211538461539 15.64064697609  0.513822115384615 15.5382090951711  0.308293269230769 15.3333333333333  C 0.102764423076923 15.1284575714955  0 14.8858415377403  0 14.6054852320675  L 0 8.39451476793249  C 0 8.11415846225973  0.102764423076923 7.87154242850445  0.308293269230769 7.66666666666667  C 0.513822115384615 7.46179090482888  0.757211538461539 7.35935302390999  1.03846153846154 7.35935302390999  L 5.28966346153846 7.35935302390999  L 10.6929086538462 1.9732770745429  C 10.8984375 1.76840131270511  11.1418269230769 1.66596343178622  11.4230769230769 1.66596343178622  C 11.7043269230769 1.66596343178622  11.9477163461538 1.76840131270511  12.1532451923077 1.9732770745429  Z M 18.0027043269231 9.20323488045007  C 18.4624399038462 9.91490857946554  18.6923076923077 10.6804969526488  18.6923076923077 11.5  C 18.6923076923077 12.3195030473511  18.4624399038462 13.0823956868261  18.0027043269231 13.7886779184248  C 17.54296875 14.4949601500234  16.9344951923077 14.9990623534927  16.1772836538462 15.3009845288326  C 16.0691105769231 15.3548992030005  15.9338942307692 15.3818565400844  15.7716346153846 15.3818565400844  C 15.4903846153846 15.3818565400844  15.2469951923077 15.2821143928739  15.0414663461538 15.0826300984529  C 14.8359375 14.8831458040319  14.7331730769231 14.6378340365682  14.7331730769231 14.3466947960619  C 14.7331730769231 14.120253164557  14.7980769230769 13.9288560712611  14.9278846153846 13.7725035161744  C 15.0576923076923 13.6161509610877  15.2145432692308 13.4813642756681  15.3984375 13.3681434599156  C 15.5823317307692 13.2549226441632  15.7662259615385 13.1309188935771  15.9501201923077 12.9961322081575  C 16.1340144230769 12.8613455227379  16.2908653846154 12.6672526957337  16.4206730769231 12.4138537271449  C 16.5504807692308 12.160454758556  16.6153846153846 11.8558368495077  16.6153846153846 11.5  C 16.6153846153846 11.1441631504923  16.5504807692308 10.839545241444  16.4206730769231 10.5861462728551  C 16.2908653846154 10.3327473042663  16.1340144230769 10.1386544772621  15.9501201923077 10.0038677918425  C 15.7662259615385 9.86908110642288  15.5823317307692 9.74507735583685  15.3984375 9.63185654008439  C 15.2145432692308 9.51863572433193  15.0576923076923 9.38384903891233  14.9278846153846 9.2274964838256  C 14.7980769230769 9.07114392873886  14.7331730769231 8.87974683544304  14.7331730769231 8.65330520393812  C 14.7331730769231 8.36216596343179  14.8359375 8.11685419596812  15.0414663461538 7.91736990154712  C 15.2469951923077 7.71788560712611  15.4903846153846 7.61814345991561  15.7716346153846 7.61814345991561  C 15.9338942307692 7.61814345991561  16.0691105769231 7.64510079699953  16.1772836538462 7.69901547116737  C 16.9344951923077 7.9901547116737  17.54296875 8.4915611814346  18.0027043269231 9.20323488045007  Z M 21.4669471153846 6.93073136427567  C 22.3864182692308 8.32712142522269  22.8461538461538 9.85021097046413  22.8461538461538 11.5  C 22.8461538461538 13.1497890295359  22.3864182692308 14.6728785747773  21.4669471153846 16.0692686357243  C 20.5474759615385 17.4656586966714  19.3305288461538 18.4819503047351  17.8161057692308 19.1181434599156  C 17.6754807692308 19.1720581340835  17.5402644230769 19.1990154711674  17.4104567307692 19.1990154711674  C 17.1183894230769 19.1990154711674  16.8695913461538 19.0965775902485  16.6640625 18.8917018284107  C 16.4585336538462 18.6868260665729  16.3557692307692 18.4442100328176  16.3557692307692 18.1638537271449  C 16.3557692307692 17.7433192686357  16.5667067307692 17.4252226910455  16.9885817307692 17.2095639943741  C 17.5943509615385 16.8968588842007  18.0054086538462 16.6596343178622  18.2217548076923 16.4978902953587  C 19.0222355769231 15.915611814346  19.6469350961538 15.1850679793718  20.0958533653846 14.306258790436  C 20.5447716346154 13.4274496015002  20.7692307692308 12.4920300046882  20.7692307692308 11.5  C 20.7692307692308 10.5079699953118  20.5447716346154 9.57255039849976  20.0958533653846 8.69374120956399  C 19.6469350961538 7.81493202062822  19.0222355769231 7.08438818565401  18.2217548076923 6.50210970464135  C 18.0054086538462 6.34036568213783  17.5943509615385 6.10314111579934  16.9885817307692 5.79043600562588  C 16.5667067307692 5.57477730895452  16.3557692307692 5.25668073136428  16.3557692307692 4.83614627285513  C 16.3557692307692 4.55578996718237  16.4585336538462 4.3131739334271  16.6640625 4.10829817158931  C 16.8695913461538 3.90342240975152  17.1129807692308 3.80098452883263  17.3942307692308 3.80098452883263  C 17.5348557692308 3.80098452883263  17.6754807692308 3.82794186591655  17.8161057692308 3.88185654008439  C 19.3305288461538 4.51804969526488  20.5474759615385 5.53434130332864  21.4669471153846 6.93073136427567  Z M 24.9393028846154 4.66631504922644  C 26.3131009615385 6.74203000468823  27 9.01992498827942  27 11.5  C 27 13.9800750117206  26.3131009615385 16.2579699953118  24.9393028846154 18.3336849507736  C 23.5655048076923 20.4093999062354  21.7373798076923 21.9378809188936  19.4549278846154 22.9191279887482  C 19.3143028846154 22.9730426629161  19.1736778846154 23  19.0330528846154 23  C 18.7518028846154 23  18.5084134615385 22.8975621190811  18.3028846153846 22.6926863572433  C 18.0973557692308 22.4878105954055  17.9945913461538 22.2451945616503  17.9945913461538 21.9648382559775  C 17.9945913461538 21.5766526019691  18.2055288461538 21.2585560243788  18.6274038461538 21.0105485232068  C 18.703125 20.9674167838725  18.8248197115385 20.9108063759962  18.9924879807692 20.8407172995781  C 19.16015625 20.7706282231599  19.2818509615385 20.7140178152836  19.3575721153846 20.6708860759494  C 19.8551682692308 20.4013127051102  20.2986778846154 20.1263478668542  20.6881009615385 19.8459915611814  C 22.0186298076923 18.8647444913268  23.0570913461538 17.6408813877168  23.8034855769231 16.1744022503516  C 24.5498798076923 14.7079231129864  24.9230769230769 13.1497890295359  24.9230769230769 11.5  C 24.9230769230769 9.85021097046413  24.5498798076923 8.2920768870136  23.8034855769231 6.82559774964838  C 23.0570913461538 5.35911861228317  22.0186298076923 4.13525550867323  20.6881009615385 3.15400843881857  C 20.2986778846154 2.8736521331458  19.8551682692308 2.59868729488982  19.3575721153846 2.32911392405063  C 19.2818509615385 2.28598218471636  19.16015625 2.22937177684013  18.9924879807692 2.15928270042194  C 18.8248197115385 2.08919362400375  18.703125 2.03258321612752  18.6274038461538 1.98945147679325  C 18.2055288461538 1.74144397562119  17.9945913461538 1.42334739803094  17.9945913461538 1.0351617440225  C 17.9945913461538 0.754805438349739  18.0973557692308 0.512189404594466  18.3028846153846 0.30731364275668  C 18.5084134615385 0.102437880918893  18.7518028846154 0  19.0330528846154 0  C 19.1736778846154 0  19.3143028846154 0.0269573370839179  19.4549278846154 0.0808720112517588  C 21.7373798076923 1.06211908110642  23.5655048076923 2.59060009376465  24.9393028846154 4.66631504922644  Z " fill-rule="nonzero" fill="#000000" stroke="none" transform="matrix(1 0 0 1 132 268 )" />
  </g>
</svg>