<?xml version="1.0" encoding="utf-8"?>
<svg version="1.1" xmlns:xlink="http://www.w3.org/1999/xlink" width="22px" height="14px" xmlns="http://www.w3.org/2000/svg">
  <g transform="matrix(1 0 0 1 -208 -389 )">
    <path d="M 16.3342633928571 10.9678819444445  C 17.9752604166667 9.98350694444446  19.3400297619048 8.66087962962962  20.4285714285714 7  C 19.1845238095238 5.08796296296299  17.6253720238095 3.65798611111114  15.7511160714286 2.71006944444446  C 16.2503720238095 3.55266203703701  16.5 4.46412037037038  16.5 5.44444444444446  C 16.5 6.94328703703701  15.9618675595238 8.22540509259261  14.8856026785714 9.29079861111114  C 13.8093377976191 10.3561921296296  12.5141369047619 10.8888888888889  11 10.8888888888889  C 9.4858630952381 10.8888888888889  8.19066220238096 10.3561921296296  7.11439732142856 9.29079861111114  C 6.0381324404762 8.22540509259261  5.5 6.94328703703701  5.5 5.44444444444446  C 5.5 4.46412037037038  5.74962797619048 3.55266203703701  6.24888392857144 2.71006944444446  C 4.37462797619048 3.65798611111114  2.8154761904762 5.08796296296299  1.57142857142856 7  C 2.65997023809524 8.66087962962962  4.02473958333334 9.98350694444446  5.66573660714286 10.9678819444445  C 7.30673363095238 11.9522569444445  9.08482142857144 12.4444444444445  11 12.4444444444445  C 12.9151785714286 12.4444444444445  14.6932663690476 11.9522569444445  16.3342633928571 10.9678819444445  Z M 11.4174107142857 2.74652777777777  C 11.5319940476191 2.63310185185185  11.5892857142857 2.49537037037038  11.5892857142857 2.33333333333337  C 11.5892857142857 2.1712962962963  11.5319940476191 2.03356481481478  11.4174107142857 1.92013888888886  C 11.3028273809524 1.80671296296299  11.1636904761905 1.75  11 1.75  C 9.97693452380952 1.75  9.0991443452381 2.11255787037038  8.36662946428569 2.83767361111114  C 7.63411458333334 3.56278935185185  7.26785714285714 4.43171296296299  7.26785714285714 5.44444444444446  C 7.26785714285714 5.60648148148147  7.3251488095238 5.74421296296299  7.43973214285714 5.85763888888886  C 7.55431547619048 5.97106481481478  7.69345238095238 6.02777777777777  7.85714285714286 6.02777777777777  C 8.02083333333334 6.02777777777777  8.15997023809524 5.97106481481478  8.27455357142856 5.85763888888886  C 8.3891369047619 5.74421296296299  8.44642857142856 5.60648148148147  8.44642857142856 5.44444444444446  C 8.44642857142856 4.74768518518516  8.69605654761904 4.15219907407408  9.1953125 3.65798611111114  C 9.69456845238096 3.16377314814815  10.296130952381 2.91666666666663  11 2.91666666666663  C 11.1636904761905 2.91666666666663  11.3028273809524 2.8599537037037  11.4174107142857 2.74652777777777  Z M 21.7544642857143 6.16145833333337  C 21.9181547619048 6.44502314814815  22 6.72453703703701  22 7  C 22 7.27546296296299  21.9181547619048 7.55497685185185  21.7544642857143 7.83854166666663  C 20.608630952381 9.70196759259261  19.0678943452381 11.1947337962963  17.1322544642857 12.3168402777778  C 15.1966145833333 13.4389467592592  13.1525297619048 14  11 14  C 8.84747023809524 14  6.80338541666666 13.4369212962963  4.86774553571431 12.3107638888889  C 2.9321056547619 11.1846064814815  1.39136904761904 9.69386574074076  0.245535714285694 7.83854166666663  C 0.0818452380952408 7.55497685185185  0 7.27546296296299  0 7  C 0 6.72453703703701  0.0818452380952408 6.44502314814815  0.245535714285694 6.16145833333337  C 1.39136904761904 4.30613425925924  2.9321056547619 2.81539351851853  4.86774553571431 1.68923611111114  C 6.80338541666666 0.563078703703695  8.84747023809524 0  11 0  C 13.1525297619048 0  15.1966145833333 0.563078703703695  17.1322544642857 1.68923611111114  C 19.0678943452381 2.81539351851853  20.608630952381 4.30613425925924  21.7544642857143 6.16145833333337  Z " fill-rule="nonzero" fill="#333333" stroke="none" transform="matrix(1 0 0 1 208 389 )" />
  </g>
</svg>