<?xml version="1.0" encoding="utf-8"?>
<svg version="1.1" xmlns:xlink="http://www.w3.org/1999/xlink" width="21px" height="18px" xmlns="http://www.w3.org/2000/svg">
  <g transform="matrix(1 0 0 1 -285 -522 )">
    <path d="M 6.3875 3.65625  C 6.79583333333333 4.09375  7 4.625  7 5.25  C 7 5.875  6.79583333333333 6.40625  6.3875 6.84375  C 5.97916666666667 7.28125  5.48333333333333 7.5  4.9 7.5  C 4.31666666666667 7.5  3.82083333333333 7.28125  3.4125 6.84375  C 3.00416666666667 6.40625  2.8 5.875  2.8 5.25  C 2.8 4.625  3.00416666666667 4.09375  3.4125 3.65625  C 3.82083333333333 3.21875  4.31666666666667 3  4.9 3  C 5.48333333333333 3  5.97916666666667 3.21875  6.3875 3.65625  Z M 13.65 4.875  L 18.2 9.75  L 18.2 15  L 2.8 15  L 2.8 12.75  L 6.3 9  L 8.05 10.875  L 13.65 4.875  Z M 19.49609375 1.611328125  C 19.4268229166667 1.537109375  19.3447916666667 1.5  19.25 1.5  L 1.75 1.5  C 1.65520833333333 1.5  1.57317708333333 1.537109375  1.50390625 1.611328125  C 1.43463541666667 1.685546875  1.4 1.7734375  1.4 1.875  L 1.4 16.125  C 1.4 16.2265625  1.43463541666667 16.314453125  1.50390625 16.388671875  C 1.57317708333333 16.462890625  1.65520833333333 16.5  1.75 16.5  L 19.25 16.5  C 19.3447916666667 16.5  19.4268229166667 16.462890625  19.49609375 16.388671875  C 19.5653645833333 16.314453125  19.6 16.2265625  19.6 16.125  L 19.6 1.875  C 19.6 1.7734375  19.5653645833333 1.685546875  19.49609375 1.611328125  Z M 20.4859375 0.550781250000001  C 20.8286458333333 0.917968749999999  21 1.359375  21 1.875  L 21 16.125  C 21 16.640625  20.8286458333333 17.08203125  20.4859375 17.44921875  C 20.1432291666667 17.81640625  19.73125 18  19.25 18  L 1.75 18  C 1.26875 18  0.856770833333333 17.81640625  0.5140625 17.44921875  C 0.171354166666667 17.08203125  0 16.640625  0 16.125  L 0 1.875  C 0 1.359375  0.171354166666667 0.917968749999999  0.5140625 0.550781250000001  C 0.856770833333333 0.183593749999998  1.26875 0  1.75 0  L 19.25 0  C 19.73125 0  20.1432291666667 0.183593749999998  20.4859375 0.550781250000001  Z " fill-rule="nonzero" fill="#000000" stroke="none" transform="matrix(1 0 0 1 285 522 )" />
  </g>
</svg>