<?xml version="1.0" encoding="utf-8"?>
<svg version="1.1" xmlns:xlink="http://www.w3.org/1999/xlink" width="21px" height="23px" xmlns="http://www.w3.org/2000/svg">
  <g transform="matrix(1 0 0 1 -284 -569 )">
    <path d="M 20.6171875 0.387019230769232  C 20.8723958333333 0.645032051282049  21 0.958333333333332  21 1.32692307692308  L 21 16.8076923076923  C 21 17.2684294871795  20.8450520833333 17.6784855769231  20.53515625 18.0378605769231  C 20.2252604166667 18.3972355769231  19.8333333333333 18.6759815705128  19.359375 18.8740985576923  C 18.8854166666667 19.0722155448718  18.4137369791667 19.2196514423077  17.9443359375 19.31640625  C 17.4749348958333 19.4131610576923  17.03515625 19.4615384615385  16.625 19.4615384615385  C 16.21484375 19.4615384615385  15.7750651041667 19.4131610576923  15.3056640625 19.31640625  C 14.8362630208333 19.2196514423077  14.3645833333333 19.0722155448718  13.890625 18.8740985576923  C 13.4166666666667 18.6759815705128  13.0247395833333 18.3972355769231  12.71484375 18.0378605769231  C 12.4049479166667 17.6784855769231  12.25 17.2684294871795  12.25 16.8076923076923  C 12.25 16.3469551282051  12.4049479166667 15.9368990384615  12.71484375 15.5775240384615  C 13.0247395833333 15.2181490384615  13.4166666666667 14.9394030448718  13.890625 14.7412860576923  C 14.3645833333333 14.5431690705128  14.8362630208333 14.3957331730769  15.3056640625 14.2989783653846  C 15.7750651041667 14.2022235576923  16.21484375 14.1538461538462  16.625 14.1538461538462  C 17.58203125 14.1538461538462  18.45703125 14.3335336538462  19.25 14.6929086538462  L 19.25 7.27043269230769  L 8.75 10.5462740384615  L 8.75 20.3461538461538  C 8.75 20.806891025641  8.59505208333333 21.2169471153846  8.28515625 21.5763221153846  C 7.97526041666667 21.9356971153846  7.58333333333333 22.2144431089744  7.109375 22.4125600961538  C 6.63541666666667 22.6106770833333  6.16373697916667 22.7581129807692  5.6943359375 22.8548677884615  C 5.22493489583333 22.9516225961538  4.78515625 23  4.375 23  C 3.96484375 23  3.52506510416667 22.9516225961538  3.0556640625 22.8548677884615  C 2.58626302083333 22.7581129807692  2.11458333333333 22.6106770833333  1.640625 22.4125600961538  C 1.16666666666667 22.2144431089744  0.774739583333333 21.9356971153846  0.46484375 21.5763221153846  C 0.154947916666667 21.2169471153846  0 20.806891025641  0 20.3461538461538  C 0 19.8854166666667  0.154947916666667 19.4753605769231  0.46484375 19.1159855769231  C 0.774739583333333 18.7566105769231  1.16666666666667 18.4778645833333  1.640625 18.2797475961538  C 2.11458333333333 18.0816306089744  2.58626302083333 17.9341947115385  3.0556640625 17.8374399038462  C 3.52506510416667 17.7406850961538  3.96484375 17.6923076923077  4.375 17.6923076923077  C 5.33203125 17.6923076923077  6.20703125 17.8719951923077  7 18.2313701923077  L 7 4.86538461538462  C 7 4.57972756410256  7.08658854166667 4.31941105769231  7.259765625 4.08443509615384  C 7.43294270833333 3.84945913461538  7.65625 3.68589743589743  7.9296875 3.59375  L 19.3046875 0.0552884615384613  C 19.4140625 0.0184294871794871  19.5416666666667 0  19.6875 0  C 20.0520833333333 0  20.3619791666667 0.12900641025641  20.6171875 0.387019230769232  Z " fill-rule="nonzero" fill="#000000" stroke="none" transform="matrix(1 0 0 1 284 569 )" />
  </g>
</svg>