<?xml version="1.0" encoding="utf-8"?>
<svg version="1.1" xmlns:xlink="http://www.w3.org/1999/xlink" width="21px" height="15px" xmlns="http://www.w3.org/2000/svg">
  <g transform="matrix(1 0 0 1 -284 -620 )">
    <path d="M 20.54296875 0.43359375  C 20.84765625 0.566406249999999  21 0.796875  21 1.125  L 21 13.875  C 21 14.203125  20.84765625 14.43359375  20.54296875 14.56640625  C 20.44140625 14.60546875  20.34375 14.625  20.25 14.625  C 20.0390625 14.625  19.86328125 14.55078125  19.72265625 14.40234375  L 15 9.6796875  L 15 11.625  C 15 12.5546875  14.669921875 13.349609375  14.009765625 14.009765625  C 13.349609375 14.669921875  12.5546875 15  11.625 15  L 3.375 15  C 2.4453125 15  1.650390625 14.669921875  0.990234375 14.009765625  C 0.330078125 13.349609375  0 12.5546875  0 11.625  L 0 3.375  C 0 2.4453125  0.330078125 1.650390625  0.990234375 0.990234375  C 1.650390625 0.330078124999998  2.4453125 0  3.375 0  L 11.625 0  C 12.5546875 0  13.349609375 0.330078124999998  14.009765625 0.990234375  C 14.669921875 1.650390625  15 2.4453125  15 3.375  L 15 5.30859375  L 19.72265625 0.597656249999999  C 19.86328125 0.449218749999999  20.0390625 0.375  20.25 0.375  C 20.34375 0.375  20.44140625 0.394531249999998  20.54296875 0.43359375  Z " fill-rule="nonzero" fill="#000000" stroke="none" transform="matrix(1 0 0 1 284 620 )" />
  </g>
</svg>