<?xml version="1.0" encoding="utf-8"?>
<svg version="1.1" xmlns:xlink="http://www.w3.org/1999/xlink" width="19px" height="22px" xmlns="http://www.w3.org/2000/svg">
  <g transform="matrix(1 0 0 1 -287 -469 )">
    <path d="M 13.1119791666667 0.834821428571429  L 18.1588541666667 5.84375  C 18.2743055555556 5.95833333333333  18.3897569444444 6.10565476190476  18.5052083333333 6.28571428571429  L 12.6666666666667 6.28571428571429  L 12.6666666666667 0.491071428571429  C 12.8480902777778 0.605654761904761  12.9965277777778 0.720238095238093  13.1119791666667 0.834821428571429  Z M 11.4296875 7.51339285714286  C 11.6605902777778 7.74255952380952  11.9409722222222 7.85714285714286  12.2708333333333 7.85714285714286  L 19 7.85714285714286  L 19 20.8214285714286  C 19 21.1488095238095  18.8845486111111 21.4270833333333  18.6536458333333 21.65625  C 18.4227430555556 21.8854166666667  18.1423611111111 22  17.8125 22  L 1.1875 22  C 0.857638888888889 22  0.577256944444445 21.8854166666667  0.346354166666667 21.65625  C 0.115451388888889 21.4270833333333  0 21.1488095238095  0 20.8214285714286  L 0 1.17857142857143  C 0 0.851190476190476  0.115451388888889 0.572916666666666  0.346354166666667 0.34375  C 0.577256944444445 0.114583333333334  0.857638888888889 0  1.1875 0  L 11.0833333333333 0  L 11.0833333333333 6.67857142857143  C 11.0833333333333 7.00595238095238  11.1987847222222 7.28422619047619  11.4296875 7.51339285714286  Z M 14.138671875 17.1752232142857  C 14.212890625 17.1015625  14.25 17.0074404761905  14.25 16.8928571428571  L 14.25 16.1071428571429  C 14.25 15.9925595238095  14.212890625 15.8984375  14.138671875 15.8247767857143  C 14.064453125 15.7511160714286  13.9696180555556 15.7142857142857  13.8541666666667 15.7142857142857  L 5.14583333333333 15.7142857142857  C 5.03038194444444 15.7142857142857  4.935546875 15.7511160714286  4.861328125 15.8247767857143  C 4.787109375 15.8984375  4.75 15.9925595238095  4.75 16.1071428571429  L 4.75 16.8928571428571  C 4.75 17.0074404761905  4.787109375 17.1015625  4.861328125 17.1752232142857  C 4.935546875 17.2488839285714  5.03038194444444 17.2857142857143  5.14583333333333 17.2857142857143  L 13.8541666666667 17.2857142857143  C 13.9696180555556 17.2857142857143  14.064453125 17.2488839285714  14.138671875 17.1752232142857  Z M 14.138671875 14.0323660714286  C 14.212890625 13.9587053571429  14.25 13.8645833333333  14.25 13.75  L 14.25 12.9642857142857  C 14.25 12.8497023809524  14.212890625 12.7555803571429  14.138671875 12.6819196428571  C 14.064453125 12.6082589285714  13.9696180555556 12.5714285714286  13.8541666666667 12.5714285714286  L 5.14583333333333 12.5714285714286  C 5.03038194444444 12.5714285714286  4.935546875 12.6082589285714  4.861328125 12.6819196428571  C 4.787109375 12.7555803571429  4.75 12.8497023809524  4.75 12.9642857142857  L 4.75 13.75  C 4.75 13.8645833333333  4.787109375 13.9587053571429  4.861328125 14.0323660714286  C 4.935546875 14.1060267857143  5.03038194444444 14.1428571428571  5.14583333333333 14.1428571428571  L 13.8541666666667 14.1428571428571  C 13.9696180555556 14.1428571428571  14.064453125 14.1060267857143  14.138671875 14.0323660714286  Z M 14.138671875 10.8895089285714  C 14.212890625 10.8158482142857  14.25 10.7217261904762  14.25 10.6071428571429  L 14.25 9.82142857142857  C 14.25 9.70684523809524  14.212890625 9.61272321428572  14.138671875 9.5390625  C 14.064453125 9.46540178571428  13.9696180555556 9.42857142857143  13.8541666666667 9.42857142857143  L 5.14583333333333 9.42857142857143  C 5.03038194444444 9.42857142857143  4.935546875 9.46540178571428  4.861328125 9.5390625  C 4.787109375 9.61272321428572  4.75 9.70684523809524  4.75 9.82142857142857  L 4.75 10.6071428571429  C 4.75 10.7217261904762  4.787109375 10.8158482142857  4.861328125 10.8895089285714  C 4.935546875 10.9631696428571  5.03038194444444 11  5.14583333333333 11  L 13.8541666666667 11  C 13.9696180555556 11  14.064453125 10.9631696428571  14.138671875 10.8895089285714  Z " fill-rule="nonzero" fill="#000000" stroke="none" transform="matrix(1 0 0 1 287 469 )" />
  </g>
</svg>