<?xml version="1.0" encoding="utf-8"?>
<svg version="1.1" xmlns:xlink="http://www.w3.org/1999/xlink" width="16px" height="12px" xmlns="http://www.w3.org/2000/svg">
  <g transform="matrix(1 0 0 1 -204 -710 )">
    <path d="M 5.37946428571429 4.29296875  C 5.60267857142857 4.48828125  5.71428571428571 4.72395833333333  5.71428571428571 5  C 5.71428571428571 5.27604166666667  5.60267857142857 5.51171875  5.37946428571429 5.70703125  C 5.15625 5.90234375  4.88690476190476 6  4.57142857142857 6  C 4.25595238095238 6  3.98660714285714 5.90234375  3.76339285714286 5.70703125  C 3.54017857142857 5.51171875  3.42857142857143 5.27604166666667  3.42857142857143 5  C 3.42857142857143 4.72395833333333  3.54017857142857 4.48828125  3.76339285714286 4.29296875  C 3.98660714285714 4.09765625  4.25595238095238 4  4.57142857142857 4  C 4.88690476190476 4  5.15625 4.09765625  5.37946428571429 4.29296875  Z M 8.80803571428571 4.29296875  C 9.03125 4.48828125  9.14285714285714 4.72395833333333  9.14285714285714 5  C 9.14285714285714 5.27604166666667  9.03125 5.51171875  8.80803571428571 5.70703125  C 8.58482142857143 5.90234375  8.31547619047619 6  8 6  C 7.68452380952381 6  7.41517857142857 5.90234375  7.19196428571429 5.70703125  C 6.96875 5.51171875  6.85714285714286 5.27604166666667  6.85714285714286 5  C 6.85714285714286 4.72395833333333  6.96875 4.48828125  7.19196428571429 4.29296875  C 7.41517857142857 4.09765625  7.68452380952381 4  8 4  C 8.31547619047619 4  8.58482142857143 4.09765625  8.80803571428571 4.29296875  Z M 12.2366071428571 4.29296875  C 12.4598214285714 4.48828125  12.5714285714286 4.72395833333333  12.5714285714286 5  C 12.5714285714286 5.27604166666667  12.4598214285714 5.51171875  12.2366071428571 5.70703125  C 12.0133928571429 5.90234375  11.7440476190476 6  11.4285714285714 6  C 11.1130952380952 6  10.84375 5.90234375  10.6205357142857 5.70703125  C 10.3973214285714 5.51171875  10.2857142857143 5.27604166666667  10.2857142857143 5  C 10.2857142857143 4.72395833333333  10.3973214285714 4.48828125  10.6205357142857 4.29296875  C 10.84375 4.09765625  11.1130952380952 4  11.4285714285714 4  C 11.7440476190476 4  12.0133928571429 4.09765625  12.2366071428571 4.29296875  Z M 11.40625 1.54296875  C 10.3497023809524 1.18098958333333  9.21428571428571 1  8 1  C 6.78571428571429 1  5.65029761904762 1.18098958333333  4.59375 1.54296875  C 3.53720238095238 1.90494791666667  2.69791666666667 2.39322916666667  2.07589285714286 3.0078125  C 1.45386904761905 3.62239583333333  1.14285714285714 4.28645833333333  1.14285714285714 5  C 1.14285714285714 5.58333333333333  1.35565476190476 6.13932291666667  1.78125 6.66796875  C 2.20684523809524 7.19661458333333  2.80654761904762 7.65364583333333  3.58035714285714 8.0390625  L 4.35714285714286 8.4296875  L 4.11607142857143 9.1796875  C 3.97321428571429 9.65364583333333  3.76488095238095 10.1015625  3.49107142857143 10.5234375  C 4.39583333333333 10.1953125  5.21428571428571 9.75  5.94642857142857 9.1875  L 6.33035714285714 8.890625  L 6.83928571428571 8.9375  C 7.25 8.97916666666667  7.63690476190476 9  8 9  C 9.21428571428571 9  10.3497023809524 8.81901041666666  11.40625 8.45703125  C 12.4627976190476 8.09505208333333  13.3020833333333 7.60677083333333  13.9241071428571 6.9921875  C 14.546130952381 6.37760416666667  14.8571428571429 5.71354166666667  14.8571428571429 5  C 14.8571428571429 4.28645833333333  14.546130952381 3.62239583333333  13.9241071428571 3.0078125  C 13.3020833333333 2.39322916666667  12.4627976190476 1.90494791666667  11.40625 1.54296875  Z M 15.3660714285714 3.05859375  C 15.7886904761905 3.67578125  16 4.32291666666667  16 5  C 16 5.90625  15.6428571428571 6.74348958333333  14.9285714285714 7.51171875  C 14.2142857142857 8.27994791666666  13.2440476190476 8.88671875  12.0178571428571 9.33203125  C 10.7916666666667 9.77734375  9.45238095238095 10  8 10  C 7.58333333333333 10  7.15178571428571 9.97916666666667  6.70535714285714 9.9375  C 5.52678571428571 10.8489583333333  4.1577380952381 11.4791666666667  2.59821428571429 11.828125  C 2.30654761904762 11.9010416666667  1.9672619047619 11.9583333333333  1.58035714285714 12  L 1.53571428571429 12  C 1.44642857142857 12  1.36607142857143 11.97265625  1.29464285714286 11.91796875  C 1.22321428571429 11.86328125  1.17559523809524 11.7916666666667  1.15178571428571 11.703125  L 1.15178571428571 11.6953125  C 1.13392857142857 11.6744791666667  1.13244047619048 11.6432291666667  1.14732142857143 11.6015625  C 1.16220238095238 11.5598958333333  1.16815476190476 11.5338541666667  1.16517857142857 11.5234375  C 1.16220238095238 11.5130208333333  1.17559523809524 11.48828125  1.20535714285714 11.44921875  L 1.25892857142857 11.37890625  C 1.25892857142857 11.37890625  1.2797619047619 11.3567708333333  1.32142857142857 11.3125  C 1.36309523809524 11.2682291666667  1.38690476190476 11.2447916666667  1.39285714285714 11.2421875  C 1.43452380952381 11.2005208333333  1.52678571428571 11.1106770833333  1.66964285714286 10.97265625  C 1.8125 10.8346354166667  1.91517857142857 10.7356770833333  1.97767857142857 10.67578125  C 2.04017857142857 10.6158854166667  2.13244047619048 10.5130208333333  2.25446428571429 10.3671875  C 2.3764880952381 10.2213541666667  2.47321428571429 10.0885416666667  2.54464285714286 9.96875  C 2.61607142857143 9.84895833333333  2.69642857142857 9.6953125  2.78571428571429 9.5078125  C 2.875 9.3203125  2.95238095238095 9.12239583333333  3.01785714285714 8.9140625  C 2.08333333333333 8.45052083333333  1.34672619047619 7.87760416666667  0.808035714285714 7.1953125  C 0.269345238095238 6.51302083333333  0 5.78125  0 5  C 0 4.32291666666667  0.211309523809524 3.67578125  0.633928571428571 3.05859375  C 1.05654761904762 2.44140625  1.625 1.90885416666667  2.33928571428571 1.4609375  C 3.05357142857143 1.01302083333333  3.90476190476191 0.657552083333332  4.89285714285714 0.39453125  C 5.88095238095238 0.131510416666666  6.91666666666667 0  8 0  C 9.08333333333333 0  10.1190476190476 0.131510416666666  11.1071428571429 0.39453125  C 12.0952380952381 0.657552083333332  12.9464285714286 1.01302083333333  13.6607142857143 1.4609375  C 14.375 1.90885416666667  14.9434523809524 2.44140625  15.3660714285714 3.05859375  Z " fill-rule="nonzero" fill="#aaaaaa" stroke="none" transform="matrix(1 0 0 1 204 710 )" />
  </g>
</svg>