<?xml version="1.0" encoding="utf-8"?>
<svg version="1.1" xmlns:xlink="http://www.w3.org/1999/xlink" width="20px" height="12px" xmlns="http://www.w3.org/2000/svg">
  <g transform="matrix(1 0 0 1 -141 -710 )">
    <path d="M 14.8493303571429 9.40104166666667  C 16.3411458333333 8.55729166666667  17.5818452380952 7.42361111111111  18.5714285714286 6  C 17.4404761904762 4.36111111111111  16.0230654761905 3.13541666666667  14.3191964285714 2.32291666666667  C 14.7730654761905 3.04513888888889  15 3.82638888888889  15 4.66666666666667  C 15 5.95138888888889  14.5107886904762 7.05034722222222  13.5323660714286 7.96354166666667  C 12.553943452381 8.87673611111111  11.3764880952381 9.33333333333333  10 9.33333333333333  C 8.62351190476191 9.33333333333333  7.44605654761905 8.87673611111111  6.46763392857143 7.96354166666667  C 5.48921130952381 7.05034722222222  5 5.95138888888889  5 4.66666666666667  C 5 3.82638888888889  5.22693452380952 3.04513888888889  5.68080357142857 2.32291666666667  C 3.97693452380952 3.13541666666667  2.55952380952381 4.36111111111111  1.42857142857143 6  C 2.41815476190476 7.42361111111111  3.65885416666667 8.55729166666667  5.15066964285714 9.40104166666667  C 6.64248511904762 10.2447916666667  8.25892857142857 10.6666666666667  10 10.6666666666667  C 11.7410714285714 10.6666666666667  13.3575148809524 10.2447916666667  14.8493303571429 9.40104166666667  Z M 10.3794642857143 2.35416666666667  C 10.483630952381 2.25694444444444  10.5357142857143 2.13888888888889  10.5357142857143 2  C 10.5357142857143 1.86111111111111  10.483630952381 1.74305555555555  10.3794642857143 1.64583333333333  C 10.2752976190476 1.54861111111111  10.1488095238095 1.5  10 1.5  C 9.06994047619048 1.5  8.27194940476191 1.81076388888889  7.60602678571429 2.43229166666667  C 6.94010416666667 3.05381944444444  6.60714285714286 3.79861111111111  6.60714285714286 4.66666666666667  C 6.60714285714286 4.80555555555556  6.65922619047619 4.92361111111111  6.76339285714286 5.02083333333333  C 6.86755952380952 5.11805555555555  6.99404761904762 5.16666666666667  7.14285714285714 5.16666666666667  C 7.29166666666667 5.16666666666667  7.41815476190476 5.11805555555555  7.52232142857143 5.02083333333333  C 7.62648809523809 4.92361111111111  7.67857142857143 4.80555555555556  7.67857142857143 4.66666666666667  C 7.67857142857143 4.06944444444444  7.90550595238095 3.55902777777778  8.359375 3.13541666666667  C 8.81324404761905 2.71180555555556  9.36011904761905 2.5  10 2.5  C 10.1488095238095 2.5  10.2752976190476 2.45138888888889  10.3794642857143 2.35416666666667  Z M 19.7767857142857 5.28125  C 19.9255952380952 5.52430555555556  20 5.76388888888889  20 6  C 20 6.23611111111111  19.9255952380952 6.47569444444444  19.7767857142857 6.71875  C 18.7351190476191 8.31597222222222  17.3344494047619 9.59548611111111  15.5747767857143 10.5572916666667  C 13.8151041666667 11.5190972222222  11.9568452380952 12  10 12  C 8.04315476190476 12  6.18489583333333 11.5173611111111  4.42522321428571 10.5520833333333  C 2.6655505952381 9.58680555555556  1.26488095238095 8.30902777777778  0.223214285714286 6.71875  C 0.0744047619047619 6.47569444444444  0 6.23611111111111  0 6  C 0 5.76388888888889  0.0744047619047619 5.52430555555556  0.223214285714286 5.28125  C 1.26488095238095 3.69097222222222  2.6655505952381 2.41319444444444  4.42522321428571 1.44791666666667  C 6.18489583333333 0.482638888888888  8.04315476190476 0  10 0  C 11.9568452380952 0  13.8151041666667 0.482638888888888  15.5747767857143 1.44791666666667  C 17.3344494047619 2.41319444444444  18.7351190476191 3.69097222222222  19.7767857142857 5.28125  Z " fill-rule="nonzero" fill="#aaaaaa" stroke="none" transform="matrix(1 0 0 1 141 710 )" />
  </g>
</svg>