<?xml version="1.0" encoding="utf-8"?>
<svg version="1.1" xmlns:xlink="http://www.w3.org/1999/xlink" width="13px" height="12px" xmlns="http://www.w3.org/2000/svg">
  <g transform="matrix(1 0 0 1 -255 -710 )">
    <path d="M 1.925625 9.85546875  C 2.02854166666664 9.75911458333333  2.08000000000002 9.64062500000001  2.08000000000002 9.50000000000001  C 2.08000000000002 9.36458333333331  2.02854166666664 9.24739583333331  1.925625 9.14843750000001  C 1.82270833333336 9.04947916666667  1.70083333333335 9  1.55999999999997 9  C 1.41375000000004 9  1.29052083333335 9.04947916666667  1.19031250000003 9.14843750000001  C 1.09010416666667 9.24739583333331  1.04000000000001 9.36458333333331  1.04000000000001 9.50000000000001  C 1.04000000000001 9.64062500000001  1.09010416666667 9.75911458333333  1.19031250000003 9.85546875  C 1.29052083333335 9.95182291666667  1.41375000000004 9.99999999999999  1.55999999999997 9.99999999999999  C 1.70083333333335 9.99999999999999  1.82270833333336 9.95182291666667  1.925625 9.85546875  Z M 3.22562499999999 5.14843749999999  C 3.32854166666667 5.24739583333333  3.37999999999997 5.36458333333333  3.37999999999997 5.49999999999999  L 3.37999999999997 10.5  C 3.37999999999997 10.6354166666667  3.32854166666667 10.7526041666667  3.22562499999999 10.8515625  C 3.12270833333335 10.9505208333333  3.00083333333334 11  2.86000000000001 11  L 0.520000000000005 11  C 0.37916666666667 11  0.257291666666704 10.9505208333333  0.154374999999979 10.8515625  C 0.0514583333333409 10.7526041666667  0 10.6354166666667  0 10.5  L 0 5.49999999999999  C 0 5.36458333333333  0.0514583333333409 5.24739583333333  0.154374999999979 5.14843749999999  C 0.257291666666704 5.04947916666669  0.37916666666667 5.00000000000001  0.520000000000005 5.00000000000001  L 2.86000000000001 5.00000000000001  C 3.00083333333334 5.00000000000001  3.12270833333335 5.04947916666669  3.22562499999999 5.14843749999999  Z M 12.536875 4.44531249999999  C 12.845625 4.74218750000001  13 5.09375000000001  13 5.49999999999999  C 13 5.94791666666666  12.8510416666667 6.33593750000001  12.553125 6.66406250000001  C 12.634375 6.89322916666667  12.675 7.09114583333331  12.675 7.25781249999999  C 12.69125 7.65364583333331  12.5747916666667 8.01041666666666  12.325625 8.32812500000001  C 12.4177083333333 8.61979166666666  12.4177083333333 8.92447916666666  12.325625 9.24218750000001  C 12.244375 9.5390625  12.098125 9.78385416666669  11.886875 9.97656249999999  C 11.935625 10.5598958333333  11.8029166666667 11.03125  11.48875 11.390625  C 11.1420833333333 11.7864583333333  10.6085416666667 11.9895833333333  9.88812499999997 12  L 9.59562500000002 12  L 8.97812499999997 12  L 8.84 12  C 8.48249999999998 12  8.09249999999999 11.9596354166667  7.66999999999998 11.87890625  C 7.24749999999997 11.7981770833333  6.9184375 11.72265625  6.68281249999999 11.65234375  C 6.44718750000002 11.58203125  6.12083333333333 11.4791666666667  5.70375000000001 11.34375  C 5.03750000000003 11.1197916666667  4.60958333333334 11.0052083333333  4.41999999999998 11  C 4.27916666666669 10.9947916666667  4.15729166666668 10.9440104166667  4.05437500000004 10.84765625  C 3.95145833333331 10.7513020833333  3.89999999999997 10.6354166666667  3.89999999999997 10.5  L 3.89999999999997 5.49218750000001  C 3.89999999999997 5.36197916666666  3.94874999999999 5.24869791666669  4.04624999999999 5.15234375000001  C 4.14374999999999 5.05598958333334  4.26020833333336 5.00260416666669  4.39562499999997 4.9921875  C 4.52562499999998 4.98177083333331  4.73145833333334 4.828125  5.01312499999997 4.53125000000001  C 5.29479166666669 4.23437499999999  5.56833333333335 3.91927083333334  5.83375000000002 3.5859375  C 6.20208333333332 3.13281249999999  6.47562499999999 2.82031250000001  6.65437499999998 2.6484375  C 6.75187500000002 2.5546875  6.83583333333333 2.42968749999999  6.90625 2.2734375  C 6.97666666666667 2.11718750000001  7.02406250000001 1.99088541666669  7.04843749999997 1.89453125000001  C 7.07281250000003 1.79817708333334  7.109375 1.640625  7.15812500000002 1.42187499999999  C 7.19604166666667 1.21875  7.22989583333333 1.05989583333334  7.25968750000002 0.945312500000014  C 7.28947916666667 0.830729166666686  7.34229166666665 0.695312499999986  7.418125 0.5390625  C 7.49395833333331 0.382812500000014  7.58604166666667 0.252604166666657  7.69437499999999 0.148437500000014  C 7.79729166666667 0.0494791666666714  7.91916666666664 0  8.05999999999997 0  C 8.30916666666667 0  8.53260416666668 0.0273437499999858  8.7303125 0.08203125  C 8.92802083333332 0.136718750000014  9.09052083333334 0.204427083333343  9.21781249999999 0.285156249999986  C 9.34510416666668 0.365885416666671  9.45343749999996 0.471354166666671  9.5428125 0.601562499999986  C 9.63218749999999 0.731770833333343  9.69718750000002 0.848958333333343  9.7378125 0.953124999999986  C 9.77843749999997 1.05729166666667  9.81093750000003 1.18749999999999  9.83531249999999 1.34375000000001  C 9.85968749999996 1.5  9.87322916666669 1.6171875  9.87593750000001 1.69531250000001  C 9.87864583333333 1.77343749999999  9.87999999999997 1.875  9.87999999999997 2.00000000000001  C 9.87999999999997 2.19791666666666  9.85427083333336 2.39583333333334  9.80281249999998 2.59374999999999  C 9.75135416666668 2.79166666666667  9.69989583333334 2.94791666666666  9.6484375 3.06249999999999  C 9.59697916666666 3.17708333333331  9.52249999999999 3.32291666666666  9.42499999999999 3.50000000000001  C 9.40875000000003 3.53124999999999  9.38166666666665 3.57812499999999  9.34375 3.64062500000001  C 9.30583333333335 3.703125  9.27604166666669 3.76041666666669  9.254375 3.81249999999999  C 9.23270833333332 3.86458333333333  9.21104166666667 3.92708333333331  9.18937500000002 3.99999999999999  L 11.44 3.99999999999999  C 11.8625 3.99999999999999  12.228125 4.1484375  12.536875 4.44531249999999  Z " fill-rule="nonzero" fill="#00bfbf" stroke="none" transform="matrix(1 0 0 1 255 710 )" />
  </g>
</svg>