<?xml version="1.0" encoding="utf-8"?>
<svg version="1.1" xmlns:xlink="http://www.w3.org/1999/xlink" width="12px" height="12px" viewBox="519 160.5  12 12" xmlns="http://www.w3.org/2000/svg">
  <path d="M 525 160.5  C 528.36 160.5  531 163.14  531 166.5  C 531 169.86  528.36 172.5  525 172.5  C 521.64 172.5  519 169.86  519 166.5  C 519 163.14  521.64 160.5  525 160.5  Z " fill-rule="nonzero" fill="#ffffff" stroke="none" />
  <path d="M 525 161  C 528.08 161  530.5 163.42  530.5 166.5  C 530.5 169.58  528.08 172  525 172  C 521.92 172  519.5 169.58  519.5 166.5  C 519.5 163.42  521.92 161  525 161  Z " stroke-width="1" stroke="#797979" fill="none" />
  <path d="M 525 169.5  C 523.32 169.5  522 168.18  522 166.5  C 522 164.82  523.32 163.5  525 163.5  C 526.68 163.5  528 164.82  528 166.5  C 528 168.18  526.68 169.5  525 169.5  " fill-rule="nonzero" fill="#797979" stroke="none" />
</svg>