<?xml version="1.0" encoding="utf-8"?>
<svg version="1.1" xmlns:xlink="http://www.w3.org/1999/xlink" width="12px" height="12px" viewBox="440 160.5  12 12" xmlns="http://www.w3.org/2000/svg">
  <path d="M 446 160.5  C 449.36 160.5  452 163.14  452 166.5  C 452 169.86  449.36 172.5  446 172.5  C 442.64 172.5  440 169.86  440 166.5  C 440 163.14  442.64 160.5  446 160.5  Z " fill-rule="nonzero" fill="#ffffff" stroke="none" />
  <path d="M 446 161  C 449.08 161  451.5 163.42  451.5 166.5  C 451.5 169.58  449.08 172  446 172  C 442.92 172  440.5 169.58  440.5 166.5  C 440.5 163.42  442.92 161  446 161  Z " stroke-width="1" stroke="#797979" fill="none" />
  <path d="M 446 169.5  C 444.32 169.5  443 168.18  443 166.5  C 443 164.82  444.32 163.5  446 163.5  C 447.68 163.5  449 164.82  449 166.5  C 449 168.18  447.68 169.5  446 169.5  " fill-rule="nonzero" fill="#797979" stroke="none" />
</svg>