<?xml version="1.0" encoding="utf-8"?>
<svg version="1.1" xmlns:xlink="http://www.w3.org/1999/xlink" width="12px" height="12px" viewBox="511 129.5  12 12" xmlns="http://www.w3.org/2000/svg">
  <path d="M 517 129.5  C 520.36 129.5  523 132.14  523 135.5  C 523 138.86  520.36 141.5  517 141.5  C 513.64 141.5  511 138.86  511 135.5  C 511 132.14  513.64 129.5  517 129.5  Z " fill-rule="nonzero" fill="#ffffff" stroke="none" />
  <path d="M 517 130  C 520.08 130  522.5 132.42  522.5 135.5  C 522.5 138.58  520.08 141  517 141  C 513.92 141  511.5 138.58  511.5 135.5  C 511.5 132.42  513.92 130  517 130  Z " stroke-width="1" stroke="#797979" fill="none" />
  <path d="M 517 138.5  C 515.32 138.5  514 137.18  514 135.5  C 514 133.82  515.32 132.5  517 132.5  C 518.68 132.5  520 133.82  520 135.5  C 520 137.18  518.68 138.5  517 138.5  " fill-rule="nonzero" fill="#797979" stroke="none" />
</svg>