<?xml version="1.0" encoding="utf-8"?>
<svg version="1.1" xmlns:xlink="http://www.w3.org/1999/xlink" width="98px" height="88px" xmlns="http://www.w3.org/2000/svg">
  <g transform="matrix(1 0 0 1 -277 -70 )">
    <path d="M 277 70  L 375 70  L 375 158  L 277 158  L 277 70  " fill-rule="nonzero" fill="#cccccc" stroke="none" />
    <path d="M 283 76  L 369 76  L 369 152  L 283 152  L 283 76  " fill-rule="nonzero" fill="#ffffff" stroke="none" />
    <path d="M 334.56 96.4  C 330.864 96.4  327.96 93.496  327.96 89.8  C 327.96 86.104  330.864 83.2  334.56 83.2  C 338.256 83.2  341.16 86.104  341.16 89.8  C 341.16 93.496  338.256 96.4  334.56 96.4  " fill-rule="nonzero" fill="#cccccc" stroke="none" />
    <path d="M 285 150  L 285 110.4  L 305.5 92.4  L 334.2 111.208163265306  L 350.6 103.2  L 367 111.208163265306  L 367 150  L 285 150  " fill-rule="nonzero" fill="#169bd5" stroke="none" />
  </g>
</svg>