<?xml version="1.0" encoding="utf-8"?>
<svg version="1.1" xmlns:xlink="http://www.w3.org/1999/xlink" width="12px" height="15px" xmlns="http://www.w3.org/2000/svg">
  <g transform="matrix(1 0 0 1 -141 -791 )">
    <path d="M 11.9203125 10.8447265625  C 11.9734375 11.3362630208333  12 11.8587239583333  12 12.412109375  C 12 13.1217447916667  11.8046875 13.73046875  11.4140625 14.23828125  C 11.0234375 14.74609375  10.553125 15  10.003125 15  L 1.996875 15  C 1.446875 15  0.9765625 14.74609375  0.5859375 14.23828125  C 0.1953125 13.73046875  0 13.1217447916667  0 12.412109375  C 0 11.8587239583333  0.0265625000000001 11.3362630208333  0.0796875000000001 10.8447265625  C 0.1328125 10.3531901041667  0.23125 9.8583984375  0.375 9.3603515625  C 0.51875 8.8623046875  0.7015625 8.43587239583333  0.9234375 8.0810546875  C 1.1453125 7.72623697916667  1.4390625 7.4365234375  1.8046875 7.2119140625  C 2.1703125 6.9873046875  2.590625 6.875  3.065625 6.875  C 3.884375 7.70833333333333  4.8625 8.125  6 8.125  C 7.1375 8.125  8.115625 7.70833333333333  8.934375 6.875  C 9.409375 6.875  9.8296875 6.9873046875  10.1953125 7.2119140625  C 10.5609375 7.4365234375  10.8546875 7.72623697916667  11.0765625 8.0810546875  C 11.2984375 8.43587239583333  11.48125 8.8623046875  11.625 9.3603515625  C 11.76875 9.8583984375  11.8671875 10.3531901041667  11.9203125 10.8447265625  Z M 8.5453125 1.0986328125  C 9.2484375 1.8310546875  9.6 2.71484375  9.6 3.75  C 9.6 4.78515625  9.2484375 5.6689453125  8.5453125 6.4013671875  C 7.8421875 7.1337890625  6.99375 7.5  6 7.5  C 5.00625 7.5  4.1578125 7.1337890625  3.4546875 6.4013671875  C 2.7515625 5.6689453125  2.4 4.78515625  2.4 3.75  C 2.4 2.71484375  2.7515625 1.8310546875  3.4546875 1.0986328125  C 4.1578125 0.3662109375  5.00625 0  6 0  C 6.99375 0  7.8421875 0.3662109375  8.5453125 1.0986328125  Z " fill-rule="nonzero" fill="#d7d7d7" stroke="none" transform="matrix(1 0 0 1 141 791 )" />
  </g>
</svg>