<?xml version="1.0" encoding="utf-8"?>
<svg version="1.1" xmlns:xlink="http://www.w3.org/1999/xlink" width="36px" height="30px" xmlns="http://www.w3.org/2000/svg">
  <g transform="matrix(1 0 0 1 -156 -126 )">
    <path d="M 34.5504807692308 9.95028409090909  C 35.5168269230769 11.9389204545455  36 14.0056818181818  36 16.1505681818182  C 36 18.5085227272727  35.5673076923077 20.7386363636364  34.7019230769231 22.8409090909091  L 34.2692307692308 23.8849431818182  L 30.2668269230769 24.5880681818182  C 29.9495192307692 25.7670454545455  29.296875 26.7365056818182  28.3088942307692 27.4964488636364  C 27.3209134615385 28.2563920454545  26.1923076923077 28.6363636363636  24.9230769230769 28.6363636363636  L 24.9230769230769 29.3181818181818  C 24.9230769230769 29.5170454545455  24.8581730769231 29.6803977272727  24.7283653846154 29.8082386363636  C 24.5985576923077 29.9360795454545  24.4326923076923 30  24.2307692307692 30  L 22.8461538461538 30  C 22.6442307692308 30  22.4783653846154 29.9360795454545  22.3485576923077 29.8082386363636  C 22.21875 29.6803977272727  22.1538461538462 29.5170454545455  22 29.3181818181818  L 22 17.0454545454545  C 22.1538461538462 16.8465909090909  22.21875 16.6832386363636  22.3485576923077 16.5553977272727  C 22.4783653846154 16.4275568181818  22.6442307692308 16.3636363636364  22.8461538461538 16.3636363636364  L 24.2307692307692 16.3636363636364  C 24.4326923076923 16.3636363636364  24.5985576923077 16.4275568181818  24.7283653846154 16.5553977272727  C 24.8581730769231 16.6832386363636  24.9230769230769 16.8465909090909  24.9230769230769 17.0454545454545  L 24.9230769230769 17.7272727272727  C 25.9471153846154 17.7272727272727  26.8846153846154 17.9794034090909  27.7355769230769 18.4836647727273  C 28.5865384615385 18.9879261363636  29.2572115384615 19.6661931818182  29.7475961538462 20.5184659090909  L 31.21875 20.2627840909091  C 31.6370192307692 18.9133522727273  31.8461538461538 17.5426136363636  31.8461538461538 16.1505681818182  C 31.8461538461538 14.0482954545455  31.2115384615385 12.0667613636364  29.9423076923077 10.2059659090909  C 28.6730769230769 8.34517045454546  26.9675480769231 6.86079545454545  24.8257211538462 5.75284090909091  C 22.6838942307692 4.64488636363636  20.4086538461538 4.09090909090909  18 4.09090909090909  C 15.5913461538462 4.09090909090909  13.3161057692308 4.64488636363636  11.1742788461538 5.75284090909091  C 9.03245192307692 6.86079545454545  7.32692307692308 8.34517045454546  6.05769230769231 10.2059659090909  C 4.78846153846154 12.0667613636364  4.15384615384615 14.0482954545455  4.15384615384615 16.1505681818182  C 4.15384615384615 17.5426136363636  4.36298076923077 18.9133522727273  4.78125 20.2627840909091  L 6.25240384615385 20.5184659090909  C 6.74278846153846 19.6661931818182  7.41346153846154 18.9879261363636  8.26442307692308 18.4836647727273  C 9.11538461538462 17.9794034090909  10.0528846153846 17.7272727272727  11.0769230769231 17.7272727272727  L 11.0769230769231 17.0454545454545  C 11.0769230769231 16.8465909090909  11.1418269230769 16.6832386363636  11.2716346153846 16.5553977272727  C 11.4014423076923 16.4275568181818  11.5673076923077 16.3636363636364  11.7692307692308 16.3636363636364  L 13.1538461538462 16.3636363636364  C 13.3557692307692 16.3636363636364  13.5216346153846 16.4275568181818  13.6514423076923 16.5553977272727  C 13.78125 16.6832386363636  13.8461538461538 16.8465909090909  14 17.0454545454545  L 14 29.3181818181818  C 13.8461538461538 29.5170454545455  13.78125 29.6803977272727  13.6514423076923 29.8082386363636  C 13.5216346153846 29.9360795454545  13.3557692307692 30  13.1538461538462 30  L 11.7692307692308 30  C 11.5673076923077 30  11.4014423076923 29.9360795454545  11.2716346153846 29.8082386363636  C 11.1418269230769 29.6803977272727  11.0769230769231 29.5170454545455  11.0769230769231 29.3181818181818  L 11.0769230769231 28.6363636363636  C 9.80769230769231 28.6363636363636  8.67908653846154 28.2563920454545  7.69110576923077 27.4964488636364  C 6.703125 26.7365056818182  6.05048076923077 25.7670454545455  5.73317307692308 24.5880681818182  L 1.73076923076923 23.8849431818182  L 1.29807692307692 22.8409090909091  C 0.432692307692308 20.7386363636364  0 18.5085227272727  0 16.1505681818182  C 0 14.0056818181818  0.483173076923077 11.9389204545455  1.44951923076923 9.95028409090909  C 2.41586538461538 7.96164772727272  3.70673076923077 6.23934659090909  5.32211538461539 4.78338068181818  C 6.9375 3.32741477272727  8.85576923076923 2.16619318181818  11.0769230769231 1.29971590909091  C 13.2980769230769 0.433238636363635  15.6057692307692 0  18 0  C 20.3942307692308 0  22.7019230769231 0.433238636363635  24.9230769230769 1.29971590909091  C 27.1442307692308 2.16619318181818  29.0625 3.32741477272727  30.6778846153846 4.78338068181818  C 32.2932692307692 6.23934659090909  33.5841346153846 7.96164772727272  34.5504807692308 9.95028409090909  Z " fill-rule="nonzero" fill="#000000" stroke="none" transform="matrix(1 0 0 1 156 126 )" />
  </g>
</svg>