<?xml version="1.0" encoding="utf-8"?>
<svg version="1.1" xmlns:xlink="http://www.w3.org/1999/xlink" width="6px" height="6px" xmlns="http://www.w3.org/2000/svg">
  <g transform="matrix(1 0 0 1 -313 -84 )">
    <path d="M 316 84  C 317.68 84  319 85.32  319 87  C 319 88.68  317.68 90  316 90  C 314.32 90  313 88.68  313 87  C 313 85.32  314.32 84  316 84  Z " fill-rule="nonzero" fill="#ffffff" stroke="none" />
    <path d="M 316 84.5  C 317.4 84.5  318.5 85.6  318.5 87  C 318.5 88.4  317.4 89.5  316 89.5  C 314.6 89.5  313.5 88.4  313.5 87  C 313.5 85.6  314.6 84.5  316 84.5  Z " stroke-width="1" stroke="#797979" fill="none" />
  </g>
</svg>