<?xml version="1.0" encoding="utf-8"?>
<svg version="1.1" xmlns:xlink="http://www.w3.org/1999/xlink" width="19px" height="15px" xmlns="http://www.w3.org/2000/svg">
  <g transform="matrix(1 0 0 1 -249 -321 )">
    <path d="M 6.38811383928571 5.3662109375  C 6.65318080357143 5.6103515625  6.78571428571429 5.90494791666667  6.78571428571429 6.25  C 6.78571428571429 6.59505208333333  6.65318080357143 6.8896484375  6.38811383928571 7.1337890625  C 6.123046875 7.3779296875  5.80319940476191 7.5  5.42857142857143 7.5  C 5.05394345238095 7.5  4.73409598214286 7.3779296875  4.46902901785714 7.1337890625  C 4.20396205357143 6.8896484375  4.07142857142857 6.59505208333333  4.07142857142857 6.25  C 4.07142857142857 5.90494791666667  4.20396205357143 5.6103515625  4.46902901785714 5.3662109375  C 4.73409598214286 5.1220703125  5.05394345238095 5  5.42857142857143 5  C 5.80319940476191 5  6.123046875 5.1220703125  6.38811383928571 5.3662109375  Z M 10.4595424107143 5.3662109375  C 10.724609375 5.6103515625  10.8571428571429 5.90494791666667  10.8571428571429 6.25  C 10.8571428571429 6.59505208333333  10.724609375 6.8896484375  10.4595424107143 7.1337890625  C 10.1944754464286 7.3779296875  9.87462797619048 7.5  9.5 7.5  C 9.12537202380953 7.5  8.80552455357143 7.3779296875  8.54045758928571 7.1337890625  C 8.275390625 6.8896484375  8.14285714285714 6.59505208333333  8.14285714285714 6.25  C 8.14285714285714 5.90494791666667  8.275390625 5.6103515625  8.54045758928571 5.3662109375  C 8.80552455357143 5.1220703125  9.12537202380953 5  9.5 5  C 9.87462797619048 5  10.1944754464286 5.1220703125  10.4595424107143 5.3662109375  Z M 14.5309709821429 5.3662109375  C 14.7960379464286 5.6103515625  14.9285714285714 5.90494791666667  14.9285714285714 6.25  C 14.9285714285714 6.59505208333333  14.7960379464286 6.8896484375  14.5309709821429 7.1337890625  C 14.2659040178571 7.3779296875  13.946056547619 7.5  13.5714285714286 7.5  C 13.1968005952381 7.5  12.876953125 7.3779296875  12.6118861607143 7.1337890625  C 12.3468191964286 6.8896484375  12.2142857142857 6.59505208333333  12.2142857142857 6.25  C 12.2142857142857 5.90494791666667  12.3468191964286 5.6103515625  12.6118861607143 5.3662109375  C 12.876953125 5.1220703125  13.1968005952381 5  13.5714285714286 5  C 13.946056547619 5  14.2659040178571 5.1220703125  14.5309709821429 5.3662109375  Z M 13.544921875 1.9287109375  C 12.290271577381 1.47623697916667  10.9419642857143 1.25  9.5 1.25  C 8.05803571428571 1.25  6.70972842261905 1.47623697916667  5.455078125 1.9287109375  C 4.20042782738095 2.38118489583333  3.20377604166667 2.99153645833333  2.46512276785714 3.759765625  C 1.72646949404762 4.52799479166666  1.35714285714286 5.35807291666667  1.35714285714286 6.25  C 1.35714285714286 6.97916666666667  1.6098400297619 7.67415364583333  2.115234375 8.3349609375  C 2.6206287202381 8.99576822916667  3.33277529761905 9.56705729166667  4.25167410714286 10.048828125  L 5.17410714285714 10.537109375  L 4.88783482142857 11.474609375  C 4.71819196428571 12.0670572916667  4.47079613095238 12.626953125  4.14564732142857 13.154296875  C 5.22005208333333 12.744140625  6.19196428571429 12.1875  7.06138392857143 11.484375  L 7.51729910714286 11.11328125  L 8.12165178571429 11.171875  C 8.609375 11.2239583333333  9.06882440476191 11.25  9.5 11.25  C 10.9419642857143 11.25  12.290271577381 11.0237630208333  13.544921875 10.5712890625  C 14.799572172619 10.1188151041667  15.7962239583333 9.50846354166667  16.5348772321429 8.740234375  C 17.2735305059524 7.97200520833333  17.6428571428571 7.14192708333333  17.6428571428571 6.25  C 17.6428571428571 5.35807291666667  17.2735305059524 4.52799479166666  16.5348772321429 3.759765625  C 15.7962239583333 2.99153645833333  14.799572172619 2.38118489583333  13.544921875 1.9287109375  Z M 18.2472098214286 3.8232421875  C 18.7490699404762 4.5947265625  19 5.40364583333333  19 6.25  C 19 7.3828125  18.5758928571429 8.42936197916666  17.7276785714286 9.3896484375  C 16.8794642857143 10.3499348958333  15.727306547619 11.1083984375  14.2712053571429 11.6650390625  C 12.8151041666667 12.2216796875  11.2247023809524 12.5  9.5 12.5  C 9.00520833333333 12.5  8.49274553571429 12.4739583333333  7.96261160714286 12.421875  C 6.56305803571429 13.5611979166667  4.93731398809524 14.3489583333333  3.08537946428571 14.78515625  C 2.73902529761905 14.8763020833333  2.33612351190476 14.9479166666667  1.87667410714286 15  L 1.82366071428571 15  C 1.71763392857143 15  1.62220982142857 14.9658203125  1.53738839285714 14.8974609375  C 1.45256696428571 14.8291015625  1.3960193452381 14.7395833333333  1.36774553571429 14.62890625  L 1.36774553571429 14.619140625  C 1.34654017857143 14.5930989583333  1.34477306547619 14.5540364583333  1.36244419642857 14.501953125  C 1.38011532738095 14.4498697916667  1.3871837797619 14.4173177083333  1.38364955357143 14.404296875  C 1.38011532738095 14.3912760416667  1.3960193452381 14.3603515625  1.43136160714286 14.3115234375  L 1.49497767857143 14.2236328125  C 1.49497767857143 14.2236328125  1.51971726190476 14.1959635416667  1.56919642857143 14.140625  C 1.6186755952381 14.0852864583333  1.6469494047619 14.0559895833333  1.65401785714286 14.052734375  C 1.70349702380952 14.0006510416667  1.81305803571429 13.8883463541667  1.98270089285714 13.7158203125  C 2.15234375 13.5432942708333  2.27427455357143 13.4195963541667  2.34849330357143 13.3447265625  C 2.42271205357143 13.2698567708333  2.53227306547619 13.1412760416667  2.67717633928571 12.958984375  C 2.82207961309524 12.7766927083333  2.93694196428571 12.6106770833333  3.02176339285714 12.4609375  C 3.10658482142857 12.3111979166667  3.20200892857143 12.119140625  3.30803571428571 11.884765625  C 3.4140625 11.650390625  3.50595238095238 11.4029947916667  3.58370535714286 11.142578125  C 2.47395833333333 10.5631510416667  1.59923735119048 9.84700520833333  0.959542410714286 8.994140625  C 0.319847470238095 8.14127604166666  0 7.2265625  0 6.25  C 0 5.40364583333333  0.250930059523809 4.5947265625  0.752790178571428 3.8232421875  C 1.25465029761905 3.0517578125  1.9296875 2.38606770833333  2.77790178571429 1.826171875  C 3.62611607142857 1.26627604166667  4.63690476190476 0.821940104166665  5.81026785714286 0.493164062499999  C 6.98363095238095 0.164388020833333  8.21354166666667 0  9.5 0  C 10.7864583333333 0  12.016369047619 0.164388020833333  13.1897321428571 0.493164062499999  C 14.3630952380952 0.821940104166665  15.3738839285714 1.26627604166667  16.2220982142857 1.826171875  C 17.0703125 2.38606770833333  17.745349702381 3.0517578125  18.2472098214286 3.8232421875  Z " fill-rule="nonzero" fill="#aaaaaa" stroke="none" transform="matrix(1 0 0 1 249 321 )" />
  </g>
</svg>