<?xml version="1.0" encoding="utf-8"?>
<svg version="1.1" xmlns:xlink="http://www.w3.org/1999/xlink" width="26px" height="22px" xmlns="http://www.w3.org/2000/svg">
  <g transform="matrix(1 0 0 1 -618 -475 )">
    <path d="M 8.74162946428571 7.87044270833333  C 9.10435267857143 8.228515625  9.28571428571429 8.66059027777778  9.28571428571429 9.16666666666667  C 9.28571428571429 9.67274305555555  9.10435267857143 10.1048177083333  8.74162946428571 10.462890625  C 8.37890625 10.8209635416667  7.94122023809524 11  7.42857142857143 11  C 6.91592261904762 11  6.47823660714286 10.8209635416667  6.11551339285714 10.462890625  C 5.75279017857143 10.1048177083333  5.57142857142857 9.67274305555555  5.57142857142857 9.16666666666667  C 5.57142857142857 8.66059027777778  5.75279017857143 8.228515625  6.11551339285714 7.87044270833333  C 6.47823660714286 7.51236979166667  6.91592261904762 7.33333333333333  7.42857142857143 7.33333333333333  C 7.94122023809524 7.33333333333333  8.37890625 7.51236979166667  8.74162946428571 7.87044270833333  Z M 14.3130580357143 7.87044270833333  C 14.67578125 8.228515625  14.8571428571429 8.66059027777778  14.8571428571429 9.16666666666667  C 14.8571428571429 9.67274305555555  14.67578125 10.1048177083333  14.3130580357143 10.462890625  C 13.9503348214286 10.8209635416667  13.5126488095238 11  13 11  C 12.4873511904762 11  12.0496651785714 10.8209635416667  11.6869419642857 10.462890625  C 11.32421875 10.1048177083333  11.1428571428571 9.67274305555555  11.1428571428571 9.16666666666667  C 11.1428571428571 8.66059027777778  11.32421875 8.228515625  11.6869419642857 7.87044270833333  C 12.0496651785714 7.51236979166667  12.4873511904762 7.33333333333333  13 7.33333333333333  C 13.5126488095238 7.33333333333333  13.9503348214286 7.51236979166667  14.3130580357143 7.87044270833333  Z M 19.8844866071429 7.87044270833333  C 20.2472098214286 8.228515625  20.4285714285714 8.66059027777778  20.4285714285714 9.16666666666667  C 20.4285714285714 9.67274305555555  20.2472098214286 10.1048177083333  19.8844866071429 10.462890625  C 19.5217633928571 10.8209635416667  19.0840773809524 11  18.5714285714286 11  C 18.0587797619048 11  17.62109375 10.8209635416667  17.2583705357143 10.462890625  C 16.8956473214286 10.1048177083333  16.7142857142857 9.67274305555555  16.7142857142857 9.16666666666667  C 16.7142857142857 8.66059027777778  16.8956473214286 8.228515625  17.2583705357143 7.87044270833333  C 17.62109375 7.51236979166667  18.0587797619048 7.33333333333333  18.5714285714286 7.33333333333333  C 19.0840773809524 7.33333333333333  19.5217633928571 7.51236979166667  19.8844866071429 7.87044270833333  Z M 18.53515625 2.82877604166667  C 16.8182663690476 2.16514756944444  14.9732142857143 1.83333333333333  13 1.83333333333333  C 11.0267857142857 1.83333333333333  9.18173363095238 2.16514756944444  7.46484375 2.82877604166667  C 5.74795386904762 3.49240451388889  4.38411458333333 4.38758680555555  3.37332589285714 5.51432291666667  C 2.36253720238095 6.64105902777778  1.85714285714286 7.85850694444444  1.85714285714286 9.16666666666667  C 1.85714285714286 10.2361111111111  2.20293898809524 11.2554253472222  2.89453125 12.224609375  C 3.58612351190476 13.1937934027778  4.56063988095238 14.0316840277778  5.81808035714286 14.73828125  L 7.08035714285714 15.4544270833333  L 6.68861607142857 16.8294270833333  C 6.45647321428571 17.6983506944444  6.11793154761905 18.51953125  5.67299107142857 19.29296875  C 7.14322916666667 18.69140625  8.47321428571429 17.875  9.66294642857143 16.84375  L 10.2868303571429 16.2994791666667  L 11.1138392857143 16.3854166666667  C 11.78125 16.4618055555556  12.4099702380952 16.5  13 16.5  C 14.9732142857143 16.5  16.8182663690476 16.1681857638889  18.53515625 15.5045572916667  C 20.2520461309524 14.8409288194444  21.6158854166667 13.9457465277778  22.6266741071429 12.8190104166667  C 23.637462797619 11.6922743055556  24.1428571428571 10.4748263888889  24.1428571428571 9.16666666666667  C 24.1428571428571 7.85850694444444  23.637462797619 6.64105902777778  22.6266741071429 5.51432291666667  C 21.6158854166667 4.38758680555555  20.2520461309524 3.49240451388889  18.53515625 2.82877604166667  Z M 24.9698660714286 5.607421875  C 25.6566220238095 6.73893229166667  26 7.92534722222222  26 9.16666666666667  C 26 10.828125  25.4196428571429 12.3630642361111  24.2589285714286 13.771484375  C 23.0982142857143 15.1799045138889  21.5215773809524 16.2923177083333  19.5290178571429 17.1087239583333  C 17.5364583333333 17.9251302083333  15.360119047619 18.3333333333333  13 18.3333333333333  C 12.3229166666667 18.3333333333333  11.6216517857143 18.2951388888889  10.8962053571429 18.21875  C 8.98102678571429 19.8897569444444  6.75632440476191 21.0451388888889  4.22209821428571 21.6848958333333  C 3.74813988095238 21.8185763888889  3.1968005952381 21.9236111111111  2.56808035714286 22  L 2.49553571428571 22  C 2.35044642857143 22  2.21986607142857 21.9498697916667  2.10379464285714 21.849609375  C 1.98772321428571 21.7493489583333  1.91034226190476 21.6180555555556  1.87165178571429 21.4557291666667  L 1.87165178571429 21.44140625  C 1.84263392857143 21.4032118055556  1.84021577380952 21.3459201388889  1.86439732142857 21.26953125  C 1.88857886904762 21.1931423611111  1.89825148809524 21.1453993055556  1.89341517857143 21.1263020833333  C 1.88857886904762 21.1072048611111  1.91034226190476 21.0618489583333  1.95870535714286 20.990234375  L 2.04575892857143 20.861328125  C 2.04575892857143 20.861328125  2.0796130952381 20.8207465277778  2.14732142857143 20.7395833333333  C 2.21502976190476 20.6584201388889  2.25372023809524 20.6154513888889  2.26339285714286 20.6106770833333  C 2.33110119047619 20.5342881944444  2.48102678571429 20.3695746527778  2.71316964285714 20.1165364583333  C 2.9453125 19.8634982638889  3.11216517857143 19.6820746527778  3.21372767857143 19.572265625  C 3.31529017857143 19.4624565972222  3.46521577380952 19.2738715277778  3.66350446428571 19.0065104166667  C 3.86179315476191 18.7391493055556  4.01897321428571 18.4956597222222  4.13504464285714 18.2760416666667  C 4.25111607142857 18.0564236111111  4.38169642857143 17.7747395833333  4.52678571428571 17.4309895833333  C 4.671875 17.0872395833333  4.79761904761905 16.7243923611111  4.90401785714286 16.3424479166667  C 3.38541666666667 15.4926215277778  2.18843005952381 14.4422743055556  1.31305803571429 13.19140625  C 0.437686011904762 11.9405381944444  0 10.5989583333333  0 9.16666666666667  C 0 7.92534722222222  0.343377976190476 6.73893229166667  1.03013392857143 5.607421875  C 1.71688988095238 4.47591145833333  2.640625 3.49956597222222  3.80133928571429 2.67838541666667  C 4.96205357142857 1.85720486111111  6.3452380952381 1.20551215277777  7.95089285714286 0.723307291666666  C 9.55654761904762 0.241102430555554  11.2395833333333 0  13 0  C 14.7604166666667 0  16.4434523809524 0.241102430555554  18.0491071428571 0.723307291666666  C 19.6547619047619 1.20551215277777  21.0379464285714 1.85720486111111  22.1986607142857 2.67838541666667  C 23.359375 3.49956597222222  24.2831101190476 4.47591145833333  24.9698660714286 5.607421875  Z " fill-rule="nonzero" fill="#aaaaaa" stroke="none" transform="matrix(1 0 0 1 618 475 )" />
  </g>
</svg>