<?xml version="1.0" encoding="utf-8"?>
<svg version="1.1" xmlns:xlink="http://www.w3.org/1999/xlink" width="26px" height="15px" xmlns="http://www.w3.org/2000/svg">
  <g transform="matrix(1 0 0 1 -518 -478 )">
    <path d="M 19.3041294642857 11.7513020833333  C 21.2434895833333 10.6966145833333  22.8563988095238 9.27951388888889  24.1428571428571 7.5  C 22.672619047619 5.45138888888889  20.8299851190476 3.91927083333333  18.6149553571429 2.90364583333333  C 19.2049851190476 3.80642361111111  19.5 4.78298611111111  19.5 5.83333333333333  C 19.5 7.43923611111111  18.864025297619 8.81293402777778  17.5920758928571 9.95442708333333  C 16.3201264880952 11.0959201388889  14.7894345238095 11.6666666666667  13 11.6666666666667  C 11.2105654761905 11.6666666666667  9.67987351190476 11.0959201388889  8.40792410714286 9.95442708333333  C 7.13597470238095 8.81293402777778  6.5 7.43923611111111  6.5 5.83333333333333  C 6.5 4.78298611111111  6.79501488095238 3.80642361111111  7.38504464285714 2.90364583333333  C 5.17001488095238 3.91927083333333  3.32738095238095 5.45138888888889  1.85714285714286 7.5  C 3.14360119047619 9.27951388888889  4.75651041666667 10.6966145833333  6.69587053571429 11.7513020833333  C 8.63523065476191 12.8059895833333  10.7366071428571 13.3333333333333  13 13.3333333333333  C 15.2633928571429 13.3333333333333  17.3647693452381 12.8059895833333  19.3041294642857 11.7513020833333  Z M 13.4933035714286 2.94270833333333  C 13.6287202380952 2.82118055555556  13.6964285714286 2.67361111111111  13.6964285714286 2.5  C 13.6964285714286 2.32638888888889  13.6287202380952 2.17881944444444  13.4933035714286 2.05729166666667  C 13.3578869047619 1.93576388888889  13.1934523809524 1.875  13 1.875  C 11.7909226190476 1.875  10.7535342261905 2.26345486111111  9.88783482142857 3.04036458333333  C 9.02213541666667 3.81727430555556  8.58928571428571 4.74826388888889  8.58928571428571 5.83333333333333  C 8.58928571428571 6.00694444444444  8.65699404761905 6.15451388888889  8.79241071428571 6.27604166666667  C 8.92782738095238 6.39756944444444  9.09226190476191 6.45833333333333  9.28571428571429 6.45833333333333  C 9.47916666666667 6.45833333333333  9.64360119047619 6.39756944444444  9.77901785714286 6.27604166666667  C 9.91443452380952 6.15451388888889  9.98214285714286 6.00694444444444  9.98214285714286 5.83333333333333  C 9.98214285714286 5.08680555555556  10.2771577380952 4.44878472222222  10.8671875 3.91927083333333  C 11.4572172619048 3.38975694444444  12.1681547619048 3.125  13 3.125  C 13.1934523809524 3.125  13.3578869047619 3.06423611111111  13.4933035714286 2.94270833333333  Z M 25.7098214285714 6.6015625  C 25.9032738095238 6.90538194444444  26 7.20486111111111  26 7.5  C 26 7.79513888888889  25.9032738095238 8.09461805555556  25.7098214285714 8.3984375  C 24.3556547619048 10.3949652777778  22.5347842261905 11.9943576388889  20.2472098214286 13.1966145833333  C 17.9596354166667 14.3988715277778  15.5438988095238 15  13 15  C 10.4561011904762 15  8.04036458333333 14.3967013888889  5.75279017857143 13.1901041666667  C 3.46521577380952 11.9835069444444  1.64434523809524 10.3862847222222  0.290178571428571 8.3984375  C 0.0967261904761905 8.09461805555556  0 7.79513888888889  0 7.5  C 0 7.20486111111111  0.0967261904761905 6.90538194444444  0.290178571428571 6.6015625  C 1.64434523809524 4.61371527777778  3.46521577380952 3.01649305555555  5.75279017857143 1.80989583333333  C 8.04036458333333 0.60329861111111  10.4561011904762 0  13 0  C 15.5438988095238 0  17.9596354166667 0.60329861111111  20.2472098214286 1.80989583333333  C 22.5347842261905 3.01649305555555  24.3556547619048 4.61371527777778  25.7098214285714 6.6015625  Z " fill-rule="nonzero" fill="#aaaaaa" stroke="none" transform="matrix(1 0 0 1 518 478 )" />
  </g>
</svg>