<?xml version="1.0" encoding="utf-8"?>
<svg version="1.1" xmlns:xlink="http://www.w3.org/1999/xlink" width="35px" height="34px" xmlns="http://www.w3.org/2000/svg">
  <g transform="matrix(1 0 0 1 -1203 -827 )">
    <path d="M 1203 827  L 1238 827  L 1238 861  L 1203 861  L 1203 827  " fill-rule="nonzero" fill="#cccccc" stroke="none" />
    <path d="M 1205 829  L 1236 829  L 1236 859  L 1205 859  L 1205 829  " fill-rule="nonzero" fill="#ffffff" stroke="none" />
    <path d="M 1223.75 837.2  C 1222.322 837.2  1221.2 836.078  1221.2 834.65  C 1221.2 833.222  1222.322 832.1  1223.75 832.1  C 1225.178 832.1  1226.3 833.222  1226.3 834.65  C 1226.3 836.078  1225.178 837.2  1223.75 837.2  " fill-rule="nonzero" fill="#cccccc" stroke="none" />
    <path d="M 1206 858  L 1206 842.6  L 1213.25 835.6  L 1223.4 841.68  L 1229.2 839.8  L 1235 841.68  L 1235 858  L 1206 858  " fill-rule="nonzero" fill="#169bd5" stroke="none" />
  </g>
</svg>