<?xml version="1.0" encoding="utf-8"?>
<svg version="1.1" xmlns:xlink="http://www.w3.org/1999/xlink" width="86px" height="86px" xmlns="http://www.w3.org/2000/svg">
  <g transform="matrix(1 0 0 1 -210 -200 )">
    <path d="M 253 200  C 277.08 200  296 218.92  296 243  C 296 267.08  277.08 286  253 286  C 228.92 286  210 267.08  210 243  C 210 218.92  228.92 200  253 200  Z " fill-rule="nonzero" fill="#ffffff" stroke="none" />
    <path d="M 253 200.5  C 276.8 200.5  295.5 219.2  295.5 243  C 295.5 266.8  276.8 285.5  253 285.5  C 229.2 285.5  210.5 266.8  210.5 243  C 210.5 219.2  229.2 200.5  253 200.5  Z " stroke-width="1" stroke="#797979" fill="none" />
  </g>
</svg>