<?xml version="1.0" encoding="utf-8"?>
<svg version="1.1" xmlns:xlink="http://www.w3.org/1999/xlink" width="18px" height="18px" xmlns="http://www.w3.org/2000/svg">
  <g transform="matrix(1 0 0 1 -1304 -457 )">
    <path d="M 10.6583850931677 8.58517034068136  C 10.7826086956522 8.70541082164329  10.8447204968944 8.8436873747495  10.8447204968944 9  C 10.8447204968944 9.1563126252505  10.7826086956522 9.29458917835671  10.6583850931677 9.41482965931864  L 1.97515527950311 17.8196392785571  C 1.85093167701863 17.939879759519  1.70807453416149 18  1.54658385093168 18  C 1.38509316770186 18  1.24223602484472 17.939879759519  1.11801242236025 17.8196392785571  L 0.186335403726708 16.9178356713427  C 0.0621118012422361 16.7975951903808  0 16.6593186372745  0 16.503006012024  C 0 16.3466933867735  0.0621118012422361 16.2084168336673  0.186335403726708 16.0881763527054  L 7.50931677018634 9  L 0.186335403726708 1.91182364729459  C 0.0621118012422361 1.79158316633266  0 1.65330661322645  0 1.49699398797595  C 0 1.34068136272545  0.0621118012422361 1.20240480961924  0.186335403726708 1.08216432865731  L 1.11801242236025 0.180360721442886  C 1.24223602484472 0.0601202404809613  1.38509316770186 0  1.54658385093168 0  C 1.70807453416149 0  1.85093167701863 0.0601202404809613  1.97515527950311 0.180360721442886  L 10.6583850931677 8.58517034068136  Z M 17.8136645962733 8.58517034068136  C 17.9378881987578 8.70541082164329  18 8.8436873747495  18 9  C 18 9.1563126252505  17.9378881987578 9.29458917835671  17.8136645962733 9.41482965931864  L 9.1304347826087 17.8196392785571  C 9.00621118012423 17.939879759519  8.86335403726708 18  8.70186335403727 18  C 8.54037267080745 18  8.39751552795031 17.939879759519  8.27329192546584 17.8196392785571  L 7.3416149068323 16.9178356713427  C 7.21739130434783 16.7975951903808  7.15527950310559 16.6593186372745  7.15527950310559 16.503006012024  C 7.15527950310559 16.3466933867735  7.21739130434783 16.2084168336673  7.3416149068323 16.0881763527054  L 14.6645962732919 9  L 7.3416149068323 1.91182364729459  C 7.21739130434783 1.79158316633266  7.15527950310559 1.65330661322645  7.15527950310559 1.49699398797595  C 7.15527950310559 1.34068136272545  7.21739130434783 1.20240480961924  7.3416149068323 1.08216432865731  L 8.27329192546584 0.180360721442886  C 8.39751552795031 0.0601202404809613  8.54037267080745 0  8.70186335403727 0  C 8.86335403726708 0  9.00621118012423 0.0601202404809613  9.1304347826087 0.180360721442886  L 17.8136645962733 8.58517034068136  Z " fill-rule="nonzero" fill="#000000" stroke="none" transform="matrix(1 0 0 1 1304 457 )" />
  </g>
</svg>