<?xml version="1.0" encoding="utf-8"?>
<svg version="1.1" xmlns:xlink="http://www.w3.org/1999/xlink" width="65px" height="65px" xmlns="http://www.w3.org/2000/svg">
  <g transform="matrix(1 0 0 1 -268 -575 )">
    <path d="M 48.75 30.1725260416667  C 49.6527777777778 30.6803385416667  50.1041666666667 31.4561631944444  50.1041666666667 32.5  C 50.1041666666667 33.5438368055556  49.6527777777778 34.3196614583333  48.75 34.8274739583333  L 25.7291666666667 48.369140625  C 25.3059895833333 48.623046875  24.8546006944444 48.75  24.375 48.75  C 23.9236111111111 48.75  23.4722222222222 48.6371527777778  23.0208333333333 48.4114583333333  C 22.1180555555556 47.8754340277778  21.6666666666667 47.0855034722222  22 46.0416666666667  L 22 18.9583333333333  C 21.6666666666667 17.9144965277778  22.1180555555556 17.1245659722222  23.0208333333333 16.5885416666667  C 23.9518229166667 16.0807291666667  24.8546006944444 16.0948350694444  25.7291666666667 16.630859375  L 48.75 30.1725260416667  Z M 52.431640625 44.052734375  C 54.4911024305556 40.5262586805556  55.5208333333333 36.6753472222222  55.5208333333333 32.5  C 55.5208333333333 28.3246527777778  54.4911024305556 24.4737413194444  52.431640625 20.947265625  C 50.3721788194445 17.4207899305556  47.5792100694445 14.6278211805556  44.052734375 12.568359375  C 40.5262586805556 10.5088975694444  36.6753472222222 9.47916666666667  32.5 9.47916666666667  C 28.3246527777778 9.47916666666667  24.4737413194444 10.5088975694444  20.947265625 12.568359375  C 17.4207899305556 14.6278211805556  14.6278211805556 17.4207899305556  12.568359375 20.947265625  C 10.5088975694444 24.4737413194444  9.47916666666667 28.3246527777778  9.47916666666667 32.5  C 9.47916666666667 36.6753472222222  10.5088975694444 40.5262586805556  12.568359375 44.052734375  C 14.6278211805556 47.5792100694444  17.4207899305556 50.3721788194444  20.947265625 52.431640625  C 24.4737413194444 54.4911024305556  28.3246527777778 55.5208333333333  32.5 55.5208333333333  C 36.6753472222222 55.5208333333333  40.5262586805556 54.4911024305556  44.052734375 52.431640625  C 47.5792100694445 50.3721788194444  50.3721788194445 47.5792100694444  52.431640625 44.052734375  Z M 60.6412760416667 16.1865234375  C 63.5470920138889 21.1659071180556  65 26.6037326388889  65 32.5  C 65 38.3962673611111  63.5470920138889 43.8340928819444  60.6412760416667 48.8134765625  C 57.7354600694445 53.7928602430556  53.7928602430556 57.7354600694444  48.8134765625 60.6412760416667  C 43.8340928819445 63.5470920138889  38.3962673611111 65  32.5 65  C 26.6037326388889 65  21.1659071180556 63.5470920138889  16.1865234375 60.6412760416667  C 11.2071397569444 57.7354600694444  7.26453993055556 53.7928602430556  4.35872395833333 48.8134765625  C 1.45290798611111 43.8340928819444  0 38.3962673611111  0 32.5  C 0 26.6037326388889  1.45290798611111 21.1659071180556  4.35872395833333 16.1865234375  C 7.26453993055556 11.2071397569444  11.2071397569444 7.26453993055555  16.1865234375 4.35872395833333  C 21.1659071180556 1.45290798611111  26.6037326388889 0  32.5 0  C 38.3962673611111 0  43.8340928819445 1.45290798611111  48.8134765625 4.35872395833333  C 53.7928602430556 7.26453993055555  57.7354600694445 11.2071397569444  60.6412760416667 16.1865234375  Z " fill-rule="nonzero" fill="#aaaaaa" stroke="none" transform="matrix(1 0 0 1 268 575 )" />
  </g>
</svg>