<?xml version="1.0" encoding="utf-8"?>
<svg version="1.1" xmlns:xlink="http://www.w3.org/1999/xlink" width="42px" height="42px" xmlns="http://www.w3.org/2000/svg">
  <g transform="matrix(1 0 0 1 -694 -439 )">
    <path d="M 715 439  C 726.76 439  736 448.24  736 460  C 736 471.76  726.76 481  715 481  C 703.24 481  694 471.76  694 460  C 694 448.24  703.24 439  715 439  Z " fill-rule="nonzero" fill="#ffffff" stroke="none" />
    <path d="M 715 439.5  C 726.48 439.5  735.5 448.52  735.5 460  C 735.5 471.48  726.48 480.5  715 480.5  C 703.52 480.5  694.5 471.48  694.5 460  C 694.5 448.52  703.52 439.5  715 439.5  Z " stroke-width="1" stroke="#797979" fill="none" />
  </g>
</svg>