<?xml version="1.0" encoding="utf-8"?>
<svg version="1.1" xmlns:xlink="http://www.w3.org/1999/xlink" width="12px" height="12px" viewBox="436 403.5  12 12" xmlns="http://www.w3.org/2000/svg">
  <path d="M 442 403.5  C 445.36 403.5  448 406.14  448 409.5  C 448 412.86  445.36 415.5  442 415.5  C 438.64 415.5  436 412.86  436 409.5  C 436 406.14  438.64 403.5  442 403.5  Z " fill-rule="nonzero" fill="#ffffff" stroke="none" />
  <path d="M 442 404  C 445.08 404  447.5 406.42  447.5 409.5  C 447.5 412.58  445.08 415  442 415  C 438.92 415  436.5 412.58  436.5 409.5  C 436.5 406.42  438.92 404  442 404  Z " stroke-width="1" stroke="#797979" fill="none" />
  <path d="M 442 412.5  C 440.32 412.5  439 411.18  439 409.5  C 439 407.82  440.32 406.5  442 406.5  C 443.68 406.5  445 407.82  445 409.5  C 445 411.18  443.68 412.5  442 412.5  " fill-rule="nonzero" fill="#797979" stroke="none" />
</svg>