<?xml version="1.0" encoding="utf-8"?>
<svg version="1.1" xmlns:xlink="http://www.w3.org/1999/xlink" width="12px" height="12px" viewBox="515 403.5  12 12" xmlns="http://www.w3.org/2000/svg">
  <path d="M 521 403.5  C 524.36 403.5  527 406.14  527 409.5  C 527 412.86  524.36 415.5  521 415.5  C 517.64 415.5  515 412.86  515 409.5  C 515 406.14  517.64 403.5  521 403.5  Z " fill-rule="nonzero" fill="#ffffff" stroke="none" />
  <path d="M 521 404  C 524.08 404  526.5 406.42  526.5 409.5  C 526.5 412.58  524.08 415  521 415  C 517.92 415  515.5 412.58  515.5 409.5  C 515.5 406.42  517.92 404  521 404  Z " stroke-width="1" stroke="#797979" fill="none" />
  <path d="M 521 412.5  C 519.32 412.5  518 411.18  518 409.5  C 518 407.82  519.32 406.5  521 406.5  C 522.68 406.5  524 407.82  524 409.5  C 524 411.18  522.68 412.5  521 412.5  " fill-rule="nonzero" fill="#797979" stroke="none" />
</svg>