<?xml version="1.0" encoding="utf-8"?>
<svg version="1.1" xmlns:xlink="http://www.w3.org/1999/xlink" width="12px" height="12px" viewBox="515 425.5  12 12" xmlns="http://www.w3.org/2000/svg">
  <path d="M 521 425.5  C 524.36 425.5  527 428.14  527 431.5  C 527 434.86  524.36 437.5  521 437.5  C 517.64 437.5  515 434.86  515 431.5  C 515 428.14  517.64 425.5  521 425.5  Z " fill-rule="nonzero" fill="#ffffff" stroke="none" />
  <path d="M 521 426  C 524.08 426  526.5 428.42  526.5 431.5  C 526.5 434.58  524.08 437  521 437  C 517.92 437  515.5 434.58  515.5 431.5  C 515.5 428.42  517.92 426  521 426  Z " stroke-width="1" stroke="#797979" fill="none" />
  <path d="M 521 434.5  C 519.32 434.5  518 433.18  518 431.5  C 518 429.82  519.32 428.5  521 428.5  C 522.68 428.5  524 429.82  524 431.5  C 524 433.18  522.68 434.5  521 434.5  " fill-rule="nonzero" fill="#797979" stroke="none" />
</svg>