<?xml version="1.0" encoding="utf-8"?>
<svg version="1.1" xmlns:xlink="http://www.w3.org/1999/xlink" width="12px" height="12px" viewBox="602 225.5  12 12" xmlns="http://www.w3.org/2000/svg">
  <path d="M 608 225.5  C 611.36 225.5  614 228.14  614 231.5  C 614 234.86  611.36 237.5  608 237.5  C 604.64 237.5  602 234.86  602 231.5  C 602 228.14  604.64 225.5  608 225.5  Z " fill-rule="nonzero" fill="#ffffff" stroke="none" />
  <path d="M 608 226  C 611.08 226  613.5 228.42  613.5 231.5  C 613.5 234.58  611.08 237  608 237  C 604.92 237  602.5 234.58  602.5 231.5  C 602.5 228.42  604.92 226  608 226  Z " stroke-width="1" stroke="#797979" fill="none" />
  <path d="M 608 234.5  C 606.32 234.5  605 233.18  605 231.5  C 605 229.82  606.32 228.5  608 228.5  C 609.68 228.5  611 229.82  611 231.5  C 611 233.18  609.68 234.5  608 234.5  " fill-rule="nonzero" fill="#797979" stroke="none" />
</svg>