<?xml version="1.0" encoding="utf-8"?>
<svg version="1.1" xmlns:xlink="http://www.w3.org/1999/xlink" width="12px" height="12px" viewBox="428 251.5  12 12" xmlns="http://www.w3.org/2000/svg">
  <path d="M 434 251.5  C 437.36 251.5  440 254.14  440 257.5  C 440 260.86  437.36 263.5  434 263.5  C 430.64 263.5  428 260.86  428 257.5  C 428 254.14  430.64 251.5  434 251.5  Z " fill-rule="nonzero" fill="#ffffff" stroke="none" />
  <path d="M 434 252  C 437.08 252  439.5 254.42  439.5 257.5  C 439.5 260.58  437.08 263  434 263  C 430.92 263  428.5 260.58  428.5 257.5  C 428.5 254.42  430.92 252  434 252  Z " stroke-width="1" stroke="#797979" fill="none" />
  <path d="M 434 260.5  C 432.32 260.5  431 259.18  431 257.5  C 431 255.82  432.32 254.5  434 254.5  C 435.68 254.5  437 255.82  437 257.5  C 437 259.18  435.68 260.5  434 260.5  " fill-rule="nonzero" fill="#797979" stroke="none" />
</svg>