<?xml version="1.0" encoding="utf-8"?>
<svg version="1.1" xmlns:xlink="http://www.w3.org/1999/xlink" width="12px" height="12px" viewBox="687 225.5  12 12" xmlns="http://www.w3.org/2000/svg">
  <path d="M 693 225.5  C 696.36 225.5  699 228.14  699 231.5  C 699 234.86  696.36 237.5  693 237.5  C 689.64 237.5  687 234.86  687 231.5  C 687 228.14  689.64 225.5  693 225.5  Z " fill-rule="nonzero" fill="#ffffff" stroke="none" />
  <path d="M 693 226  C 696.08 226  698.5 228.42  698.5 231.5  C 698.5 234.58  696.08 237  693 237  C 689.92 237  687.5 234.58  687.5 231.5  C 687.5 228.42  689.92 226  693 226  Z " stroke-width="1" stroke="#797979" fill="none" />
  <path d="M 693 234.5  C 691.32 234.5  690 233.18  690 231.5  C 690 229.82  691.32 228.5  693 228.5  C 694.68 228.5  696 229.82  696 231.5  C 696 233.18  694.68 234.5  693 234.5  " fill-rule="nonzero" fill="#797979" stroke="none" />
</svg>