<?xml version="1.0" encoding="utf-8"?>
<svg version="1.1" xmlns:xlink="http://www.w3.org/1999/xlink" width="20px" height="16px" xmlns="http://www.w3.org/2000/svg">
  <g transform="matrix(1 0 0 1 -270 -388 )">
    <path d="M 6.72433035714283 7.76611295681062  C 7.00334821428572 7.50033222591361  7.14285714285717 7.17962347729787  7.14285714285717 6.8039867109635  C 7.14285714285717 6.42834994462896  7.00334821428572 6.10764119601328  6.72433035714283 5.84186046511627  C 6.4453125 5.57607973421932  6.10863095238096 5.44318936877079  5.71428571428572 5.44318936877079  C 5.31994047619048 5.44318936877079  4.98325892857144 5.57607973421932  4.70424107142856 5.84186046511627  C 4.42522321428572 6.10764119601328  4.28571428571428 6.42834994462896  4.28571428571428 6.8039867109635  C 4.28571428571428 7.17962347729787  4.42522321428572 7.50033222591361  4.70424107142856 7.76611295681062  C 4.98325892857144 8.03189368770768  5.31994047619048 8.16478405315615  5.71428571428572 8.16478405315615  C 6.10863095238096 8.16478405315615  6.4453125 8.03189368770768  6.72433035714283 7.76611295681062  Z M 11.0100446428572 7.76611295681062  C 11.2890625 7.50033222591361  11.4285714285714 7.17962347729787  11.4285714285714 6.8039867109635  C 11.4285714285714 6.42834994462896  11.2890625 6.10764119601328  11.0100446428572 5.84186046511627  C 10.7310267857143 5.57607973421932  10.3943452380952 5.44318936877079  10 5.44318936877079  C 9.60565476190476 5.44318936877079  9.26897321428572 5.57607973421932  8.98995535714283 5.84186046511627  C 8.7109375 6.10764119601328  8.57142857142856 6.42834994462896  8.57142857142856 6.8039867109635  C 8.57142857142856 7.17962347729787  8.7109375 7.50033222591361  8.98995535714283 7.76611295681062  C 9.26897321428572 8.03189368770768  9.60565476190476 8.16478405315615  10 8.16478405315615  C 10.3943452380952 8.16478405315615  10.7310267857143 8.03189368770768  11.0100446428572 7.76611295681062  Z M 15.2957589285714 7.76611295681062  C 15.5747767857143 7.50033222591361  15.7142857142857 7.17962347729787  15.7142857142857 6.8039867109635  C 15.7142857142857 6.42834994462896  15.5747767857143 6.10764119601328  15.2957589285714 5.84186046511627  C 15.0167410714286 5.57607973421932  14.6800595238095 5.44318936877079  14.2857142857143 5.44318936877079  C 13.891369047619 5.44318936877079  13.5546875 5.57607973421932  13.2756696428572 5.84186046511627  C 12.9966517857143 6.10764119601328  12.8571428571428 6.42834994462896  12.8571428571428 6.8039867109635  C 12.8571428571428 7.17962347729787  12.9966517857143 7.50033222591361  13.2756696428572 7.76611295681062  C 13.5546875 8.03189368770768  13.891369047619 8.16478405315615  14.2857142857143 8.16478405315615  C 14.6800595238095 8.16478405315615  15.0167410714286 8.03189368770768  15.2957589285714 7.76611295681062  Z M 18.6607142857143 3.38604651162791  C 19.5535714285714 4.43145071982281  20 5.57076411960134  20 6.8039867109635  C 20 8.03720930232561  19.5535714285714 9.17652270210408  18.6607142857143 10.221926910299  C 17.7678571428572 11.2673311184939  16.5550595238095 12.093023255814  15.0223214285714 12.6990033222591  C 13.4895833333333 13.3049833887043  11.8154761904762 13.6079734219269  10 13.6079734219269  C 9.18154761904759 13.6079734219269  8.39657738095241 13.5441860465116  7.64508928571428 13.4166112956811  C 6.35788690476187 14.6427464008859  4.73958333333331 15.4542635658915  2.79017857142856 15.8511627906977  C 2.4032738095238 15.9220376522702  2.08333333333331 15.9681063122923  1.83035714285717 15.9893687707641  C 1.74107142857144 15.9964562569214  1.6592261904762 15.9751937984497  1.58482142857144 15.9255813953488  C 1.51041666666669 15.875968992248  1.46205357142856 15.8121816168328  1.43973214285717 15.734219269103  C 1.40997023809524 15.6279069767442  1.484375 15.496788482835  1.66294642857144 15.3408637873754  C 1.7001488095238 15.3054263565892  1.78757440476187 15.2292358803986  1.92522321428572 15.112292358804  C 2.06287202380952 14.9953488372093  2.15773809523813 14.9120708748616  2.20982142857144 14.8624584717608  C 2.26190476190476 14.8128460686601  2.34933035714283 14.722480620155  2.47209821428572 14.5913621262459  C 2.59486607142856 14.4602436323366  2.68415178571428 14.3486157253599  2.73995535714283 14.2564784053156  C 2.79575892857144 14.1643410852713  2.8720238095238 14.0332225913621  2.96875 13.863122923588  C 3.0654761904762 13.693023255814  3.13988095238096 13.5229235880399  3.19196428571428 13.3528239202658  C 3.24404761904759 13.1827242524917  3.29799107142856 12.9789590254707  3.35379464285717 12.7415282392026  C 3.40959821428572 12.5040974529347  3.4561011904762 12.2471760797342  3.49330357142856 11.9707641196013  C 2.40699404761904 11.3328903654485  1.55319940476187 10.5656699889258  0.931919642857167 9.66910299003325  C 0.31063988095238 8.77253599114061  0 7.81749723145072  0 6.8039867109635  C 0 5.57076411960134  0.446428571428555 4.43145071982281  1.33928571428572 3.38604651162791  C 2.23214285714283 2.34064230343301  3.44494047619048 1.51495016611295  4.97767857142856 0.908970099667783  C 6.51041666666669 0.302990033222557  8.1845238095238 0  10 0  C 11.8154761904762 0  13.4895833333333 0.302990033222557  15.0223214285714 0.908970099667783  C 16.5550595238095 1.51495016611295  17.7678571428572 2.34064230343301  18.6607142857143 3.38604651162791  Z " fill-rule="nonzero" fill="#aaaaaa" stroke="none" transform="matrix(1 0 0 1 270 388 )" />
  </g>
</svg>