<?xml version="1.0" encoding="utf-8"?>
<svg version="1.1" xmlns:xlink="http://www.w3.org/1999/xlink" width="28px" height="28px" xmlns="http://www.w3.org/2000/svg">
  <g transform="matrix(1 0 0 1 -343 -16 )">
    <path d="M 357 16  C 364.84 16  371 22.16  371 30  C 371 37.84  364.84 44  357 44  C 349.16 44  343 37.84  343 30  C 343 22.16  349.16 16  357 16  Z " fill-rule="nonzero" fill="#ffffff" stroke="none" />
    <path d="M 357 16.5  C 364.56 16.5  370.5 22.44  370.5 30  C 370.5 37.56  364.56 43.5  357 43.5  C 349.44 43.5  343.5 37.56  343.5 30  C 343.5 22.44  349.44 16.5  357 16.5  Z " stroke-width="1" stroke="#797979" fill="none" />
  </g>
</svg>