<?xml version="1.0" encoding="utf-8"?>
<svg version="1.1" xmlns:xlink="http://www.w3.org/1999/xlink" width="22px" height="22px" xmlns="http://www.w3.org/2000/svg">
  <g transform="matrix(1 0 0 1 -288 -638 )">
    <path d="M 3.71749174917492 20.1412541254125  L 5.27128712871287 20.1412541254125  L 6.59273927392739 18.819801980198  L 3.18019801980198 15.4072607260726  L 1.85874587458746 16.7287128712871  L 1.85874587458746 18.2825082508251  L 3.71749174917492 18.2825082508251  L 3.71749174917492 20.1412541254125  Z M 12.7643564356436 6.91221122112211  C 12.8321232123212 6.84444444444445  12.8660066006601 6.76215621562156  12.8660066006601 6.66534653465347  C 12.8660066006601 6.45236523652365  12.7595159515952 6.34587458745875  12.5465346534653 6.34587458745875  C 12.4497249724973 6.34587458745875  12.3674367436744 6.37975797579758  12.2996699669967 6.44752475247525  L 4.42904290429043 14.3181518151815  C 4.36127612761276 14.3859185918592  4.32739273927393 14.4682068206821  4.32739273927393 14.5650165016502  C 4.32739273927393 14.77799779978  4.43388338833883 14.8844884488449  4.64686468646865 14.8844884488449  C 4.74367436743674 14.8844884488449  4.82596259625963 14.850605060506  4.89372937293729 14.7828382838284  L 12.7643564356436 6.91221122112211  Z M 0 15.9590759075908  L 12.0818481848185 3.87722772277228  L 18.1227722772277 9.91815181518152  L 6.04092409240924 22  L 0 22  L 0 15.9590759075908  Z M 21.4627062706271 3.94983498349835  C 21.820902090209 4.32739273927393  22 4.76787678767877  22 5.27128712871287  C 22 5.78437843784378  21.820902090209 6.22002200220022  21.4627062706271 6.57821782178218  L 19.0521452145215 8.98877887788779  L 13.0112211221122 2.94785478547855  L 15.4217821782178 0.551815181518151  C 15.770297029703 0.183938393839382  16.2059405940594 0  16.7287128712871 0  C 17.241804180418 0  17.6822882288229 0.183938393839382  18.0501650165017 0.551815181518151  L 21.4627062706271 3.94983498349835  Z " fill-rule="nonzero" fill="#000000" stroke="none" transform="matrix(1 0 0 1 288 638 )" />
  </g>
</svg>