<?xml version="1.0" encoding="utf-8"?>
<svg version="1.1" xmlns:xlink="http://www.w3.org/1999/xlink" width="138px" height="97px" xmlns="http://www.w3.org/2000/svg">
  <g transform="matrix(1 0 0 1 -21 -159 )">
    <path d="M 21 159  L 159 159  L 159 256  L 21 256  L 21 159  " fill-rule="nonzero" fill="#cccccc" stroke="none" />
    <path d="M 28 166  L 152 166  L 152 249  L 28 249  L 28 166  " fill-rule="nonzero" fill="#ffffff" stroke="none" />
    <path d="M 100.035 188.1  C 95.961 188.1  92.76 184.899  92.76 180.825  C 92.76 176.751  95.961 173.55  100.035 173.55  C 104.109 173.55  107.31 176.751  107.31 180.825  C 107.31 184.899  104.109 188.1  100.035 188.1  " fill-rule="nonzero" fill="#cccccc" stroke="none" />
    <path d="M 31 247  L 31 204.1  L 60.75 184.6  L 102.4 214.104347826087  L 126.2 196.3  L 150 214.104347826087  L 150 247  L 31 247  " fill-rule="nonzero" fill="#169bd5" stroke="none" />
  </g>
</svg>