<?xml version="1.0" encoding="utf-8"?>
<svg version="1.1" xmlns:xlink="http://www.w3.org/1999/xlink" width="53px" height="53px" xmlns="http://www.w3.org/2000/svg">
  <g transform="matrix(1 0 0 1 -176 -91 )">
    <path d="M 202.5 91  C 217.34 91  229 102.66  229 117.5  C 229 132.34  217.34 144  202.5 144  C 187.66 144  176 132.34  176 117.5  C 176 102.66  187.66 91  202.5 91  Z " fill-rule="nonzero" fill="#ffffff" stroke="none" />
    <path d="M 202.5 91.5  C 217.06 91.5  228.5 102.94  228.5 117.5  C 228.5 132.06  217.06 143.5  202.5 143.5  C 187.94 143.5  176.5 132.06  176.5 117.5  C 176.5 102.94  187.94 91.5  202.5 91.5  Z " stroke-width="1" stroke="#797979" fill="none" />
  </g>
</svg>