<?xml version="1.0" encoding="utf-8"?>
<svg version="1.1" xmlns:xlink="http://www.w3.org/1999/xlink" width="12px" height="12px" viewBox="475 347  12 12" xmlns="http://www.w3.org/2000/svg">
  <path d="M 481 347  C 484.36 347  487 349.64  487 353  C 487 356.36  484.36 359  481 359  C 477.64 359  475 356.36  475 353  C 475 349.64  477.64 347  481 347  Z " fill-rule="nonzero" fill="#ffffff" stroke="none" />
  <path d="M 481 347.5  C 484.08 347.5  486.5 349.92  486.5 353  C 486.5 356.08  484.08 358.5  481 358.5  C 477.92 358.5  475.5 356.08  475.5 353  C 475.5 349.92  477.92 347.5  481 347.5  Z " stroke-width="1" stroke="#797979" fill="none" />
  <path d="M 481 356  C 479.32 356  478 354.68  478 353  C 478 351.32  479.32 350  481 350  C 482.68 350  484 351.32  484 353  C 484 354.68  482.68 356  481 356  " fill-rule="nonzero" fill="#797979" stroke="none" />
</svg>