<?xml version="1.0" encoding="utf-8"?>
<svg version="1.1" xmlns:xlink="http://www.w3.org/1999/xlink" width="16px" height="20px" xmlns="http://www.w3.org/2000/svg">
  <g transform="matrix(1 0 0 1 -326 -302 )">
    <path d="M 12.0416666666667 0.758928571428572  L 15.2916666666667 4.24107142857143  C 15.4861111111111 4.44940476190476  15.6527777777778 4.73214285714286  15.7916666666667 5.08928571428571  C 15.9305555555556 5.44642857142857  16 5.77380952380952  16 6.07142857142857  L 16 18.9285714285714  C 16 19.2261904761905  15.9027777777778 19.4791666666667  15.7083333333333 19.6875  C 15.5138888888889 19.8958333333333  15.2777777777778 20  15 20  L 1 20  C 0.722222222222222 20  0.486111111111111 19.8958333333333  0.291666666666667 19.6875  C 0.0972222222222222 19.4791666666667  0 19.2261904761905  0 18.9285714285714  L 0 1.07142857142857  C 0 0.773809523809523  0.0972222222222222 0.520833333333333  0.291666666666667 0.3125  C 0.486111111111111 0.104166666666667  0.722222222222222 0  1 0  L 10.3333333333333 0  C 10.6111111111111 0  10.9166666666667 0.0744047619047628  11.25 0.223214285714286  C 11.5833333333333 0.372023809523809  11.8472222222222 0.550595238095237  12.0416666666667 0.758928571428572  Z M 11.09375 1.76339285714286  C 11.0104166666667 1.67410714285714  10.8680555555556 1.5922619047619  10.6666666666667 1.51785714285714  L 10.6666666666667 5.71428571428571  L 14.5833333333333 5.71428571428571  C 14.5138888888889 5.4985119047619  14.4375 5.34598214285714  14.3541666666667 5.25669642857143  L 11.09375 1.76339285714286  Z M 1.33333333333333 18.5714285714286  L 14.6666666666667 18.5714285714286  L 14.6666666666667 7.14285714285714  L 10.3333333333333 7.14285714285714  C 10.0555555555556 7.14285714285714  9.81944444444444 7.03869047619047  9.625 6.83035714285714  C 9.43055555555556 6.62202380952381  9.33333333333333 6.36904761904762  9.33333333333333 6.07142857142857  L 9.33333333333333 1.42857142857143  L 1.33333333333333 1.42857142857143  L 1.33333333333333 18.5714285714286  Z M 4 8.57142857142857  L 8 8.57142857142857  C 8.36111111111111 8.57142857142857  8.67361111111111 8.71279761904762  8.9375 8.99553571428571  C 9.20138888888889 9.27827380952381  9.33333333333333 9.61309523809524  9.33333333333333 10  L 9.33333333333333 14.2857142857143  C 9.33333333333333 14.672619047619  9.20138888888889 15.0074404761905  8.9375 15.2901785714286  C 8.67361111111111 15.5729166666667  8.36111111111111 15.7142857142857  8 15.7142857142857  L 4 15.7142857142857  C 3.63888888888889 15.7142857142857  3.32638888888889 15.5729166666667  3.0625 15.2901785714286  C 2.79861111111111 15.0074404761905  2.66666666666667 14.672619047619  2.66666666666667 14.2857142857143  L 2.66666666666667 10  C 2.66666666666667 9.61309523809524  2.79861111111111 9.27827380952381  3.0625 8.99553571428571  C 3.32638888888889 8.71279761904762  3.63888888888889 8.57142857142857  4 8.57142857142857  Z M 13 8.57142857142857  C 13.0277777777778 8.57142857142857  13.0694444444444 8.57886904761905  13.125 8.59375  C 13.2638888888889 8.65327380952381  13.3333333333333 8.76488095238095  13.3333333333333 8.92857142857143  L 13.3333333333333 15.3571428571429  C 13.3333333333333 15.5208333333333  13.2638888888889 15.6324404761905  13.125 15.6919642857143  C 13.0694444444444 15.7068452380952  13.0277777777778 15.7142857142857  13 15.7142857142857  C 12.9027777777778 15.7142857142857  12.8229166666667 15.6808035714286  12.7604166666667 15.6138392857143  L 10 12.6450892857143  L 10 11.640625  L 12.7604166666667 8.671875  C 12.8229166666667 8.60491071428571  12.9027777777778 8.57142857142857  13 8.57142857142857  Z " fill-rule="nonzero" fill="#000000" stroke="none" transform="matrix(1 0 0 1 326 302 )" />
  </g>
</svg>