<?xml version="1.0" encoding="utf-8"?>
<svg version="1.1" xmlns:xlink="http://www.w3.org/1999/xlink" width="39px" height="47px" xmlns="http://www.w3.org/2000/svg">
  <g transform="matrix(1 0 0 1 -868 -62 )">
    <path d="M 868 62  L 907 62  L 907 109  L 868 109  L 868 62  " fill-rule="nonzero" fill="#cccccc" stroke="none" />
    <path d="M 871 65  L 904 65  L 904 106  L 871 106  L 871 65  " fill-rule="nonzero" fill="#ffffff" stroke="none" />
    <path d="M 891.205 74.9  C 889.567 74.9  888.28 73.613  888.28 71.975  C 888.28 70.337  889.567 69.05  891.205 69.05  C 892.843 69.05  894.13 70.337  894.13 71.975  C 894.13 73.613  892.843 74.9  891.205 74.9  " fill-rule="nonzero" fill="#cccccc" stroke="none" />
    <path d="M 872 105  L 872 83.55  L 879.75 73.8  L 890.6 81.6  L 896.8 79.65  L 903 81.6  L 903 105  L 872 105  " fill-rule="nonzero" fill="#169bd5" stroke="none" />
  </g>
</svg>