<?xml version="1.0" encoding="utf-8"?>
<svg version="1.1" xmlns:xlink="http://www.w3.org/1999/xlink" width="39px" height="40px" xmlns="http://www.w3.org/2000/svg">
  <g transform="matrix(1 0 0 1 -593 -69 )">
    <path d="M 593 69  L 632 69  L 632 109  L 593 109  L 593 69  " fill-rule="nonzero" fill="#cccccc" stroke="none" />
    <path d="M 596 72  L 629 72  L 629 106  L 596 106  L 596 72  " fill-rule="nonzero" fill="#ffffff" stroke="none" />
    <path d="M 616.205 80.85  C 614.567 80.85  613.28 79.563  613.28 77.925  C 613.28 76.287  614.567 75  616.205 75  C 617.843 75  619.13 76.287  619.13 77.925  C 619.13 79.563  617.843 80.85  616.205 80.85  " fill-rule="nonzero" fill="#cccccc" stroke="none" />
    <path d="M 597 105  L 597 87.4  L 604.75 79.4  L 615.6 85.8  L 621.8 84.2  L 628 85.8  L 628 105  L 597 105  " fill-rule="nonzero" fill="#169bd5" stroke="none" />
  </g>
</svg>