<?xml version="1.0" encoding="utf-8"?>
<svg version="1.1" xmlns:xlink="http://www.w3.org/1999/xlink" width="23px" height="22px" xmlns="http://www.w3.org/2000/svg">
  <g transform="matrix(1 0 0 1 -708 -475 )">
    <path d="M 3.406875 18.068359375  C 3.58895833333328 17.8917100694444  3.68000000000004 17.6744791666667  3.68000000000004 17.4166666666667  C 3.68000000000004 17.1684027777777  3.58895833333328 16.9535590277777  3.406875 16.7721354166667  C 3.22479166666671 16.5907118055556  3.0091666666667 16.5  2.75999999999995 16.5  C 2.50125000000007 16.5  2.2832291666667 16.5907118055556  2.10593750000006 16.7721354166667  C 1.92864583333334 16.9535590277777  1.84000000000002 17.1684027777777  1.84000000000002 17.4166666666667  C 1.84000000000002 17.6744791666667  1.92864583333334 17.8917100694444  2.10593750000006 18.068359375  C 2.2832291666667 18.2450086805556  2.50125000000007 18.3333333333333  2.75999999999995 18.3333333333333  C 3.0091666666667 18.3333333333333  3.22479166666671 18.2450086805556  3.406875 18.068359375  Z M 5.70687499999998 9.43880208333331  C 5.88895833333334 9.62022569444444  5.97999999999994 9.83506944444444  5.97999999999994 10.0833333333333  L 5.97999999999994 19.25  C 5.97999999999994 19.4982638888889  5.88895833333334 19.7131076388889  5.70687499999998 19.89453125  C 5.5247916666667 20.0759548611111  5.30916666666668 20.1666666666667  5.06000000000001 20.1666666666667  L 0.920000000000009 20.1666666666667  C 0.670833333333339 20.1666666666667  0.4552083333334 20.0759548611111  0.273124999999963 19.89453125  C 0.09104166666668 19.7131076388889  0 19.4982638888889  0 19.25  L 0 10.0833333333333  C 0 9.83506944444444  0.09104166666668 9.62022569444444  0.273124999999963 9.43880208333331  C 0.4552083333334 9.25737847222226  0.670833333333339 9.16666666666669  0.920000000000009 9.16666666666669  L 5.06000000000001 9.16666666666669  C 5.30916666666668 9.16666666666669  5.5247916666667 9.25737847222226  5.70687499999998 9.43880208333331  Z M 22.180625 8.14973958333331  C 22.726875 8.69401041666669  23 9.33854166666669  23 10.0833333333333  C 23 10.9045138888889  22.7364583333334 11.6158854166667  22.209375 12.2174479166667  C 22.353125 12.6375868055556  22.425 13.0004340277777  22.425 13.3059895833333  C 22.45375 14.0316840277777  22.2477083333333 14.6857638888889  21.806875 15.2682291666667  C 21.9697916666667 15.8029513888889  21.9697916666667 16.3615451388889  21.806875 16.9440104166667  C 21.663125 17.48828125  21.404375 17.9370659722223  21.030625 18.2903645833333  C 21.116875 19.3598090277777  20.8820833333334 20.2239583333333  20.32625 20.8828125  C 19.7129166666667 21.6085069444444  18.7689583333333 21.9809027777777  17.494375 22  L 16.976875 22  L 15.884375 22  L 15.64 22  C 15.0075 22  14.3175 21.9259982638889  13.57 21.7779947916667  C 12.8225 21.6299913194444  12.2403125 21.4915364583333  11.8234375 21.3626302083333  C 11.4065625 21.2337239583333  10.8291666666667 21.0451388888889  10.09125 20.796875  C 8.91250000000005 20.3862847222223  8.15541666666667 20.1762152777777  7.81999999999996 20.1666666666667  C 7.57083333333337 20.1571180555556  7.35520833333335 20.0640190972223  7.17312500000007 19.8873697916667  C 6.99104166666663 19.7107204861111  6.89999999999995 19.4982638888889  6.89999999999995 19.25  L 6.89999999999995 10.0690104166667  C 6.89999999999995 9.83029513888887  6.98624999999999 9.62261284722226  7.15874999999999 9.44596354166669  C 7.33124999999998 9.26931423611113  7.53729166666671 9.17144097222226  7.77687499999994 9.15234375  C 8.00687499999997 9.13324652777774  8.37104166666669 8.8515625  8.86937499999995 8.30729166666669  C 9.36770833333337 7.76302083333331  9.85166666666671 7.18532986111113  10.32125 6.57421875  C 10.9729166666666 5.74348958333331  11.456875 5.17057291666669  11.773125 4.85546875  C 11.945625 4.68359375  12.0941666666667 4.45442708333331  12.21875 4.16796875  C 12.3433333333333 3.88151041666669  12.4271875 3.64995659722226  12.4703125 3.47330729166669  C 12.5134375 3.29665798611113  12.578125 3.0078125  12.664375 2.60677083333331  C 12.7314583333333 2.234375  12.7913541666667 1.94314236111113  12.8440625 1.73307291666669  C 12.8967708333333 1.52300347222226  12.9902083333333 1.27473958333331  13.124375 0.98828125  C 13.2585416666666 0.701822916666693  13.4214583333333 0.463107638888872  13.613125 0.272135416666693  C 13.7952083333333 0.0907118055555642  14.0108333333333 0  14.26 0  C 14.7008333333333 0  15.0961458333334 0.0501302083333073  15.4459375 0.150390625  C 15.7957291666666 0.250651041666693  16.0832291666667 0.374782986111128  16.3084375 0.522786458333307  C 16.5336458333334 0.670789930555564  16.7253124999999 0.864149305555564  16.8834375 1.10286458333331  C 17.0415625 1.34157986111113  17.1565625 1.55642361111113  17.2284375 1.74739583333331  C 17.3003124999999 1.93836805555556  17.3578125 2.17708333333331  17.4009375 2.46354166666669  C 17.4440624999999 2.75  17.4680208333334 2.96484375  17.4728125 3.10807291666669  C 17.4776041666667 3.25130208333331  17.4799999999999 3.4375  17.4799999999999 3.66666666666669  C 17.4799999999999 4.02951388888887  17.4344791666667 4.39236111111113  17.3434375 4.75520833333331  C 17.2523958333334 5.11805555555556  17.1613541666667 5.40451388888887  17.0703125 5.61458333333331  C 16.9792708333333 5.82465277777774  16.8475 6.09201388888887  16.675 6.41666666666669  C 16.64625 6.47395833333331  16.5983333333333 6.55989583333331  16.53125 6.67447916666669  C 16.4641666666667 6.7890625  16.4114583333334 6.89409722222226  16.373125 6.98958333333331  C 16.3347916666666 7.08506944444444  16.2964583333333 7.19965277777774  16.258125 7.33333333333331  L 20.24 7.33333333333331  C 20.9875 7.33333333333331  21.634375 7.60546875  22.180625 8.14973958333331  Z " fill-rule="nonzero" fill="#00bfbf" stroke="none" transform="matrix(1 0 0 1 708 475 )" />
  </g>
</svg>