<?xml version="1.0" encoding="utf-8"?>
<svg version="1.1" xmlns:xlink="http://www.w3.org/1999/xlink" width="60px" height="40px" xmlns="http://www.w3.org/2000/svg">
  <g transform="matrix(1 0 0 1 -11 -311 )">
    <path d="M 11 311  L 71 311  L 71 351  L 11 351  L 11 311  " fill-rule="nonzero" fill="#cccccc" stroke="none" />
    <path d="M 14 314  L 68 314  L 68 348  L 14 348  L 14 314  " fill-rule="nonzero" fill="#ffffff" stroke="none" />
    <path d="M 45.2 323  C 43.52 323  42.2 321.68  42.2 320  C 42.2 318.32  43.52 317  45.2 317  C 46.88 317  48.2 318.32  48.2 320  C 48.2 321.68  46.88 323  45.2 323  " fill-rule="nonzero" fill="#cccccc" stroke="none" />
    <path d="M 15 347  L 15 329.4  L 28 321.4  L 46.2 334.2  L 56.6 326.2  L 67 334.2  L 67 347  L 15 347  " fill-rule="nonzero" fill="#169bd5" stroke="none" />
  </g>
</svg>