<?xml version="1.0" encoding="utf-8"?>
<svg version="1.1" xmlns:xlink="http://www.w3.org/1999/xlink" width="12px" height="12px" viewBox="428 151.5  12 12" xmlns="http://www.w3.org/2000/svg">
  <path d="M 434 151.5  C 437.36 151.5  440 154.14  440 157.5  C 440 160.86  437.36 163.5  434 163.5  C 430.64 163.5  428 160.86  428 157.5  C 428 154.14  430.64 151.5  434 151.5  Z " fill-rule="nonzero" fill="#ffffff" stroke="none" />
  <path d="M 434 152  C 437.08 152  439.5 154.42  439.5 157.5  C 439.5 160.58  437.08 163  434 163  C 430.92 163  428.5 160.58  428.5 157.5  C 428.5 154.42  430.92 152  434 152  Z " stroke-width="1" stroke="#797979" fill="none" />
  <path d="M 434 160.5  C 432.32 160.5  431 159.18  431 157.5  C 431 155.82  432.32 154.5  434 154.5  C 435.68 154.5  437 155.82  437 157.5  C 437 159.18  435.68 160.5  434 160.5  " fill-rule="nonzero" fill="#797979" stroke="none" />
</svg>