<?xml version="1.0" encoding="utf-8"?>
<svg version="1.1" xmlns:xlink="http://www.w3.org/1999/xlink" width="18px" height="19px" xmlns="http://www.w3.org/2000/svg">
  <g transform="matrix(1 0 0 1 -547 -259 )">
    <path d="M 1.38461538461536 14.5892857142857  L 1.38461538461536 17.6428571428571  L 4.5 17.6428571428571  L 4.5 14.5892857142857  L 1.38461538461536 14.5892857142857  Z M 5.19230769230768 14.5892857142857  L 5.19230769230768 17.6428571428571  L 8.65384615384613 17.6428571428571  L 8.65384615384613 14.5892857142857  L 5.19230769230768 14.5892857142857  Z M 1.38461538461536 10.5178571428571  L 1.38461538461536 13.9107142857143  L 4.5 13.9107142857143  L 4.5 10.5178571428571  L 1.38461538461536 10.5178571428571  Z M 5.19230769230768 10.5178571428571  L 5.19230769230768 13.9107142857143  L 8.65384615384613 13.9107142857143  L 8.65384615384613 10.5178571428571  L 5.19230769230768 10.5178571428571  Z M 1.38461538461536 6.78571428571433  L 1.38461538461536 9.83928571428566  L 4.5 9.83928571428566  L 4.5 6.78571428571433  L 1.38461538461536 6.78571428571433  Z M 9.34615384615387 14.5892857142857  L 9.34615384615387 17.6428571428571  L 12.8076923076923 17.6428571428571  L 12.8076923076923 14.5892857142857  L 9.34615384615387 14.5892857142857  Z M 5.19230769230768 6.78571428571433  L 5.19230769230768 9.83928571428566  L 8.65384615384613 9.83928571428566  L 8.65384615384613 6.78571428571433  L 5.19230769230768 6.78571428571433  Z M 13.5 14.5892857142857  L 13.5 17.6428571428571  L 16.6153846153846 17.6428571428571  L 16.6153846153846 14.5892857142857  L 13.5 14.5892857142857  Z M 9.34615384615387 10.5178571428571  L 9.34615384615387 13.9107142857143  L 12.8076923076923 13.9107142857143  L 12.8076923076923 10.5178571428571  L 10.6764705882353 10.5178571428571  L 9.34615384615387 10.5178571428571  Z M 5.43569711538464 4.98856026785711  C 5.50420673076923 4.92140997023807  5.53846153846155 4.84188988095241  5.53846153846155 4.75  L 5.53846153846155 1.69642857142856  C 5.53846153846155 1.60453869047615  5.50420673076923 1.52501860119048  5.43569711538464 1.45786830357144  C 5.3671875 1.39071800595241  5.28605769230768 1.35714285714289  5.19230769230768 1.35714285714289  L 4.5 1.35714285714289  C 4.40625 1.35714285714289  4.32512019230768 1.39071800595241  4.25661057692309 1.45786830357144  C 4.18810096153845 1.52501860119048  4.15384615384613 1.60453869047615  4.15384615384613 1.69642857142856  L 4.15384615384613 4.75  C 4.15384615384613 4.84188988095241  4.18810096153845 4.92140997023807  4.25661057692309 4.98856026785711  C 4.32512019230768 5.05571056547615  4.40625 5.08928571428567  4.5 5.08928571428567  L 5.19230769230768 5.08928571428567  C 5.28605769230768 5.08928571428567  5.3671875 5.05571056547615  5.43569711538464 4.98856026785711  Z M 13.5 10.5178571428571  L 13.5 13.9107142857143  L 16.6153846153846 13.9107142857143  L 16.6153846153846 10.5178571428571  L 13.5 10.5178571428571  Z M 9.34615384615387 6.78571428571433  L 9.34615384615387 9.83928571428566  L 12.8076923076923 9.83928571428566  L 12.8076923076923 6.78571428571433  L 9.34615384615387 6.78571428571433  Z M 13.5 6.78571428571433  L 13.5 9.83928571428566  L 16.6153846153846 9.83928571428566  L 16.6153846153846 6.78571428571433  L 13.5 6.78571428571433  Z M 13.7433894230769 4.98856026785711  C 13.8118990384615 4.92140997023807  13.8461538461539 4.84188988095241  13.8461538461539 4.75  L 13.8461538461539 1.69642857142856  C 13.8461538461539 1.60453869047615  13.8118990384615 1.52501860119048  13.7433894230769 1.45786830357144  C 13.6748798076923 1.39071800595241  13.59375 1.35714285714289  13.5 1.35714285714289  L 12.8076923076923 1.35714285714289  C 12.7139423076923 1.35714285714289  12.6328125 1.39071800595241  12.5643028846154 1.45786830357144  C 12.4957932692308 1.52501860119048  12.4615384615385 1.60453869047615  12.4615384615385 1.69642857142856  L 12.4615384615385 4.75  C 12.4615384615385 4.84188988095241  12.4957932692308 4.92140997023807  12.5643028846154 4.98856026785711  C 12.6328125 5.05571056547615  12.7139423076923 5.08928571428567  12.8076923076923 5.08928571428567  L 13.5 5.08928571428567  C 13.59375 5.08928571428567  13.6748798076923 5.05571056547615  13.7433894230769 4.98856026785711  Z M 17.5889423076923 3.1171875  C 17.8629807692308 3.38578869047615  18 3.70386904761904  18 4.07142857142856  L 18 17.6428571428571  C 18 18.0104166666666  17.8629807692308 18.3284970238095  17.5889423076923 18.5970982142857  C 17.3149038461539 18.8656994047619  16.9903846153846 19  16.6153846153846 19  L 1.38461538461536 19  C 1.00961538461536 19  0.685096153846132 18.8656994047619  0.411057692307679 18.5970982142857  C 0.137019230769226 18.3284970238095  0 18.0104166666666  0 17.6428571428571  L 0 4.07142857142856  C 0 3.70386904761904  0.137019230769226 3.38578869047615  0.411057692307679 3.1171875  C 0.685096153846132 2.84858630952385  1.00961538461536 2.71428571428567  1.38461538461536 2.71428571428567  L 2.76923076923077 2.71428571428567  L 2.76923076923077 1.69642857142856  C 2.76923076923077 1.22991071428567  2.93870192307691 0.830543154761926  3.27764423076923 0.49832589285711  C 3.61658653846155 0.166108630952408  4.02403846153845 0  4.5 0  L 5.19230769230768 0  C 5.66826923076923 0  6.07572115384613 0.166108630952408  6.41466346153845 0.49832589285711  C 6.75360576923077 0.830543154761926  6.92307692307691 1.22991071428567  6.92307692307691 1.69642857142856  L 6.92307692307691 2.71428571428567  L 11.0769230769231 2.71428571428567  L 11.0769230769231 1.69642857142856  C 11.0769230769231 1.22991071428567  11.2463942307692 0.830543154761926  11.5853365384615 0.49832589285711  C 11.9242788461539 0.166108630952408  12.3317307692308 0  12.8076923076923 0  L 13.5 0  C 13.9759615384615 0  14.3834134615385 0.166108630952408  14.7223557692308 0.49832589285711  C 15.0612980769231 0.830543154761926  15.2307692307692 1.22991071428567  15.2307692307692 1.69642857142856  L 15.2307692307692 2.71428571428567  L 16.6153846153846 2.71428571428567  C 16.9903846153846 2.71428571428567  17.3149038461539 2.84858630952385  17.5889423076923 3.1171875  Z " fill-rule="nonzero" fill="#000000" stroke="none" transform="matrix(1 0 0 1 547 259 )" />
  </g>
</svg>