<?xml version="1.0" encoding="utf-8"?>
<svg version="1.1" xmlns:xlink="http://www.w3.org/1999/xlink" width="12px" height="12px" viewBox="507 354.5  12 12" xmlns="http://www.w3.org/2000/svg">
  <path d="M 513 354.5  C 516.36 354.5  519 357.14  519 360.5  C 519 363.86  516.36 366.5  513 366.5  C 509.64 366.5  507 363.86  507 360.5  C 507 357.14  509.64 354.5  513 354.5  Z " fill-rule="nonzero" fill="#ffffff" stroke="none" />
  <path d="M 513 355  C 516.08 355  518.5 357.42  518.5 360.5  C 518.5 363.58  516.08 366  513 366  C 509.92 366  507.5 363.58  507.5 360.5  C 507.5 357.42  509.92 355  513 355  Z " stroke-width="1" stroke="#797979" fill="none" />
  <path d="M 513 363.5  C 511.32 363.5  510 362.18  510 360.5  C 510 358.82  511.32 357.5  513 357.5  C 514.68 357.5  516 358.82  516 360.5  C 516 362.18  514.68 363.5  513 363.5  " fill-rule="nonzero" fill="#797979" stroke="none" />
</svg>