<?xml version="1.0" encoding="utf-8"?>
<svg version="1.1" xmlns:xlink="http://www.w3.org/1999/xlink" width="12px" height="12px" viewBox="428 354.5  12 12" xmlns="http://www.w3.org/2000/svg">
  <path d="M 434 354.5  C 437.36 354.5  440 357.14  440 360.5  C 440 363.86  437.36 366.5  434 366.5  C 430.64 366.5  428 363.86  428 360.5  C 428 357.14  430.64 354.5  434 354.5  Z " fill-rule="nonzero" fill="#ffffff" stroke="none" />
  <path d="M 434 355  C 437.08 355  439.5 357.42  439.5 360.5  C 439.5 363.58  437.08 366  434 366  C 430.92 366  428.5 363.58  428.5 360.5  C 428.5 357.42  430.92 355  434 355  Z " stroke-width="1" stroke="#797979" fill="none" />
  <path d="M 434 363.5  C 432.32 363.5  431 362.18  431 360.5  C 431 358.82  432.32 357.5  434 357.5  C 435.68 357.5  437 358.82  437 360.5  C 437 362.18  435.68 363.5  434 363.5  " fill-rule="nonzero" fill="#797979" stroke="none" />
</svg>