<?xml version="1.0" encoding="utf-8"?>
<svg version="1.1" xmlns:xlink="http://www.w3.org/1999/xlink" width="12px" height="12px" viewBox="428 405.5  12 12" xmlns="http://www.w3.org/2000/svg">
  <path d="M 434 405.5  C 437.36 405.5  440 408.14  440 411.5  C 440 414.86  437.36 417.5  434 417.5  C 430.64 417.5  428 414.86  428 411.5  C 428 408.14  430.64 405.5  434 405.5  Z " fill-rule="nonzero" fill="#ffffff" stroke="none" />
  <path d="M 434 406  C 437.08 406  439.5 408.42  439.5 411.5  C 439.5 414.58  437.08 417  434 417  C 430.92 417  428.5 414.58  428.5 411.5  C 428.5 408.42  430.92 406  434 406  Z " stroke-width="1" stroke="#797979" fill="none" />
  <path d="M 434 414.5  C 432.32 414.5  431 413.18  431 411.5  C 431 409.82  432.32 408.5  434 408.5  C 435.68 408.5  437 409.82  437 411.5  C 437 413.18  435.68 414.5  434 414.5  " fill-rule="nonzero" fill="#797979" stroke="none" />
</svg>