<?xml version="1.0" encoding="utf-8"?>
<svg version="1.1" xmlns:xlink="http://www.w3.org/1999/xlink" width="28px" height="34px" xmlns="http://www.w3.org/2000/svg">
  <g transform="matrix(1 0 0 1 -177 -404 )">
    <path d="M 7.77777777777778 10.8181818181818  L 7.77777777777778 16  L 20.2222222222222 16  L 20.2222222222222 10.8181818181818  C 20.2222222222222 9.11174242424242  19.6145833333333 7.65482954545454  18.3993055555556 6.44744318181818  C 17.1840277777778 5.24005681818182  15.7175925925926 4.63636363636364  14 4.63636363636364  C 12.2824074074074 4.63636363636364  10.8159722222222 5.24005681818182  9.60069444444444 6.44744318181818  C 8.38541666666667 7.65482954545454  7.77777777777778 9.11174242424242  7.77777777777778 10.8181818181818  Z M 27.3194444444444 16.1306818181818  C 27.7731481481482 16.5814393939394  28 17.1287878787879  28 17.7727272727273  L 28 31.6818181818182  C 28 32.3257575757576  27.7731481481482 32.8731060606061  27.3194444444444 33.3238636363636  C 26.8657407407407 33.7746212121212  26.3148148148148 34  25.6666666666667 34  L 2.33333333333333 34  C 1.68518518518519 34  1.13425925925926 33.7746212121212  0.680555555555556 33.3238636363636  C 0.226851851851852 32.8731060606061  0 32.3257575757576  0 31.6818181818182  L 0 17.7727272727273  C 0 17.1287878787879  0.226851851851852 16.5814393939394  0.680555555555556 16.1306818181818  C 1.13425925925926 15.6799242424242  1.68518518518519 15.4545454545455  2.33333333333333 15.4545454545455  L 3.11111111111111 15.4545454545455  L 3.11111111111111 10.8181818181818  C 3.11111111111111 7.8560606060606  4.18055555555556 5.3125  6.31944444444444 3.1875  C 8.45833333333333 1.0625  11.0185185185185 0  14 0  C 16.9814814814815 0  19.5416666666667 1.0625  21.6805555555556 3.1875  C 23.8194444444444 5.3125  24.8888888888889 7.8560606060606  24.8888888888889 10.8181818181818  L 24.8888888888889 15.4545454545455  L 25.6666666666667 15.4545454545455  C 26.3148148148148 15.4545454545455  26.8657407407407 15.6799242424242  27.3194444444444 16.1306818181818  Z " fill-rule="nonzero" fill="#aaaaaa" stroke="none" transform="matrix(1 0 0 1 177 404 )" />
  </g>
</svg>