<?xml version="1.0" encoding="utf-8"?>
<svg version="1.1" xmlns:xlink="http://www.w3.org/1999/xlink" width="32px" height="8px" xmlns="http://www.w3.org/2000/svg">
  <g transform="matrix(1 0 0 1 -178 -256 )">
    <path d="M 31.6793587174349 6.54295532646048  C 31.8931195724783 6.63459335624284  32 6.73997709049255  32 6.85910652920962  C 32 6.97823596792669  31.8931195724783 7.0836197021764  31.6793587174349 7.17525773195876  L 30.0761523046092 7.86254295532646  C 29.8623914495658 7.95418098510882  29.6165664662659 8  29.3386773547094 8  C 29.060788243153 8  28.814963259853 7.95418098510882  28.6012024048096 7.86254295532646  L 16 2.46048109965636  L 3.39879759519038 7.86254295532646  C 3.18503674014696 7.95418098510882  2.93921175684703 8  2.66132264529058 8  C 2.38343353373414 8  2.1376085504342 7.95418098510882  1.92384769539078 7.86254295532646  L 0.32064128256513 7.17525773195876  C 0.10688042752171 7.0836197021764  0 6.97823596792669  0 6.85910652920962  C 0 6.73997709049255  0.10688042752171 6.63459335624284  0.32064128256513 6.54295532646048  L 15.2625250501002 0.13745704467354  C 15.4762859051436 0.0458190148911788  15.7221108884436 0  16 0  C 16.2778891115564 0  16.5237140948564 0.0458190148911788  16.7374749498998 0.13745704467354  L 31.6793587174349 6.54295532646048  Z " fill-rule="nonzero" fill="#000000" stroke="none" transform="matrix(1 0 0 1 178 256 )" />
  </g>
</svg>