<?xml version="1.0" encoding="utf-8"?>
<svg version="1.1" xmlns:xlink="http://www.w3.org/1999/xlink" width="14px" height="12px" xmlns="http://www.w3.org/2000/svg">
  <g transform="matrix(1 0 0 1 -308 -242 )">
    <path d="M 6.30168269230769 1.0295358649789  C 6.4082532051282 1.13642756680731  6.46153846153846 1.26300984528833  6.46153846153846 1.40928270042194  L 6.46153846153846 10.5907172995781  C 6.46153846153846 10.7369901547117  6.4082532051282 10.8635724331927  6.30168269230769 10.9704641350211  C 6.19511217948718 11.0773558368495  6.06891025641026 11.1308016877637  5.92307692307692 11.1308016877637  C 5.77724358974359 11.1308016877637  5.65104166666667 11.0773558368495  5.54447115384615 10.9704641350211  L 2.74278846153846 8.16033755274261  L 0.538461538461539 8.16033755274261  C 0.392628205128205 8.16033755274261  0.266426282051282 8.10689170182841  0.159855769230769 8  C 0.0532852564102564 7.89310829817159  0 7.76652601969058  0 7.62025316455696  L 0 4.37974683544304  C 0 4.23347398030942  0.0532852564102564 4.10689170182841  0.159855769230769 4  C 0.266426282051282 3.89310829817159  0.392628205128205 3.83966244725738  0.538461538461539 3.83966244725738  L 2.74278846153846 3.83966244725738  L 5.54447115384615 1.0295358649789  C 5.65104166666667 0.922644163150492  5.77724358974359 0.869198312236287  5.92307692307692 0.869198312236287  C 6.06891025641026 0.869198312236287  6.19511217948718 0.922644163150492  6.30168269230769 1.0295358649789  Z M 9.33473557692308 4.80168776371308  C 9.57311698717949 5.17299578059072  9.69230769230769 5.57243319268636  9.69230769230769 6  C 9.69230769230769 6.42756680731364  9.57311698717949 6.82559774964838  9.33473557692308 7.19409282700422  C 9.09635416666667 7.56258790436005  8.78084935897436 7.82559774964838  8.38822115384615 7.9831223628692  C 8.33213141025641 8.0112517580872  8.26201923076923 8.0253164556962  8.17788461538462 8.0253164556962  C 8.03205128205128 8.0253164556962  7.90584935897436 7.9732770745429  7.79927884615385 7.86919831223629  C 7.69270833333333 7.76511954992967  7.63942307692308 7.63713080168776  7.63942307692308 7.48523206751055  C 7.63942307692308 7.36708860759494  7.67307692307692 7.26722925457103  7.74038461538462 7.18565400843882  C 7.80769230769231 7.10407876230661  7.88902243589744 7.0337552742616  7.984375 6.9746835443038  C 8.07972756410257 6.91561181434599  8.17508012820513 6.85091420534458  8.27043269230769 6.78059071729958  C 8.36578525641026 6.71026722925457  8.44711538461538 6.60900140646976  8.51442307692308 6.47679324894515  C 8.58173076923077 6.34458509142053  8.61538461538462 6.18565400843882  8.61538461538462 6  C 8.61538461538462 5.81434599156118  8.58173076923077 5.65541490857946  8.51442307692308 5.52320675105485  C 8.44711538461538 5.39099859353024  8.36578525641026 5.28973277074543  8.27043269230769 5.21940928270042  C 8.17508012820513 5.14908579465541  8.07972756410257 5.08438818565401  7.984375 5.0253164556962  C 7.88902243589744 4.9662447257384  7.80769230769231 4.89592123769339  7.74038461538462 4.81434599156118  C 7.67307692307692 4.73277074542897  7.63942307692308 4.63291139240506  7.63942307692308 4.51476793248945  C 7.63942307692308 4.36286919831224  7.69270833333333 4.23488045007032  7.79927884615385 4.13080168776371  C 7.90584935897436 4.0267229254571  8.03205128205128 3.9746835443038  8.17788461538462 3.9746835443038  C 8.26201923076923 3.9746835443038  8.33213141025641 3.9887482419128  8.38822115384615 4.0168776371308  C 8.78084935897436 4.16877637130802  9.09635416666667 4.43037974683544  9.33473557692308 4.80168776371308  Z M 11.1310096153846 3.61603375527426  C 11.6077724358974 4.34458509142053  11.8461538461538 5.13924050632911  11.8461538461538 6  C 11.8461538461538 6.86075949367089  11.6077724358974 7.65541490857946  11.1310096153846 8.38396624472574  C 10.6542467948718 9.11251758087201  10.0232371794872 9.64275668073136  9.23798076923077 9.9746835443038  C 9.1650641025641 10.0028129395218  9.09495192307692 10.0168776371308  9.02764423076923 10.0168776371308  C 8.87620192307692 10.0168776371308  8.74719551282051 9.9634317862166  8.640625 9.85654008438819  C 8.53405448717949 9.74964838255977  8.48076923076923 9.62306610407876  8.48076923076923 9.47679324894515  C 8.48076923076923 9.25738396624473  8.59014423076923 9.09142053445851  8.80889423076923 8.9789029535865  C 9.1229967948718 8.81575246132208  9.33613782051282 8.69198312236287  9.44831730769231 8.60759493670886  C 9.86338141025641 8.30379746835443  10.1872996794872 7.92264416315049  10.4200721153846 7.46413502109705  C 10.6528445512821 7.0056258790436  10.7692307692308 6.51758087201125  10.7692307692308 6  C 10.7692307692308 5.48241912798875  10.6528445512821 4.9943741209564  10.4200721153846 4.53586497890295  C 10.1872996794872 4.07735583684951  9.86338141025641 3.69620253164557  9.44831730769231 3.39240506329114  C 9.33613782051282 3.30801687763713  9.1229967948718 3.18424753867792  8.80889423076923 3.0210970464135  C 8.59014423076923 2.90857946554149  8.48076923076923 2.74261603375527  8.48076923076923 2.52320675105485  C 8.48076923076923 2.37693389592124  8.53405448717949 2.25035161744022  8.640625 2.14345991561181  C 8.74719551282051 2.0365682137834  8.87339743589744 1.9831223628692  9.01923076923077 1.9831223628692  C 9.09214743589744 1.9831223628692  9.1650641025641 1.9971870604782  9.23798076923077 2.0253164556962  C 10.0232371794872 2.35724331926864  10.6542467948718 2.88748241912799  11.1310096153846 3.61603375527426  Z M 12.9314903846154 2.43459915611814  C 13.6438301282051 3.51758087201125  14 4.70604781997187  14 6  C 14 7.29395218002813  13.6438301282051 8.48241912798875  12.9314903846154 9.56540084388186  C 12.2191506410256 10.648382559775  11.271233974359 11.4458509142053  10.0877403846154 11.957805907173  C 10.0148237179487 11.985935302391  9.94190705128205 12  9.86899038461538 12  C 9.72315705128205 12  9.59695512820513 11.9465541490858  9.49038461538462 11.8396624472574  C 9.3838141025641 11.732770745429  9.33052884615385 11.606188466948  9.33052884615385 11.4599156118143  C 9.33052884615385 11.2573839662447  9.43990384615385 11.0914205344585  9.65865384615385 10.9620253164557  C 9.69791666666667 10.9395218002813  9.76101762820513 10.9099859353024  9.84795673076923 10.873417721519  C 9.93489583333333 10.8368495077356  9.9979967948718 10.8073136427567  10.0372596153846 10.7848101265823  C 10.2952724358974 10.6441631504923  10.5252403846154 10.5007032348804  10.7271634615385 10.3544303797468  C 11.4170673076923 9.84247538677918  11.9555288461538 9.20393811533052  12.3425480769231 8.43881856540084  C 12.7295673076923 7.67369901547117  12.9230769230769 6.86075949367089  12.9230769230769 6  C 12.9230769230769 5.13924050632911  12.7295673076923 4.32630098452883  12.3425480769231 3.56118143459916  C 11.9555288461538 2.79606188466948  11.4170673076923 2.15752461322082  10.7271634615385 1.64556962025316  C 10.5252403846154 1.49929676511955  10.2952724358974 1.35583684950773  10.0372596153846 1.21518987341772  C 9.9979967948718 1.19268635724332  9.93489583333333 1.16315049226442  9.84795673076923 1.12658227848101  C 9.76101762820513 1.09001406469761  9.69791666666667 1.0604781997187  9.65865384615385 1.0379746835443  C 9.43990384615385 0.908579465541489  9.33052884615385 0.742616033755274  9.33052884615385 0.540084388185655  C 9.33052884615385 0.393811533052038  9.3838141025641 0.267229254571026  9.49038461538462 0.160337552742616  C 9.59695512820513 0.0534458509142048  9.72315705128205 0  9.86899038461538 0  C 9.94190705128205 0  10.0148237179487 0.0140646976090006  10.0877403846154 0.0421940928270046  C 11.271233974359 0.554149085794654  12.2191506410256 1.35161744022503  12.9314903846154 2.43459915611814  Z " fill-rule="nonzero" fill="#ffffff" stroke="none" transform="matrix(1 0 0 1 308 242 )" />
  </g>
</svg>