<?xml version="1.0" encoding="utf-8"?>
<svg version="1.1" xmlns:xlink="http://www.w3.org/1999/xlink" width="9px" height="9px" xmlns="http://www.w3.org/2000/svg">
  <g transform="matrix(1 0 0 1 -54 -455 )">
    <path d="M 58.5 455  C 61.02 455  63 456.98  63 459.5  C 63 462.02  61.02 464  58.5 464  C 55.98 464  54 462.02  54 459.5  C 54 456.98  55.98 455  58.5 455  Z " fill-rule="nonzero" fill="#ffffff" stroke="none" />
    <path d="M 58.5 455.5  C 60.74 455.5  62.5 457.26  62.5 459.5  C 62.5 461.74  60.74 463.5  58.5 463.5  C 56.26 463.5  54.5 461.74  54.5 459.5  C 54.5 457.26  56.26 455.5  58.5 455.5  Z " stroke-width="1" stroke="#797979" fill="none" />
  </g>
</svg>