<?xml version="1.0" encoding="utf-8"?>
<svg version="1.1" xmlns:xlink="http://www.w3.org/1999/xlink" width="17px" height="16px" xmlns="http://www.w3.org/2000/svg">
  <g transform="matrix(1 0 0 1 -303 -689 )">
    <path d="M 2.518125 13.140625  C 2.65270833333329 13.0121527777778  2.72000000000003 12.8541666666667  2.72000000000003 12.6666666666667  C 2.72000000000003 12.4861111111111  2.65270833333329 12.3298611111111  2.518125 12.1979166666667  C 2.3835416666667 12.0659722222222  2.22416666666669 12  2.03999999999996 12  C 1.84875000000005 12  1.68760416666669 12.0659722222222  1.55656250000004 12.1979166666667  C 1.42552083333334 12.3298611111111  1.36000000000001 12.4861111111111  1.36000000000001 12.6666666666667  C 1.36000000000001 12.8541666666667  1.42552083333334 13.0121527777778  1.55656250000004 13.140625  C 1.68760416666669 13.2690972222222  1.84875000000005 13.3333333333333  2.03999999999996 13.3333333333333  C 2.22416666666669 13.3333333333333  2.3835416666667 13.2690972222222  2.518125 13.140625  Z M 4.21812499999999 6.86458333333331  C 4.35270833333334 6.99652777777777  4.41999999999996 7.15277777777777  4.41999999999996 7.33333333333331  L 4.41999999999996 14  C 4.41999999999996 14.1805555555555  4.35270833333334 14.3368055555555  4.21812499999999 14.46875  C 4.08354166666669 14.6006944444445  3.92416666666668 14.6666666666667  3.74000000000001 14.6666666666667  L 0.680000000000007 14.6666666666667  C 0.495833333333337 14.6666666666667  0.336458333333383 14.6006944444445  0.201874999999973 14.46875  C 0.0672916666666765 14.3368055555555  0 14.1805555555555  0 14  L 0 7.33333333333331  C 0 7.15277777777777  0.0672916666666765 6.99652777777777  0.201874999999973 6.86458333333331  C 0.336458333333383 6.73263888888891  0.495833333333337 6.66666666666669  0.680000000000007 6.66666666666669  L 3.74000000000001 6.66666666666669  C 3.92416666666668 6.66666666666669  4.08354166666669 6.73263888888891  4.21812499999999 6.86458333333331  Z M 16.394375 5.92708333333331  C 16.798125 6.32291666666669  17 6.79166666666669  17 7.33333333333331  C 17 7.93055555555554  16.8052083333334 8.44791666666669  16.415625 8.88541666666669  C 16.521875 9.19097222222223  16.575 9.45486111111109  16.575 9.67708333333331  C 16.59625 10.2048611111111  16.4439583333333 10.6805555555555  16.118125 11.1041666666667  C 16.2385416666667 11.4930555555555  16.2385416666667 11.8993055555555  16.118125 12.3229166666667  C 16.011875 12.71875  15.820625 13.0451388888889  15.544375 13.3020833333333  C 15.608125 14.0798611111111  15.4345833333334 14.7083333333333  15.02375 15.1875  C 14.5704166666667 15.7152777777778  13.8727083333333 15.9861111111111  12.930625 16  L 12.548125 16  L 11.740625 16  L 11.56 16  C 11.0925 16  10.5825 15.9461805555555  10.03 15.8385416666667  C 9.47749999999996 15.7309027777778  9.04718750000001 15.6302083333333  8.73906249999999 15.5364583333333  C 8.43093750000003 15.4427083333333  8.00416666666666 15.3055555555555  7.45875000000001 15.125  C 6.58750000000003 14.8263888888889  6.02791666666667 14.6736111111111  5.77999999999997 14.6666666666667  C 5.59583333333336 14.6597222222222  5.43645833333335 14.5920138888889  5.30187500000005 14.4635416666667  C 5.16729166666664 14.3350694444445  5.09999999999997 14.1805555555555  5.09999999999997 14  L 5.09999999999997 7.32291666666669  C 5.09999999999997 7.14930555555554  5.16374999999999 6.99826388888891  5.29124999999999 6.86979166666669  C 5.41874999999999 6.74131944444446  5.5710416666667 6.67013888888891  5.74812499999996 6.65625  C 5.91812499999998 6.64236111111109  6.18729166666668 6.4375  6.55562499999996 6.04166666666669  C 6.92395833333336 5.64583333333331  7.28166666666669 5.22569444444446  7.62875000000003 4.78125  C 8.11041666666665 4.17708333333331  8.46812499999999 3.76041666666669  8.70187499999997 3.53125  C 8.82937500000003 3.40625  8.93916666666667 3.23958333333331  9.03125 3.03125  C 9.12333333333333 2.82291666666669  9.18531250000001 2.65451388888891  9.21718749999997 2.52604166666669  C 9.24906250000004 2.39756944444446  9.296875 2.1875  9.36062500000003 1.89583333333331  C 9.41020833333334 1.625  9.45447916666666 1.41319444444446  9.49343750000003 1.26041666666669  C 9.53239583333334 1.10763888888891  9.60145833333331 0.927083333333314  9.700625 0.71875  C 9.79979166666664 0.510416666666686  9.92020833333333 0.336805555555543  10.061875 0.197916666666686  C 10.1964583333333 0.0659722222222285  10.3558333333333 0  10.54 0  C 10.8658333333333 0  11.1580208333334 0.0364583333333144  11.4165625 0.109375  C 11.6751041666666 0.182291666666686  11.8876041666667 0.272569444444457  12.0540625 0.380208333333314  C 12.2205208333334 0.487847222222229  12.3621874999999 0.628472222222229  12.4790625 0.802083333333314  C 12.5959375 0.975694444444457  12.6809375 1.13194444444446  12.7340625 1.27083333333331  C 12.7871875 1.40972222222223  12.8296875 1.58333333333331  12.8615625 1.79166666666669  C 12.8934374999999 2  12.9111458333334 2.15625  12.9146875 2.26041666666669  C 12.9182291666667 2.36458333333331  12.92 2.5  12.92 2.66666666666669  C 12.92 2.93055555555554  12.8863541666667 3.19444444444446  12.8190625 3.45833333333331  C 12.7517708333334 3.72222222222223  12.6844791666667 3.93055555555554  12.6171875 4.08333333333331  C 12.5498958333333 4.23611111111109  12.4525 4.43055555555554  12.325 4.66666666666669  C 12.30375 4.70833333333331  12.2683333333333 4.77083333333331  12.21875 4.85416666666669  C 12.1691666666667 4.9375  12.1302083333334 5.01388888888891  12.101875 5.08333333333331  C 12.0735416666666 5.15277777777777  12.0452083333333 5.23611111111109  12.016875 5.33333333333331  L 14.96 5.33333333333331  C 15.5125 5.33333333333331  15.990625 5.53125  16.394375 5.92708333333331  Z " fill-rule="nonzero" fill="#aaaaaa" stroke="none" transform="matrix(1 0 0 1 303 689 )" />
  </g>
</svg>