<?xml version="1.0" encoding="utf-8"?>
<svg version="1.1" xmlns:xlink="http://www.w3.org/1999/xlink" width="384px" height="97px" xmlns="http://www.w3.org/2000/svg">
  <g transform="matrix(1 0 0 1 0 -63 )">
    <path d="M 0 63  L 384 63  L 384 160  L 0 160  L 0 63  " fill-rule="nonzero" fill="#cccccc" stroke="none" />
    <path d="M 7 70  L 377 70  L 377 153  L 7 153  L 7 70  " fill-rule="nonzero" fill="#ffffff" stroke="none" />
    <path d="M 206.955 92.1  C 202.881 92.1  199.68 88.899  199.68 84.825  C 199.68 80.751  202.881 77.55  206.955 77.55  C 211.029 77.55  214.23 80.751  214.23 84.825  C 214.23 88.899  211.029 92.1  206.955 92.1  " fill-rule="nonzero" fill="#cccccc" stroke="none" />
    <path d="M 10 151  L 10 108.1  L 101.25 88.6  L 229 139.178125  L 302 100.3  L 375 139.178125  L 375 151  L 10 151  " fill-rule="nonzero" fill="#169bd5" stroke="none" />
  </g>
</svg>