<?xml version="1.0" encoding="utf-8"?>
<svg version="1.1" xmlns:xlink="http://www.w3.org/1999/xlink" width="34px" height="24px" xmlns="http://www.w3.org/2000/svg">
  <g transform="matrix(1 0 0 1 -13 -422 )">
    <path d="M 13 422  L 47 422  L 47 446  L 13 446  L 13 422  " fill-rule="nonzero" fill="#cccccc" stroke="none" />
    <path d="M 15 424  L 45 424  L 45 444  L 15 444  L 15 424  " fill-rule="nonzero" fill="#ffffff" stroke="none" />
    <path d="M 32.48 429.2  C 31.472 429.2  30.68 428.408  30.68 427.4  C 30.68 426.392  31.472 425.6  32.48 425.6  C 33.488 425.6  34.28 426.392  34.28 427.4  C 34.28 428.408  33.488 429.2  32.48 429.2  " fill-rule="nonzero" fill="#cccccc" stroke="none" />
    <path d="M 16 444  L 16 433.55  L 23.25 428.8  L 33.4 435.952941176471  L 39.2 431.65  L 45 435.952941176471  L 45 444  L 16 444  " fill-rule="nonzero" fill="#169bd5" stroke="none" />
  </g>
</svg>