<?xml version="1.0" encoding="utf-8"?>
<svg version="1.1" xmlns:xlink="http://www.w3.org/1999/xlink" width="21px" height="23px" xmlns="http://www.w3.org/2000/svg">
  <g transform="matrix(1 0 0 1 -68 -609 )">
    <path d="M 68 609  L 89 609  L 89 632  L 68 632  L 68 609  " fill-rule="nonzero" fill="#cccccc" stroke="none" />
    <path d="M 69 610  L 88 610  L 88 631  L 69 631  L 69 610  " fill-rule="nonzero" fill="#ffffff" stroke="none" />
    <path d="M 80.495 615.6  C 79.613 615.6  78.92 614.907  78.92 614.025  C 78.92 613.143  79.613 612.45  80.495 612.45  C 81.377 612.45  82.07 613.143  82.07 614.025  C 82.07 614.907  81.377 615.6  80.495 615.6  " fill-rule="nonzero" fill="#cccccc" stroke="none" />
    <path d="M 70 631  L 70 620  L 74.5 615  L 80.8 619  L 84.4 618  L 88 619  L 88 631  L 70 631  " fill-rule="nonzero" fill="#169bd5" stroke="none" />
  </g>
</svg>