<?xml version="1.0" encoding="utf-8"?>
<svg version="1.1" xmlns:xlink="http://www.w3.org/1999/xlink" width="19px" height="19px" xmlns="http://www.w3.org/2000/svg">
  <g transform="matrix(1 0 0 1 -333 -712 )">
    <path d="M 13.9778645833333 11.1142578125  C 14.0768229166667 11.3080512152778  14.0933159722222 11.5080295138889  14.02734375 11.7141927083333  C 13.7222222222222 12.7120225694444  13.1532118055556 13.5160590277778  12.3203125 14.1263020833333  C 11.4874131944444 14.7365451388889  10.5473090277778 15.0416666666667  9.5 15.0416666666667  C 8.45269097222222 15.0416666666667  7.51258680555556 14.7365451388889  6.6796875 14.1263020833333  C 5.84678819444444 13.5160590277778  5.27777777777778 12.7120225694444  4.97265625 11.7141927083333  C 4.90668402777778 11.5080295138889  4.92317708333333 11.3080512152778  5.02213541666667 11.1142578125  C 5.12109375 10.9204644097222  5.27777777777778 10.7905815972222  5.4921875 10.724609375  C 5.69835069444444 10.6586371527778  5.89832899305556 10.6751302083333  6.09212239583333 10.7740885416667  C 6.28591579861111 10.873046875  6.41579861111111 11.0297309027778  6.48177083333333 11.244140625  C 6.68793402777778 11.9038628472222  7.0693359375 12.4378255208333  7.6259765625 12.8460286458333  C 8.1826171875 13.2542317708333  8.80729166666667 13.4583333333333  9.5 13.4583333333333  C 10.1927083333333 13.4583333333333  10.8173828125 13.2542317708333  11.3740234375 12.8460286458333  C 11.9306640625 12.4378255208333  12.3120659722222 11.9038628472222  12.5182291666667 11.244140625  C 12.5842013888889 11.0297309027778  12.7161458333333 10.873046875  12.9140625 10.7740885416667  C 13.1119791666667 10.6751302083333  13.3140190972222 10.6586371527778  13.5201822916667 10.724609375  C 13.7263454861111 10.7905815972222  13.87890625 10.9204644097222  13.9778645833333 11.1142578125  Z M 7.45279947916667 5.2138671875  C 7.76204427083333 5.52311197916667  7.91666666666667 5.89626736111111  7.91666666666667 6.33333333333333  C 7.91666666666667 6.77039930555555  7.76204427083333 7.1435546875  7.45279947916667 7.45279947916667  C 7.1435546875 7.76204427083333  6.77039930555556 7.91666666666667  6.33333333333333 7.91666666666667  C 5.89626736111111 7.91666666666667  5.52311197916667 7.76204427083333  5.2138671875 7.45279947916667  C 4.90462239583333 7.1435546875  4.75 6.77039930555555  4.75 6.33333333333333  C 4.75 5.89626736111111  4.90462239583333 5.52311197916667  5.2138671875 5.2138671875  C 5.52311197916667 4.90462239583333  5.89626736111111 4.75  6.33333333333333 4.75  C 6.77039930555556 4.75  7.1435546875 4.90462239583333  7.45279947916667 5.2138671875  Z M 13.7861328125 5.2138671875  C 14.0953776041667 5.52311197916667  14.25 5.89626736111111  14.25 6.33333333333333  C 14.25 6.77039930555555  14.0953776041667 7.1435546875  13.7861328125 7.45279947916667  C 13.4768880208333 7.76204427083333  13.1037326388889 7.91666666666667  12.6666666666667 7.91666666666667  C 12.2296006944444 7.91666666666667  11.8564453125 7.76204427083333  11.5472005208333 7.45279947916667  C 11.2379557291667 7.1435546875  11.0833333333333 6.77039930555555  11.0833333333333 6.33333333333333  C 11.0833333333333 5.89626736111111  11.2379557291667 5.52311197916667  11.5472005208333 5.2138671875  C 11.8564453125 4.90462239583333  12.2296006944444 4.75  12.6666666666667 4.75  C 13.1037326388889 4.75  13.4768880208333 4.90462239583333  13.7861328125 5.2138671875  Z M 16.7858072916667 12.5738932291667  C 17.2063802083333 11.5966796875  17.4166666666667 10.5720486111111  17.4166666666667 9.5  C 17.4166666666667 8.42795138888889  17.2063802083333 7.4033203125  16.7858072916667 6.42610677083333  C 16.365234375 5.44889322916667  15.8024088541667 4.60774739583333  15.0973307291667 3.90266927083333  C 14.3922526041667 3.19759114583333  13.5511067708333 2.634765625  12.5738932291667 2.21419270833333  C 11.5966796875 1.79361979166667  10.5720486111111 1.58333333333333  9.5 1.58333333333333  C 8.42795138888889 1.58333333333333  7.4033203125 1.79361979166667  6.42610677083333 2.21419270833333  C 5.44889322916667 2.634765625  4.60774739583333 3.19759114583333  3.90266927083333 3.90266927083333  C 3.19759114583333 4.60774739583333  2.634765625 5.44889322916667  2.21419270833333 6.42610677083333  C 1.79361979166667 7.4033203125  1.58333333333333 8.42795138888889  1.58333333333333 9.5  C 1.58333333333333 10.5720486111111  1.79361979166667 11.5966796875  2.21419270833333 12.5738932291667  C 2.634765625 13.5511067708333  3.19759114583333 14.3922526041667  3.90266927083333 15.0973307291667  C 4.60774739583333 15.8024088541667  5.44889322916667 16.365234375  6.42610677083333 16.7858072916667  C 7.4033203125 17.2063802083333  8.42795138888889 17.4166666666667  9.5 17.4166666666667  C 10.5720486111111 17.4166666666667  11.5966796875 17.2063802083333  12.5738932291667 16.7858072916667  C 13.5511067708333 16.365234375  14.3922526041667 15.8024088541667  15.0973307291667 15.0973307291667  C 15.8024088541667 14.3922526041667  16.365234375 13.5511067708333  16.7858072916667 12.5738932291667  Z M 17.7259114583333 4.7314453125  C 18.5753038194444 6.18695746527778  19 7.77647569444444  19 9.5  C 19 11.2235243055556  18.5753038194444 12.8130425347222  17.7259114583333 14.2685546875  C 16.8765190972222 15.7240668402778  15.7240668402778 16.8765190972222  14.2685546875 17.7259114583333  C 12.8130425347222 18.5753038194444  11.2235243055556 19  9.5 19  C 7.77647569444444 19  6.18695746527778 18.5753038194444  4.7314453125 17.7259114583333  C 3.27593315972222 16.8765190972222  2.12348090277778 15.7240668402778  1.27408854166667 14.2685546875  C 0.424696180555555 12.8130425347222  0 11.2235243055556  0 9.5  C 0 7.77647569444444  0.424696180555555 6.18695746527778  1.27408854166667 4.7314453125  C 2.12348090277778 3.27593315972222  3.27593315972222 2.12348090277778  4.7314453125 1.27408854166667  C 6.18695746527778 0.424696180555554  7.77647569444444 0  9.5 0  C 11.2235243055556 0  12.8130425347222 0.424696180555554  14.2685546875 1.27408854166667  C 15.7240668402778 2.12348090277778  16.8765190972222 3.27593315972222  17.7259114583333 4.7314453125  Z " fill-rule="nonzero" fill="#aaaaaa" stroke="none" transform="matrix(1 0 0 1 333 712 )" />
  </g>
</svg>