<?xml version="1.0" encoding="utf-8"?>
<svg version="1.1" xmlns:xlink="http://www.w3.org/1999/xlink" width="76px" height="63px" xmlns="http://www.w3.org/2000/svg">
  <g transform="matrix(1 0 0 1 -142 -124 )">
    <path d="M 72.9399038461538 20.8955965909091  C 74.979967948718 25.0717329545455  76 29.4119318181818  76 33.9161931818182  C 76 38.8678977272727  75.0865384615385 43.5511363636364  73.2596153846154 47.9659090909091  L 72.3461538461538 50.1583806818182  L 63.8966346153846 51.6349431818182  C 63.2267628205128 54.1107954545455  61.8489583333333 56.1466619318182  59.7632211538462 57.7425426136364  C 57.677483974359 59.3384232954545  55.2948717948718 60.1363636363636  52.6153846153846 60.1363636363636  L 52.6153846153846 61.5681818181818  C 52.6153846153846 61.9857954545455  52.4783653846154 62.3288352272727  52.2043269230769 62.5973011363636  C 51.9302884615385 62.8657670454545  51.5801282051282 63  51.1538461538462 63  L 48.2307692307692 63  C 47.8044871794872 63  47.4543269230769 62.8657670454545  47.1802884615385 62.5973011363636  C 46.90625 62.3288352272727  46.7692307692308 61.9857954545455  46 61.5681818181818  L 46 35.7954545454545  C 46.7692307692308 35.3778409090909  46.90625 35.0348011363636  47.1802884615385 34.7663352272727  C 47.4543269230769 34.4978693181818  47.8044871794872 34.3636363636364  48.2307692307692 34.3636363636364  L 51.1538461538462 34.3636363636364  C 51.5801282051282 34.3636363636364  51.9302884615385 34.4978693181818  52.2043269230769 34.7663352272727  C 52.4783653846154 35.0348011363636  52.6153846153846 35.3778409090909  52.6153846153846 35.7954545454545  L 52.6153846153846 37.2272727272727  C 54.7772435897436 37.2272727272727  56.7564102564103 37.7567471590909  58.5528846153846 38.8156960227273  C 60.349358974359 39.8746448863636  61.7652243589744 41.2990056818182  62.8004807692308 43.0887784090909  L 65.90625 42.5518465909091  C 66.7892628205128 39.7180397727273  67.2307692307692 36.8394886363636  67.2307692307692 33.9161931818182  C 67.2307692307692 29.5014204545455  65.8910256410256 25.3401988636364  63.2115384615385 21.4325284090909  C 60.5320512820513 17.5248579545455  56.9314903846154 14.4076704545455  52.4098557692308 12.0809659090909  C 47.8882211538462 9.75426136363636  43.0849358974359 8.59090909090909  38 8.59090909090909  C 32.9150641025641 8.59090909090909  28.1117788461538 9.75426136363636  23.5901442307692 12.0809659090909  C 19.0685096153846 14.4076704545455  15.4679487179487 17.5248579545455  12.7884615384615 21.4325284090909  C 10.1089743589744 25.3401988636364  8.76923076923077 29.5014204545455  8.76923076923077 33.9161931818182  C 8.76923076923077 36.8394886363636  9.21073717948718 39.7180397727273  10.09375 42.5518465909091  L 13.1995192307692 43.0887784090909  C 14.2347756410256 41.2990056818182  15.650641025641 39.8746448863636  17.4471153846154 38.8156960227273  C 19.2435897435897 37.7567471590909  21.2227564102564 37.2272727272727  23.3846153846154 37.2272727272727  L 23.3846153846154 35.7954545454545  C 23.3846153846154 35.3778409090909  23.5216346153846 35.0348011363636  23.7956730769231 34.7663352272727  C 24.0697115384615 34.4978693181818  24.4198717948718 34.3636363636364  24.8461538461538 34.3636363636364  L 27.7692307692308 34.3636363636364  C 28.1955128205128 34.3636363636364  28.5456730769231 34.4978693181818  28.8197115384615 34.7663352272727  C 29.09375 35.0348011363636  29.2307692307692 35.3778409090909  30 35.7954545454545  L 30 61.5681818181818  C 29.2307692307692 61.9857954545455  29.09375 62.3288352272727  28.8197115384615 62.5973011363636  C 28.5456730769231 62.8657670454545  28.1955128205128 63  27.7692307692308 63  L 24.8461538461538 63  C 24.4198717948718 63  24.0697115384615 62.8657670454545  23.7956730769231 62.5973011363636  C 23.5216346153846 62.3288352272727  23.3846153846154 61.9857954545455  23.3846153846154 61.5681818181818  L 23.3846153846154 60.1363636363636  C 20.7051282051282 60.1363636363636  18.322516025641 59.3384232954545  16.2367788461538 57.7425426136364  C 14.1510416666667 56.1466619318182  12.7732371794872 54.1107954545455  12.1033653846154 51.6349431818182  L 3.65384615384615 50.1583806818182  L 2.74038461538462 47.9659090909091  C 0.913461538461539 43.5511363636364  0 38.8678977272727  0 33.9161931818182  C 0 29.4119318181818  1.02003205128205 25.0717329545455  3.06009615384615 20.8955965909091  C 5.10016025641026 16.7194602272727  7.82532051282051 13.1026278409091  11.2355769230769 10.0450994318182  C 14.6458333333333 6.98757102272727  18.6955128205128 4.54900568181818  23.3846153846154 2.72940340909091  C 28.0737179487179 0.909801136363634  32.9455128205128 0  38 0  C 43.0544871794872 0  47.9262820512821 0.909801136363634  52.6153846153846 2.72940340909091  C 57.3044871794872 4.54900568181818  61.3541666666667 6.98757102272727  64.7644230769231 10.0450994318182  C 68.1746794871795 13.1026278409091  70.8998397435898 16.7194602272727  72.9399038461538 20.8955965909091  Z " fill-rule="nonzero" fill="#000000" stroke="none" transform="matrix(1 0 0 1 142 124 )" />
  </g>
</svg>