<?xml version="1.0" encoding="utf-8"?>
<svg version="1.1" xmlns:xlink="http://www.w3.org/1999/xlink" width="23px" height="21px" xmlns="http://www.w3.org/2000/svg">
  <g transform="matrix(1 0 0 1 -1328 -288 )">
    <path d="M 22.4537869062901 9.81521739130435  C 22.8179289687634 10.1861413043478  23 10.6188858695652  23 11.1134510869565  C 23 11.5985054347826  22.8179289687634 12.0264945652174  22.4537869062901 12.3974184782609  L 21.3465982028241 13.4673913043478  C 20.9726144629867 13.8288043478261  20.5248181429183 14.0095108695652  20.0032092426187 14.0095108695652  C 19.4717586649551 14.0095108695652  19.0288831835687 13.8288043478261  18.6745827984596 13.4673913043478  L 14 9.28736413043478  L 14 19.3308423913043  C 14.3344030808729 19.8254076086957  14.1498716302952 20.2272418478261  13.7808087291399 20.5363451086957  C 13.4117458279846 20.8454483695652  12.9664099272572 21  12.4448010269576 21  L 10.5551989730424 21  C 10.0335900727428 21  9.5882541720154 20.8454483695652  9.21919127086008 20.5363451086957  C 8.85012836970475 20.2272418478261  8.66559691912709 19.8254076086957  9 19.3308423913043  L 9 9.28736413043478  L 4.32541720154044 13.4673913043478  C 3.97111681643132 13.8288043478261  3.52824133504493 14.0095108695652  2.99679075738126 14.0095108695652  C 2.46534017971759 14.0095108695652  2.02246469833119 13.8288043478261  1.66816431322208 13.4673913043478  L 0.560975609756098 12.3974184782609  C 0.186991869918699 12.0360054347826  0 11.6080163043478  0 11.1134510869565  C 0 10.609375  0.186991869918699 10.1766304347826  0.560975609756098 9.81521739130435  L 10.1713735558408 0.527853260869566  C 10.5158322635858 0.175951086956521  10.9587077449722 0  11.5 0  C 12.0314505776637 0  12.4792468977321 0.175951086956521  12.8433889602054 0.527853260869566  L 22.4537869062901 9.81521739130435  Z " fill-rule="nonzero" fill="#2ab804" stroke="none" transform="matrix(1 0 0 1 1328 288 )" />
  </g>
</svg>