<?xml version="1.0" encoding="utf-8"?>
<svg version="1.1" xmlns:xlink="http://www.w3.org/1999/xlink" width="22px" height="21px" xmlns="http://www.w3.org/2000/svg">
  <g transform="matrix(1 0 0 1 -1365 -288 )">
    <path d="M 21.4775353016688 8.68037761294673  C 21.8258451005563 9.04855023600809  22 9.47808496291301  22 9.9689817936615  C 22 10.4693189480782  21.8258451005563 10.894133513149  21.4775353016688 11.2434254888739  L 12.2849807445443 20.4760620364127  C 11.9178433889602 20.8253540121376  11.4895164741121 21  11 21  C 10.5010697475396 21  10.0774497218656 20.8253540121376  9.72913992297818 20.4760620364127  L 0.536585365853659 11.2434254888739  C 0.178861788617886 10.9035738368173  0 10.4787592717465  0 9.9689817936615  C 0 9.46864463924477  0.178861788617886 9.03910991233985  0.536585365853659 8.68037761294673  L 1.58151476251605 7.61834120026972  C 1.94865211810013 7.26904922454484  2.37697903294822 7.0944032366824  2.86649550706033 7.0944032366824  C 3.36542575952075 7.0944032366824  3.78904578519469 7.26904922454484  4.13735558408216 7.61834120026972  L 8.28883183568678 11.7815239379636  L 8.28883183568678 1.81254214430209  C 8.28883183568678 1.32164531355361  8.46769362430467 0.896830748482803  8.82541720154044 0.538098449089684  C 9.18314077877621 0.179366149696558  9.60676080445015 0  10.0962772785623 0  L 11.9037227214377 0  C 12.3932391955499 0  12.8168592212238 0.179366149696558  13.1745827984596 0.538098449089684  C 13.5323063756953 0.896830748482803  13.7111681643132 1.32164531355361  13.7111681643132 1.81254214430209  L 13.7111681643132 11.7815239379636  L 17.8626444159178 7.61834120026972  C 18.2109542148053 7.26904922454484  18.6345742404793 7.0944032366824  19.1335044929397 7.0944032366824  C 19.6230209670518 7.0944032366824  20.0513478818999 7.26904922454484  20.418485237484 7.61834120026972  L 21.4775353016688 8.68037761294673  Z " fill-rule="nonzero" fill="#f59a23" stroke="none" transform="matrix(1 0 0 1 1365 288 )" />
  </g>
</svg>