<?xml version="1.0" encoding="utf-8"?>
<svg version="1.1" xmlns:xlink="http://www.w3.org/1999/xlink" width="20px" height="20px" xmlns="http://www.w3.org/2000/svg">
  <g transform="matrix(1 0 0 1 -957 -690 )">
    <path d="M 9.00240384615385 1.71589310829817  C 9.15464743589743 1.89404594467885  9.23076923076923 2.10501640881388  9.23076923076923 2.34880450070323  L 9.23076923076923 17.6511954992968  C 9.23076923076923 17.8949835911861  9.15464743589743 18.1059540553211  9.00240384615385 18.2841068917018  C 8.85016025641026 18.4622597280825  8.6698717948718 18.5513361462729  8.46153846153846 18.5513361462729  C 8.25320512820513 18.5513361462729  8.07291666666667 18.4622597280825  7.92067307692308 18.2841068917018  L 3.91826923076923 13.6005625879044  L 0.769230769230769 13.6005625879044  C 0.560897435897436 13.6005625879044  0.380608974358974 13.511486169714  0.228365384615385 13.3333333333333  C 0.0761217948717949 13.1551804969526  0 12.9442100328176  0 12.7004219409283  L 0 7.29957805907173  C 0 7.05578996718237  0.0761217948717949 6.84481950304735  0.228365384615385 6.66666666666667  C 0.380608974358974 6.48851383028598  0.560897435897436 6.39943741209564  0.769230769230769 6.39943741209564  L 3.91826923076923 6.39943741209564  L 7.92067307692308 1.71589310829817  C 8.07291666666667 1.53774027191749  8.25320512820513 1.44866385372715  8.46153846153846 1.44866385372715  C 8.6698717948718 1.44866385372715  8.85016025641026 1.53774027191749  9.00240384615385 1.71589310829817  Z M 13.3353365384615 8.0028129395218  C 13.6758814102564 8.62165963431786  13.8461538461538 9.28738865447726  13.8461538461538 10  C 13.8461538461538 10.7126113455227  13.6758814102564 11.375996249414  13.3353365384615 11.9901547116737  C 12.9947916666667 12.6043131739334  12.5440705128205 13.0426629160806  11.9831730769231 13.3052039381153  C 11.9030448717949 13.3520862634787  11.8028846153846 13.3755274261603  11.6826923076923 13.3755274261603  C 11.474358974359 13.3755274261603  11.2940705128205 13.2887951242382  11.1418269230769 13.1153305203938  C 10.9895833333333 12.9418659165495  10.9134615384615 12.7285513361463  10.9134615384615 12.4753867791842  C 10.9134615384615 12.2784810126582  10.9615384615385 12.1120487576184  11.0576923076923 11.9760900140647  C 11.1538461538462 11.840131270511  11.2700320512821 11.7229254571027  11.40625 11.6244725738397  C 11.542467948718 11.5260196905767  11.6786858974359 11.418190342241  11.8149038461538 11.3009845288326  C 11.9511217948718 11.1837787154243  12.0673076923077 11.0150023441163  12.1634615384615 10.7946554149086  C 12.2596153846154 10.5743084857009  12.3076923076923 10.309423347398  12.3076923076923 10  C 12.3076923076923 9.69057665260197  12.2596153846154 9.42569151429911  12.1634615384615 9.20534458509142  C 12.0673076923077 8.98499765588373  11.9511217948718 8.81622128457571  11.8149038461538 8.69901547116737  C 11.6786858974359 8.58180965775903  11.542467948718 8.47398030942335  11.40625 8.37552742616034  C 11.2700320512821 8.27707454289733  11.1538461538462 8.15986872948898  11.0576923076923 8.0239099859353  C 10.9615384615385 7.88795124238162  10.9134615384615 7.72151898734177  10.9134615384615 7.52461322081575  C 10.9134615384615 7.27144866385373  10.9895833333333 7.05813408345054  11.1418269230769 6.88466947960619  C 11.2940705128205 6.71120487576184  11.474358974359 6.62447257383966  11.6826923076923 6.62447257383966  C 11.8028846153846 6.62447257383966  11.9030448717949 6.64791373652133  11.9831730769231 6.69479606188467  C 12.5440705128205 6.9479606188467  12.9947916666667 7.38396624472574  13.3353365384615 8.0028129395218  Z M 15.9014423076923 6.0267229254571  C 16.5825320512821 7.24097515236756  16.9230769230769 8.56540084388186  16.9230769230769 10  C 16.9230769230769 11.4345991561181  16.5825320512821 12.7590248476324  15.9014423076923 13.9732770745429  C 15.2203525641026 15.1875293014534  14.3189102564103 16.0712611345523  13.1971153846154 16.6244725738397  C 13.0929487179487 16.671354899203  12.9927884615385 16.6947960618847  12.8966346153846 16.6947960618847  C 12.6802884615385 16.6947960618847  12.4959935897436 16.6057196436943  12.34375 16.4275668073136  C 12.1915064102564 16.249413970933  12.1153846153846 16.0384435067979  12.1153846153846 15.7946554149086  C 12.1153846153846 15.4289732770745  12.2716346153846 15.1523675574308  12.5841346153846 14.9648382559775  C 13.0328525641026 14.6929207688701  13.3373397435897 14.4866385372714  13.4975961538462 14.3459915611814  C 14.0905448717949 13.8396624472574  14.5532852564103 13.2044069385842  14.8858173076923 12.4402250351617  C 15.2183493589744 11.6760431317393  15.3846153846154 10.8626347866854  15.3846153846154 10  C 15.3846153846154 9.13736521331458  15.2183493589744 8.32395686826066  14.8858173076923 7.55977496483825  C 14.5532852564103 6.79559306141585  14.0905448717949 6.16033755274262  13.4975961538462 5.65400843881856  C 13.3373397435897 5.51336146272855  13.0328525641026 5.30707923112986  12.5841346153846 5.0351617440225  C 12.2716346153846 4.84763244256915  12.1153846153846 4.57102672292546  12.1153846153846 4.20534458509142  C 12.1153846153846 3.96155649320206  12.1915064102564 3.75058602906704  12.34375 3.57243319268636  C 12.4959935897436 3.39428035630567  12.6762820512821 3.30520393811533  12.8846153846154 3.30520393811533  C 12.9887820512821 3.30520393811533  13.0929487179487 3.328645100797  13.1971153846154 3.37552742616034  C 14.3189102564103 3.92873886544773  15.2203525641026 4.81247069854664  15.9014423076923 6.0267229254571  Z M 18.4735576923077 4.05766526019691  C 19.4911858974359 5.86263478668542  20 7.84341303328645  20 10  C 20 12.1565869667135  19.4911858974359 14.1373652133146  18.4735576923077 15.9423347398031  C 17.4559294871795 17.7473042662916  16.1017628205128 19.0764181903422  14.4110576923077 19.929676511955  C 14.306891025641 19.9765588373183  14.2027243589744 20  14.0985576923077 20  C 13.8902243589744 20  13.7099358974359 19.9109235818097  13.5576923076923 19.732770745429  C 13.4054487179487 19.5546179090483  13.3293269230769 19.3436474449133  13.3293269230769 19.0998593530239  C 13.3293269230769 18.7623066104079  13.4855769230769 18.4857008907642  13.7980769230769 18.2700421940928  C 13.8541666666667 18.2325363338022  13.9443108974359 18.1833098921707  14.0685096153846 18.1223628691983  C 14.1927083333333 18.061415846226  14.2828525641026 18.0121894045945  14.3389423076923 17.9746835443038  C 14.7075320512821 17.7402719174871  15.0360576923077 17.5011720581341  15.3245192307692 17.2573839662447  C 16.3100961538462 16.404125644632  17.0793269230769 15.3398968588842  17.6322115384615 14.0646976090014  C 18.1850961538462 12.7894983591186  18.4615384615385 11.4345991561181  18.4615384615385 10  C 18.4615384615385 8.56540084388186  18.1850961538462 7.21050164088139  17.6322115384615 5.93530239099859  C 17.0793269230769 4.6601031411158  16.3100961538462 3.59587435536803  15.3245192307692 2.74261603375527  C 15.0360576923077 2.49882794186592  14.7075320512821 2.25972808251289  14.3389423076923 2.0253164556962  C 14.2828525641026 1.98781059540553  14.1927083333333 1.93858415377403  14.0685096153846 1.87763713080169  C 13.9443108974359 1.81669010782935  13.8541666666667 1.76746366619784  13.7980769230769 1.72995780590717  C 13.4855769230769 1.51429910923581  13.3293269230769 1.23769338959212  13.3293269230769 0.900140646976091  C 13.3293269230769 0.65635255508673  13.4054487179487 0.445382090951709  13.5576923076923 0.267229254571026  C 13.7099358974359 0.0890764181903414  13.8902243589744 0  14.0985576923077 0  C 14.2027243589744 0  14.306891025641 0.0234411626816677  14.4110576923077 0.0703234880450077  C 16.1017628205128 0.923581809657756  17.4559294871795 2.25269573370839  18.4735576923077 4.05766526019691  Z " fill-rule="nonzero" fill="#ffffff" stroke="none" transform="matrix(1 0 0 1 957 690 )" />
  </g>
</svg>