<?xml version="1.0" encoding="utf-8"?>
<svg version="1.1" xmlns:xlink="http://www.w3.org/1999/xlink" width="15px" height="15px" xmlns="http://www.w3.org/2000/svg">
  <g transform="matrix(1 0 0 1 -234 -713 )">
    <path d="M 241.5 713  C 245.7 713  249 716.3  249 720.5  C 249 724.7  245.7 728  241.5 728  C 237.3 728  234 724.7  234 720.5  C 234 716.3  237.3 713  241.5 713  Z " fill-rule="nonzero" fill="#ffffff" stroke="none" />
    <path d="M 241.5 713.5  C 245.42 713.5  248.5 716.58  248.5 720.5  C 248.5 724.42  245.42 727.5  241.5 727.5  C 237.58 727.5  234.5 724.42  234.5 720.5  C 234.5 716.58  237.58 713.5  241.5 713.5  Z " stroke-width="1" stroke="#797979" fill="none" />
  </g>
</svg>