<?xml version="1.0" encoding="utf-8"?>
<svg version="1.1" xmlns:xlink="http://www.w3.org/1999/xlink" width="42px" height="19px" xmlns="http://www.w3.org/2000/svg">
  <defs>
    <mask fill="white" id="clip1">
      <path d="M 0 19  L 0 0  L 16.7103825136621 0  L 42 0  L 42 19  L 16.7103825136621 19  L 0 19  Z " fill-rule="evenodd" />
    </mask>
  </defs>
  <g transform="matrix(1 0 0 1 -1174 -308 )">
    <path d="M 0 19  L 0 0  L 16.7103825136621 0  L 42 0  L 42 19  L 16.7103825136621 19  L 0 19  Z " fill-rule="nonzero" fill="#ffffff" stroke="none" fill-opacity="0" transform="matrix(1 0 0 1 1174 308 )" />
    <path d="M 0 19  L 0 0  L 16.7103825136621 0  L 42 0  L 42 19  L 16.7103825136621 19  L 0 19  Z " stroke-width="2" stroke="#00bfbf" fill="none" transform="matrix(1 0 0 1 1174 308 )" mask="url(#clip1)" />
  </g>
</svg>