<?xml version="1.0" encoding="utf-8"?>
<svg version="1.1" xmlns:xlink="http://www.w3.org/1999/xlink" width="35px" height="35px" xmlns="http://www.w3.org/2000/svg">
  <g transform="matrix(1 0 0 1 -939 -757 )">
    <path d="M 25.7486979166667 20.4736328125  C 25.9309895833333 20.8306206597222  25.9613715277778 21.1990017361111  25.83984375 21.5787760416667  C 25.2777777777778 23.4168836805556  24.2296006944445 24.8980034722222  22.6953125 26.0221354166667  C 21.1610243055556 27.1462673611111  19.4292534722222 27.7083333333333  17.5 27.7083333333333  C 15.5707465277778 27.7083333333333  13.8389756944444 27.1462673611111  12.3046875 26.0221354166667  C 10.7703993055556 24.8980034722222  9.72222222222222 23.4168836805556  9.16015625 21.5787760416667  C 9.03862847222222 21.1990017361111  9.06901041666667 20.8306206597222  9.25130208333333 20.4736328125  C 9.43359375 20.1166449652778  9.72222222222222 19.8773871527778  10.1171875 19.755859375  C 10.4969618055556 19.6343315972222  10.8653428819444 19.6647135416667  11.2223307291667 19.8470052083333  C 11.5793185763889 20.029296875  11.8185763888889 20.3179253472222  11.9401041666667 20.712890625  C 12.3198784722222 21.9281684027778  13.0224609375 22.9117838541667  14.0478515625 23.6637369791667  C 15.0732421875 24.4156901041667  16.2239583333333 24.7916666666667  17.5 24.7916666666667  C 18.7760416666667 24.7916666666667  19.9267578125 24.4156901041667  20.9521484375 23.6637369791667  C 21.9775390625 22.9117838541667  22.6801215277778 21.9281684027778  23.0598958333333 20.712890625  C 23.1814236111111 20.3179253472222  23.4244791666667 20.029296875  23.7890625 19.8470052083333  C 24.1536458333333 19.6647135416667  24.5258246527778 19.6343315972222  24.9055989583333 19.755859375  C 25.2853732638889 19.8773871527778  25.56640625 20.1166449652778  25.7486979166667 20.4736328125  Z M 13.7288411458333 9.6044921875  C 14.2985026041667 10.1741536458333  14.5833333333333 10.8615451388889  14.5833333333333 11.6666666666667  C 14.5833333333333 12.4717881944444  14.2985026041667 13.1591796875  13.7288411458333 13.7288411458333  C 13.1591796875 14.2985026041667  12.4717881944444 14.5833333333333  11.6666666666667 14.5833333333333  C 10.8615451388889 14.5833333333333  10.1741536458333 14.2985026041667  9.6044921875 13.7288411458333  C 9.03483072916667 13.1591796875  8.75 12.4717881944444  8.75 11.6666666666667  C 8.75 10.8615451388889  9.03483072916667 10.1741536458333  9.6044921875 9.6044921875  C 10.1741536458333 9.03483072916667  10.8615451388889 8.75  11.6666666666667 8.75  C 12.4717881944444 8.75  13.1591796875 9.03483072916667  13.7288411458333 9.6044921875  Z M 25.3955078125 9.6044921875  C 25.9651692708333 10.1741536458333  26.25 10.8615451388889  26.25 11.6666666666667  C 26.25 12.4717881944444  25.9651692708333 13.1591796875  25.3955078125 13.7288411458333  C 24.8258463541667 14.2985026041667  24.1384548611111 14.5833333333333  23.3333333333333 14.5833333333333  C 22.5282118055556 14.5833333333333  21.8408203125 14.2985026041667  21.2711588541667 13.7288411458333  C 20.7014973958333 13.1591796875  20.4166666666667 12.4717881944444  20.4166666666667 11.6666666666667  C 20.4166666666667 10.8615451388889  20.7014973958333 10.1741536458333  21.2711588541667 9.6044921875  C 21.8408203125 9.03483072916667  22.5282118055556 8.75  23.3333333333333 8.75  C 24.1384548611111 8.75  24.8258463541667 9.03483072916667  25.3955078125 9.6044921875  Z M 30.9212239583333 23.1624348958333  C 31.6959635416667 21.3623046875  32.0833333333333 19.4748263888889  32.0833333333333 17.5  C 32.0833333333333 15.5251736111111  31.6959635416667 13.6376953125  30.9212239583333 11.8375651041667  C 30.146484375 10.0374348958333  29.1097005208333 8.48795572916667  27.8108723958333 7.18912760416667  C 26.5120442708333 5.89029947916667  24.9625651041667 4.853515625  23.1624348958333 4.07877604166667  C 21.3623046875 3.30403645833333  19.4748263888889 2.91666666666667  17.5 2.91666666666667  C 15.5251736111111 2.91666666666667  13.6376953125 3.30403645833333  11.8375651041667 4.07877604166667  C 10.0374348958333 4.853515625  8.48795572916667 5.89029947916667  7.18912760416667 7.18912760416667  C 5.89029947916667 8.48795572916667  4.853515625 10.0374348958333  4.07877604166667 11.8375651041667  C 3.30403645833333 13.6376953125  2.91666666666667 15.5251736111111  2.91666666666667 17.5  C 2.91666666666667 19.4748263888889  3.30403645833333 21.3623046875  4.07877604166667 23.1624348958333  C 4.853515625 24.9625651041667  5.89029947916667 26.5120442708333  7.18912760416667 27.8108723958333  C 8.48795572916667 29.1097005208333  10.0374348958333 30.146484375  11.8375651041667 30.9212239583333  C 13.6376953125 31.6959635416667  15.5251736111111 32.0833333333333  17.5 32.0833333333333  C 19.4748263888889 32.0833333333333  21.3623046875 31.6959635416667  23.1624348958333 30.9212239583333  C 24.9625651041667 30.146484375  26.5120442708333 29.1097005208333  27.8108723958333 27.8108723958333  C 29.1097005208333 26.5120442708333  30.146484375 24.9625651041667  30.9212239583333 23.1624348958333  Z M 32.6529947916667 8.7158203125  C 34.2176649305556 11.3970269097222  35 14.3250868055556  35 17.5  C 35 20.6749131944444  34.2176649305556 23.6029730902778  32.6529947916667 26.2841796875  C 31.0883246527778 28.9653862847222  28.9653862847222 31.0883246527778  26.2841796875 32.6529947916667  C 23.6029730902778 34.2176649305556  20.6749131944444 35  17.5 35  C 14.3250868055556 35  11.3970269097222 34.2176649305556  8.7158203125 32.6529947916667  C 6.03461371527778 31.0883246527778  3.91167534722222 28.9653862847222  2.34700520833333 26.2841796875  C 0.782335069444444 23.6029730902778  0 20.6749131944444  0 17.5  C 0 14.3250868055556  0.782335069444444 11.3970269097222  2.34700520833333 8.7158203125  C 3.91167534722222 6.03461371527778  6.03461371527778 3.91167534722222  8.7158203125 2.34700520833333  C 11.3970269097222 0.782335069444441  14.3250868055556 0  17.5 0  C 20.6749131944444 0  23.6029730902778 0.782335069444441  26.2841796875 2.34700520833333  C 28.9653862847222 3.91167534722222  31.0883246527778 6.03461371527778  32.6529947916667 8.7158203125  Z " fill-rule="nonzero" fill="#aaaaaa" stroke="none" transform="matrix(1 0 0 1 939 757 )" />
  </g>
</svg>