<?xml version="1.0" encoding="utf-8"?>
<svg version="1.1" xmlns:xlink="http://www.w3.org/1999/xlink" width="12px" height="12px" viewBox="244 341  12 12" xmlns="http://www.w3.org/2000/svg">
  <path d="M 250 341  C 253.36 341  256 343.64  256 347  C 256 350.36  253.36 353  250 353  C 246.64 353  244 350.36  244 347  C 244 343.64  246.64 341  250 341  Z " fill-rule="nonzero" fill="#ffffff" stroke="none" />
  <path d="M 250 341.5  C 253.08 341.5  255.5 343.92  255.5 347  C 255.5 350.08  253.08 352.5  250 352.5  C 246.92 352.5  244.5 350.08  244.5 347  C 244.5 343.92  246.92 341.5  250 341.5  Z " stroke-width="1" stroke="#797979" fill="none" />
  <path d="M 250 350  C 248.32 350  247 348.68  247 347  C 247 345.32  248.32 344  250 344  C 251.68 344  253 345.32  253 347  C 253 348.68  251.68 350  250 350  " fill-rule="nonzero" fill="#797979" stroke="none" />
</svg>