<?xml version="1.0" encoding="utf-8"?>
<svg version="1.1" xmlns:xlink="http://www.w3.org/1999/xlink" width="37px" height="44px" xmlns="http://www.w3.org/2000/svg">
  <g transform="matrix(1 0 0 1 -627 -769 )">
    <path d="M 10.2777777777778 14  L 10.2777777777778 20  L 26.7222222222222 20  L 26.7222222222222 14  C 26.7222222222222 11.7916666666667  25.9192708333333 9.90625  24.3133680555556 8.34375  C 22.7074652777778 6.78125  20.7696759259259 6  18.5 6  C 16.2303240740741 6  14.2925347222222 6.78125  12.6866319444444 8.34375  C 11.0807291666667 9.90625  10.2777777777778 11.7916666666667  10.2777777777778 14  Z M 36.1006944444444 20.875  C 36.7002314814815 21.4583333333333  37 22.1666666666667  37 23  L 37 41  C 37 41.8333333333333  36.7002314814815 42.5416666666667  36.1006944444444 43.125  C 35.5011574074074 43.7083333333333  34.7731481481482 44  33.9166666666667 44  L 3.08333333333333 44  C 2.22685185185185 44  1.49884259259259 43.7083333333333  0.899305555555556 43.125  C 0.299768518518518 42.5416666666667  0 41.8333333333333  0 41  L 0 23  C 0 22.1666666666667  0.299768518518518 21.4583333333333  0.899305555555556 20.875  C 1.49884259259259 20.2916666666667  2.22685185185185 20  3.08333333333333 20  L 4.11111111111111 20  L 4.11111111111111 14  C 4.11111111111111 10.1666666666667  5.52430555555556 6.875  8.35069444444444 4.125  C 11.1770833333333 1.375  14.5601851851852 0  18.5 0  C 22.4398148148148 0  25.8229166666667 1.375  28.6493055555556 4.125  C 31.4756944444444 6.875  32.8888888888889 10.1666666666667  32.8888888888889 14  L 32.8888888888889 20  L 33.9166666666667 20  C 34.7731481481482 20  35.5011574074074 20.2916666666667  36.1006944444444 20.875  Z " fill-rule="nonzero" fill="#aaaaaa" stroke="none" transform="matrix(1 0 0 1 627 769 )" />
  </g>
</svg>