<?xml version="1.0" encoding="utf-8"?>
<svg version="1.1" xmlns:xlink="http://www.w3.org/1999/xlink" width="12px" height="12px" viewBox="519 222.5  12 12" xmlns="http://www.w3.org/2000/svg">
  <path d="M 525 222.5  C 528.36 222.5  531 225.14  531 228.5  C 531 231.86  528.36 234.5  525 234.5  C 521.64 234.5  519 231.86  519 228.5  C 519 225.14  521.64 222.5  525 222.5  Z " fill-rule="nonzero" fill="#ffffff" stroke="none" />
  <path d="M 525 223  C 528.08 223  530.5 225.42  530.5 228.5  C 530.5 231.58  528.08 234  525 234  C 521.92 234  519.5 231.58  519.5 228.5  C 519.5 225.42  521.92 223  525 223  Z " stroke-width="1" stroke="#797979" fill="none" />
  <path d="M 525 231.5  C 523.32 231.5  522 230.18  522 228.5  C 522 226.82  523.32 225.5  525 225.5  C 526.68 225.5  528 226.82  528 228.5  C 528 230.18  526.68 231.5  525 231.5  " fill-rule="nonzero" fill="#797979" stroke="none" />
</svg>