<?xml version="1.0" encoding="utf-8"?>
<svg version="1.1" xmlns:xlink="http://www.w3.org/1999/xlink" width="12px" height="12px" viewBox="440 222.5  12 12" xmlns="http://www.w3.org/2000/svg">
  <path d="M 446 222.5  C 449.36 222.5  452 225.14  452 228.5  C 452 231.86  449.36 234.5  446 234.5  C 442.64 234.5  440 231.86  440 228.5  C 440 225.14  442.64 222.5  446 222.5  Z " fill-rule="nonzero" fill="#ffffff" stroke="none" />
  <path d="M 446 223  C 449.08 223  451.5 225.42  451.5 228.5  C 451.5 231.58  449.08 234  446 234  C 442.92 234  440.5 231.58  440.5 228.5  C 440.5 225.42  442.92 223  446 223  Z " stroke-width="1" stroke="#797979" fill="none" />
  <path d="M 446 231.5  C 444.32 231.5  443 230.18  443 228.5  C 443 226.82  444.32 225.5  446 225.5  C 447.68 225.5  449 226.82  449 228.5  C 449 230.18  447.68 231.5  446 231.5  " fill-rule="nonzero" fill="#797979" stroke="none" />
</svg>