<?xml version="1.0" encoding="utf-8"?>
<svg version="1.1" xmlns:xlink="http://www.w3.org/1999/xlink" width="50px" height="23px" xmlns="http://www.w3.org/2000/svg">
  <g transform="matrix(1 0 0 1 -325 -400 )">
    <path d="M 27.13623046875 15.066796875  C 27.79541015625 13.934765625  28.125 12.7458333333333  28.125 11.5  C 28.125 10.2541666666667  27.79541015625 9.065234375  27.13623046875 7.933203125  C 26.47705078125 6.801171875  25.5859375 5.821875  24.462890625 4.9953125  C 23.33984375 4.16875  22.00927734375 3.512890625  20.47119140625 3.027734375  C 18.93310546875 2.542578125  17.3177083333333 2.3  15.625 2.3  C 13.9322916666667 2.3  12.31689453125 2.542578125  10.77880859375 3.027734375  C 9.24072265625 3.512890625  7.91015625 4.16875  6.787109375 4.9953125  C 5.6640625 5.821875  4.77294921875 6.801171875  4.11376953125 7.933203125  C 3.45458984375 9.065234375  3.125 10.2541666666667  3.125 11.5  C 3.125 12.7458333333333  3.45458984375 13.934765625  4.11376953125 15.066796875  C 4.77294921875 16.198828125  5.6640625 17.178125  6.787109375 18.0046875  C 7.91015625 18.83125  9.24072265625 19.487109375  10.77880859375 19.972265625  C 12.31689453125 20.457421875  13.9322916666667 20.7  15.625 20.7  C 17.3177083333333 20.7  18.93310546875 20.457421875  20.47119140625 19.972265625  C 22.00927734375 19.487109375  23.33984375 18.83125  24.462890625 18.0046875  C 25.5859375 17.178125  26.47705078125 16.198828125  27.13623046875 15.066796875  Z M 45.88623046875 15.066796875  C 46.54541015625 13.934765625  46.875 12.7458333333333  46.875 11.5  C 46.875 10.2541666666667  46.54541015625 9.065234375  45.88623046875 7.933203125  C 45.22705078125 6.801171875  44.3359375 5.821875  43.212890625 4.9953125  C 42.08984375 4.16875  40.75927734375 3.512890625  39.22119140625 3.027734375  C 37.68310546875 2.542578125  36.0677083333333 2.3  34.375 2.3  L 24.951171875 2.3  C 26.8880208333333 3.378125  28.4220377604167 4.71979166666666  29.55322265625 6.325  C 30.6844075520833 7.93020833333333  31.25 9.65520833333333  31.25 11.5  C 31.25 13.3447916666667  30.6844075520833 15.0697916666667  29.55322265625 16.675  C 28.4220377604167 18.2802083333333  26.8880208333333 19.621875  24.951171875 20.7  L 34.375 20.7  C 36.0677083333333 20.7  37.68310546875 20.457421875  39.22119140625 19.972265625  C 40.75927734375 19.487109375  42.08984375 18.83125  43.212890625 18.0046875  C 44.3359375 17.178125  45.22705078125 16.198828125  45.88623046875 15.066796875  Z M 48.7548828125 7.034765625  C 49.5849609375 8.454296875  50 9.94270833333333  50 11.5  C 50 13.0572916666667  49.5849609375 14.545703125  48.7548828125 15.965234375  C 47.9248046875 17.384765625  46.81396484375 18.606640625  45.42236328125 19.630859375  C 44.03076171875 20.655078125  42.37060546875 21.47265625  40.44189453125 22.08359375  C 38.51318359375 22.69453125  36.4908854166667 23  34.375 23  L 15.625 23  C 13.5091145833333 23  11.48681640625 22.69453125  9.55810546875 22.08359375  C 7.62939453125 21.47265625  5.96923828125 20.655078125  4.57763671875 19.630859375  C 3.18603515625 18.606640625  2.0751953125 17.384765625  1.2451171875 15.965234375  C 0.4150390625 14.545703125  0 13.0572916666667  0 11.5  C 0 9.94270833333333  0.4150390625 8.454296875  1.2451171875 7.034765625  C 2.0751953125 5.615234375  3.18603515625 4.393359375  4.57763671875 3.369140625  C 5.96923828125 2.344921875  7.62939453125 1.52734375  9.55810546875 0.916406249999999  C 11.48681640625 0.305468750000001  13.5091145833333 0  15.625 0  L 34.375 0  C 36.4908854166667 0  38.51318359375 0.305468750000001  40.44189453125 0.916406249999999  C 42.37060546875 1.52734375  44.03076171875 2.344921875  45.42236328125 3.369140625  C 46.81396484375 4.393359375  47.9248046875 5.615234375  48.7548828125 7.034765625  Z " fill-rule="nonzero" fill="#d7d7d7" stroke="none" transform="matrix(1 0 0 1 325 400 )" />
  </g>
</svg>