<?xml version="1.0" encoding="utf-8"?>
<svg version="1.1" xmlns:xlink="http://www.w3.org/1999/xlink" width="38px" height="38px" xmlns="http://www.w3.org/2000/svg">
  <g transform="matrix(1 0 0 1 -10 -338 )">
    <path d="M 30.8480113636364 17.515625  C 31.0099431818182 17.6775568181818  31.0909090909091 17.8844696969697  31.0909090909091 18.1363636363636  L 31.0909090909091 19.8636363636364  C 31.0909090909091 20.1155303030303  31.0099431818182 20.3224431818182  30.8480113636364 20.484375  C 30.6860795454545 20.6463068181818  30.4791666666667 20.7272727272727  30.2272727272727 20.7272727272727  L 20.7272727272727 20.7272727272727  L 20.7272727272727 30.2272727272727  C 20.7272727272727 30.4791666666667  20.6463068181818 30.6860795454545  20.484375 30.8480113636364  C 20.3224431818182 31.0099431818182  20.1155303030303 31.0909090909091  19.8636363636364 31.0909090909091  L 18.1363636363636 31.0909090909091  C 17.8844696969697 31.0909090909091  17.6775568181818 31.0099431818182  17.515625 30.8480113636364  C 17.3536931818182 30.6860795454545  17.2727272727273 30.4791666666667  17.2727272727273 30.2272727272727  L 17.2727272727273 20.7272727272727  L 7.77272727272727 20.7272727272727  C 7.52083333333333 20.7272727272727  7.31392045454546 20.6463068181818  7.15198863636364 20.484375  C 6.99005681818182 20.3224431818182  6.90909090909091 20.1155303030303  6.90909090909091 19.8636363636364  L 6.90909090909091 18.1363636363636  C 6.90909090909091 17.8844696969697  6.99005681818182 17.6775568181818  7.15198863636364 17.515625  C 7.31392045454546 17.3536931818182  7.52083333333333 17.2727272727273  7.77272727272727 17.2727272727273  L 17.2727272727273 17.2727272727273  L 17.2727272727273 7.77272727272727  C 17.2727272727273 7.52083333333333  17.3536931818182 7.31392045454546  17.515625 7.15198863636364  C 17.6775568181818 6.99005681818182  17.8844696969697 6.90909090909091  18.1363636363636 6.90909090909091  L 19.8636363636364 6.90909090909091  C 20.1155303030303 6.90909090909091  20.3224431818182 6.99005681818182  20.484375 7.15198863636364  C 20.6463068181818 7.31392045454546  20.7272727272727 7.52083333333333  20.7272727272727 7.77272727272727  L 20.7272727272727 17.2727272727273  L 30.2272727272727 17.2727272727273  C 30.4791666666667 17.2727272727273  30.6860795454545 17.3536931818182  30.8480113636364 17.515625  Z M 33.2769886363636 33.2769886363636  C 34.1226325757576 32.4313446969697  34.5454545454545 31.4147727272727  34 30.2272727272727  L 34 7.77272727272727  C 34.5454545454545 6.58522727272727  34.1226325757576 5.5686553030303  33.2769886363636 4.72301136363636  C 32.4313446969697 3.87736742424242  31.4147727272727 3.45454545454546  30.2272727272727 4  L 7.77272727272727 4  C 6.58522727272727 3.45454545454546  5.5686553030303 3.87736742424242  4.72301136363636 4.72301136363636  C 3.87736742424242 5.5686553030303  3.45454545454545 6.58522727272727  4 7.77272727272727  L 4 30.2272727272727  C 3.45454545454545 31.4147727272727  3.87736742424242 32.4313446969697  4.72301136363636 33.2769886363636  C 5.5686553030303 34.1226325757576  6.58522727272727 34.5454545454545  7.77272727272727 34  L 30.2272727272727 34  C 31.4147727272727 34.5454545454545  32.4313446969697 34.1226325757576  33.2769886363636 33.2769886363636  Z M 35.7194602272727 2.28053977272727  C 37.2398200757576 3.80089962121212  38 5.63162878787878  38 7.77272727272727  L 38 30.2272727272727  C 38 32.3683712121212  37.2398200757576 34.1991003787879  35.7194602272727 35.7194602272727  C 34.1991003787879 37.2398200757576  32.3683712121212 38  30.2272727272727 38  L 7.77272727272727 38  C 5.63162878787879 38  3.80089962121212 37.2398200757576  2.28053977272727 35.7194602272727  C 0.760179924242424 34.1991003787879  0 32.3683712121212  0 30.2272727272727  L 0 7.77272727272727  C 0 5.63162878787878  0.760179924242424 3.80089962121212  2.28053977272727 2.28053977272727  C 3.80089962121212 0.760179924242421  5.63162878787879 0  7.77272727272727 0  L 30.2272727272727 0  C 32.3683712121212 0  34.1991003787879 0.760179924242421  35.7194602272727 2.28053977272727  Z " fill-rule="nonzero" fill="#d7d7d7" stroke="none" transform="matrix(1 0 0 1 10 338 )" />
  </g>
</svg>