<?xml version="1.0" encoding="utf-8"?>
<svg version="1.1" xmlns:xlink="http://www.w3.org/1999/xlink" width="65px" height="28px" xmlns="http://www.w3.org/2000/svg">
  <defs>
    <mask fill="white" id="clip6">
      <path d="M 0 23  L 0 5  C 0 2.2  2.20000000000005 0  5 0  L 21.764705882354 0  L 60 0  C 62.8 0  65 2.2  65 5  L 65 23  C 65 25.8  62.8 28  60 28  L 5 28  C 2.20000000000005 28  0 25.8  0 23  Z " fill-rule="evenodd" />
    </mask>
  </defs>
  <g transform="matrix(1 0 0 1 -726 -116 )">
    <path d="M 0 23  L 0 5  C 0 2.2  2.20000000000005 0  5 0  L 21.764705882354 0  L 60 0  C 62.8 0  65 2.2  65 5  L 65 23  C 65 25.8  62.8 28  60 28  L 5 28  C 2.20000000000005 28  0 25.8  0 23  Z " fill-rule="nonzero" fill="#ffffff" stroke="none" transform="matrix(1 0 0 1 726 116 )" />
    <path d="M 0 23  L 0 5  C 0 2.2  2.20000000000005 0  5 0  L 21.764705882354 0  L 60 0  C 62.8 0  65 2.2  65 5  L 65 23  C 65 25.8  62.8 28  60 28  L 5 28  C 2.20000000000005 28  0 25.8  0 23  Z " stroke-width="2" stroke="#797979" fill="none" transform="matrix(1 0 0 1 726 116 )" mask="url(#clip6)" />
  </g>
</svg>