<?xml version="1.0" encoding="utf-8"?>
<svg version="1.1" xmlns:xlink="http://www.w3.org/1999/xlink" width="12px" height="12px" viewBox="548 712.5  12 12" xmlns="http://www.w3.org/2000/svg">
  <path d="M 554 712.5  C 557.36 712.5  560 715.14  560 718.5  C 560 721.86  557.36 724.5  554 724.5  C 550.64 724.5  548 721.86  548 718.5  C 548 715.14  550.64 712.5  554 712.5  Z " fill-rule="nonzero" fill="#ffffff" stroke="none" />
  <path d="M 554 713  C 557.08 713  559.5 715.42  559.5 718.5  C 559.5 721.58  557.08 724  554 724  C 550.92 724  548.5 721.58  548.5 718.5  C 548.5 715.42  550.92 713  554 713  Z " stroke-width="1" stroke="#797979" fill="none" />
  <path d="M 554 721.5  C 552.32 721.5  551 720.18  551 718.5  C 551 716.82  552.32 715.5  554 715.5  C 555.68 715.5  557 716.82  557 718.5  C 557 720.18  555.68 721.5  554 721.5  " fill-rule="nonzero" fill="#797979" stroke="none" />
</svg>