<?xml version="1.0" encoding="utf-8"?>
<svg version="1.1" xmlns:xlink="http://www.w3.org/1999/xlink" width="12px" height="12px" viewBox="439 712.5  12 12" xmlns="http://www.w3.org/2000/svg">
  <path d="M 445 712.5  C 448.36 712.5  451 715.14  451 718.5  C 451 721.86  448.36 724.5  445 724.5  C 441.64 724.5  439 721.86  439 718.5  C 439 715.14  441.64 712.5  445 712.5  Z " fill-rule="nonzero" fill="#ffffff" stroke="none" />
  <path d="M 445 713  C 448.08 713  450.5 715.42  450.5 718.5  C 450.5 721.58  448.08 724  445 724  C 441.92 724  439.5 721.58  439.5 718.5  C 439.5 715.42  441.92 713  445 713  Z " stroke-width="1" stroke="#797979" fill="none" />
  <path d="M 445 721.5  C 443.32 721.5  442 720.18  442 718.5  C 442 716.82  443.32 715.5  445 715.5  C 446.68 715.5  448 716.82  448 718.5  C 448 720.18  446.68 721.5  445 721.5  " fill-rule="nonzero" fill="#797979" stroke="none" />
</svg>