<?xml version="1.0" encoding="utf-8"?>
<svg version="1.1" xmlns:xlink="http://www.w3.org/1999/xlink" width="12px" height="12px" viewBox="432 168.5  12 12" xmlns="http://www.w3.org/2000/svg">
  <path d="M 438 168.5  C 441.36 168.5  444 171.14  444 174.5  C 444 177.86  441.36 180.5  438 180.5  C 434.64 180.5  432 177.86  432 174.5  C 432 171.14  434.64 168.5  438 168.5  Z " fill-rule="nonzero" fill="#ffffff" stroke="none" />
  <path d="M 438 169  C 441.08 169  443.5 171.42  443.5 174.5  C 443.5 177.58  441.08 180  438 180  C 434.92 180  432.5 177.58  432.5 174.5  C 432.5 171.42  434.92 169  438 169  Z " stroke-width="1" stroke="#797979" fill="none" />
  <path d="M 438 177.5  C 436.32 177.5  435 176.18  435 174.5  C 435 172.82  436.32 171.5  438 171.5  C 439.68 171.5  441 172.82  441 174.5  C 441 176.18  439.68 177.5  438 177.5  " fill-rule="nonzero" fill="#797979" stroke="none" />
</svg>