<?xml version="1.0" encoding="utf-8"?>
<svg version="1.1" xmlns:xlink="http://www.w3.org/1999/xlink" width="61px" height="61px" xmlns="http://www.w3.org/2000/svg">
  <g transform="matrix(1 0 0 1 -38 -81 )">
    <path d="M 68.5 81  C 85.58 81  99 94.42  99 111.5  C 99 128.58  85.58 142  68.5 142  C 51.42 142  38 128.58  38 111.5  C 38 94.42  51.42 81  68.5 81  Z " fill-rule="nonzero" fill="#ffffff" stroke="none" />
    <path d="M 68.5 81.5  C 85.3 81.5  98.5 94.7  98.5 111.5  C 98.5 128.3  85.3 141.5  68.5 141.5  C 51.7 141.5  38.5 128.3  38.5 111.5  C 38.5 94.7  51.7 81.5  68.5 81.5  Z " stroke-width="1" stroke="#797979" fill="none" />
  </g>
</svg>