<?xml version="1.0" encoding="utf-8"?>
<svg version="1.1" xmlns:xlink="http://www.w3.org/1999/xlink" width="23px" height="23px" xmlns="http://www.w3.org/2000/svg">
  <g transform="matrix(1 0 0 1 -346 -305 )">
    <path d="M 14.10546875 14.10546875  C 15.3172075320513 12.8937299679487  15.9230769230769 11.4354967948718  15.9230769230769 9.73076923076923  C 15.9230769230769 8.02604166666669  15.3172075320513 6.56780849358972  14.10546875 5.35606971153845  C 12.8937299679487 4.14433092948718  11.4354967948718 3.53846153846155  9.73076923076923 3.53846153846155  C 8.02604166666663 3.53846153846155  6.56780849358972 4.14433092948718  5.35606971153845 5.35606971153845  C 4.14433092948718 6.56780849358972  3.53846153846155 8.02604166666669  3.53846153846155 9.73076923076923  C 3.53846153846155 11.4354967948718  4.14433092948718 12.8937299679487  5.35606971153845 14.10546875  C 6.56780849358972 15.3172075320513  8.02604166666663 15.9230769230769  9.73076923076923 15.9230769230769  C 11.4354967948718 15.9230769230769  12.8937299679487 15.3172075320513  14.10546875 14.10546875  Z M 22.4885817307692 19.9867788461539  C 22.8295272435897 20.3277243589744  23 20.7423878205128  23 21.2307692307692  C 23 21.7099358974359  22.8249198717949 22.1245993589744  22.4747596153846 22.4747596153846  C 22.1245993589744 22.8249198717949  21.7099358974359 23  21.2307692307692 23  C 20.7331730769231 23  20.3185096153846 22.8249198717949  19.9867788461538 22.4747596153846  L 15.2457932692308 17.7475961538461  C 13.5963541666666 18.8902243589744  11.7580128205128 19.4615384615385  9.73076923076923 19.4615384615385  C 8.41306089743591 19.4615384615385  7.15294471153845 19.2058293269231  5.95042067307691 18.6944110576923  C 4.74789663461536 18.1829927884615  3.71123798076923 17.4918870192308  2.84044471153845 16.62109375  C 1.96965144230774 15.7503004807692  1.27854567307691 14.7136418269231  0.767127403846189 13.5111177884615  C 0.255709134615358 12.30859375  0 11.0484775641025  0 9.73076923076923  C 0 8.41306089743591  0.255709134615358 7.15294471153845  0.767127403846189 5.95042067307691  C 1.27854567307691 4.74789663461539  1.96965144230774 3.71123798076923  2.84044471153845 2.84044471153845  C 3.71123798076923 1.96965144230768  4.74789663461536 1.27854567307691  5.95042067307691 0.767127403846132  C 7.15294471153845 0.255709134615387  8.41306089743591 0  9.73076923076923 0  C 11.0484775641025 0  12.30859375 0.255709134615387  13.5111177884615 0.767127403846132  C 14.7136418269231 1.27854567307691  15.7503004807692 1.96965144230768  16.62109375 2.84044471153845  C 17.4918870192308 3.71123798076923  18.1829927884615 4.74789663461539  18.6944110576923 5.95042067307691  C 19.2058293269231 7.15294471153845  19.4615384615385 8.41306089743591  19.4615384615385 9.73076923076923  C 19.4615384615385 11.7580128205128  18.8902243589744 13.5963541666667  17.7475961538462 15.2457932692308  L 22.4885817307692 19.9867788461539  Z " fill-rule="nonzero" fill="#aaaaaa" stroke="none" transform="matrix(1 0 0 1 346 305 )" />
  </g>
</svg>