<?xml version="1.0" encoding="utf-8"?>
<svg version="1.1" xmlns:xlink="http://www.w3.org/1999/xlink" width="41px" height="22px" xmlns="http://www.w3.org/2000/svg">
  <g transform="matrix(1 0 0 1 -335 -269 )">
    <path d="M 22.251708984375 14.41171875  C 22.792236328125 13.32890625  23.0625 12.1916666666667  23.0625 11  C 23.0625 9.80833333333333  22.792236328125 8.67109375  22.251708984375 7.58828125  C 21.711181640625 6.50546875  20.98046875 5.56875  20.0595703125 4.778125  C 19.138671875 3.9875  18.047607421875 3.36015625  16.786376953125 2.89609375  C 15.525146484375 2.43203125  14.2005208333333 2.2  12.8125 2.2  C 11.4244791666667 2.2  10.099853515625 2.43203125  8.838623046875 2.89609375  C 7.577392578125 3.36015625  6.486328125 3.9875  5.5654296875 4.778125  C 4.64453125 5.56875  3.913818359375 6.50546875  3.373291015625 7.58828125  C 2.832763671875 8.67109375  2.5625 9.80833333333333  2.5625 11  C 2.5625 12.1916666666667  2.832763671875 13.32890625  3.373291015625 14.41171875  C 3.913818359375 15.49453125  4.64453125 16.43125  5.5654296875 17.221875  C 6.486328125 18.0125  7.577392578125 18.63984375  8.838623046875 19.10390625  C 10.099853515625 19.56796875  11.4244791666667 19.8  12.8125 19.8  C 14.2005208333333 19.8  15.525146484375 19.56796875  16.786376953125 19.10390625  C 18.047607421875 18.63984375  19.138671875 18.0125  20.0595703125 17.221875  C 20.98046875 16.43125  21.711181640625 15.49453125  22.251708984375 14.41171875  Z M 37.626708984375 14.41171875  C 38.167236328125 13.32890625  38.4375 12.1916666666667  38.4375 11  C 38.4375 9.80833333333333  38.167236328125 8.67109375  37.626708984375 7.58828125  C 37.086181640625 6.50546875  36.35546875 5.56875  35.4345703125 4.778125  C 34.513671875 3.9875  33.422607421875 3.36015625  32.161376953125 2.89609375  C 30.900146484375 2.43203125  29.5755208333333 2.2  28.1875 2.2  L 20.4599609375 2.2  C 22.0481770833333 3.23125  23.3060709635417 4.51458333333333  24.233642578125 6.05  C 25.1612141927083 7.58541666666667  25.625 9.23541666666666  25.625 11  C 25.625 12.7645833333333  25.1612141927083 14.4145833333333  24.233642578125 15.95  C 23.3060709635417 17.4854166666667  22.0481770833333 18.76875  20.4599609375 19.8  L 28.1875 19.8  C 29.5755208333333 19.8  30.900146484375 19.56796875  32.161376953125 19.10390625  C 33.422607421875 18.63984375  34.513671875 18.0125  35.4345703125 17.221875  C 36.35546875 16.43125  37.086181640625 15.49453125  37.626708984375 14.41171875  Z M 39.97900390625 6.72890625  C 40.65966796875 8.08671875  41 9.51041666666667  41 11  C 41 12.4895833333333  40.65966796875 13.91328125  39.97900390625 15.27109375  C 39.29833984375 16.62890625  38.387451171875 17.79765625  37.246337890625 18.77734375  C 36.105224609375 19.75703125  34.743896484375 20.5390625  33.162353515625 21.1234375  C 31.580810546875 21.7078125  29.9225260416667 22  28.1875 22  L 12.8125 22  C 11.0774739583333 22  9.419189453125 21.7078125  7.837646484375 21.1234375  C 6.256103515625 20.5390625  4.894775390625 19.75703125  3.753662109375 18.77734375  C 2.612548828125 17.79765625  1.70166015625 16.62890625  1.02099609375 15.27109375  C 0.34033203125 13.91328125  0 12.4895833333333  0 11  C 0 9.51041666666667  0.34033203125 8.08671875  1.02099609375 6.72890625  C 1.70166015625 5.37109375  2.612548828125 4.20234375  3.753662109375 3.22265625  C 4.894775390625 2.24296875  6.256103515625 1.4609375  7.837646484375 0.876562499999999  C 9.419189453125 0.2921875  11.0774739583333 0  12.8125 0  L 28.1875 0  C 29.9225260416667 0  31.580810546875 0.2921875  33.162353515625 0.876562499999999  C 34.743896484375 1.4609375  36.105224609375 2.24296875  37.246337890625 3.22265625  C 38.387451171875 4.20234375  39.29833984375 5.37109375  39.97900390625 6.72890625  Z " fill-rule="nonzero" fill="#d7d7d7" stroke="none" transform="matrix(1 0 0 1 335 269 )" />
  </g>
</svg>