<?xml version="1.0" encoding="utf-8"?>
<svg version="1.1" xmlns:xlink="http://www.w3.org/1999/xlink" width="17px" height="19px" xmlns="http://www.w3.org/2000/svg">
  <g transform="matrix(1 0 0 1 -332 -412 )">
    <path d="M 1.30769230769231 7  L 1.30769230769231 17.6428571428571  L 15.6923076923077 17.6428571428571  L 15.6923076923077 7  L 1.30769230769231 7  Z M 5.13882211538462 4.99386160714286  C 5.20012019230769 4.93024553571428  5.23076923076923 4.84895833333333  5.23076923076923 4.75  L 5.23076923076923 1.69642857142857  C 5.23076923076923 1.59747023809524  5.20012019230769 1.51618303571428  5.13882211538462 1.45256696428572  C 5.07752403846154 1.38895089285714  4.99919871794872 1.35714285714286  4.90384615384615 1.35714285714286  L 4.25 1.35714285714286  C 4.15464743589744 1.35714285714286  4.07632211538462 1.38895089285714  4.01502403846154 1.45256696428572  C 3.95372596153846 1.51618303571428  3.92307692307692 1.59747023809524  3.92307692307692 1.69642857142857  L 3.92307692307692 4.75  C 3.92307692307692 4.84895833333333  3.95372596153846 4.93024553571428  4.01502403846154 4.99386160714286  C 4.07632211538462 5.05747767857143  4.15464743589744 5.08928571428572  4.25 5.08928571428572  L 4.90384615384615 5.08928571428572  C 4.99919871794872 5.08928571428572  5.07752403846154 5.05747767857143  5.13882211538462 4.99386160714286  Z M 12.9849759615385 4.99386160714286  C 13.0462740384615 4.93024553571428  13.0769230769231 4.84895833333333  13.0769230769231 4.75  L 13.0769230769231 1.69642857142857  C 13.0769230769231 1.59747023809524  13.0462740384615 1.51618303571428  12.9849759615385 1.45256696428572  C 12.9236778846154 1.38895089285714  12.8453525641026 1.35714285714286  12.75 1.35714285714286  L 12.0961538461538 1.35714285714286  C 12.0008012820513 1.35714285714286  11.9224759615385 1.38895089285714  11.8611778846154 1.45256696428572  C 11.7998798076923 1.51618303571428  11.7692307692308 1.59747023809524  11.7692307692308 1.69642857142857  L 11.7692307692308 4.75  C 11.7692307692308 4.84895833333333  11.7998798076923 4.93024553571428  11.8611778846154 4.99386160714286  C 11.9224759615385 5.05747767857143  12.0008012820513 5.08928571428572  12.0961538461538 5.08928571428572  L 12.75 5.08928571428572  C 12.8453525641026 5.08928571428572  12.9236778846154 5.05747767857143  12.9849759615385 4.99386160714286  Z M 16.6117788461538 3.1171875  C 16.8705929487179 3.38578869047619  17 3.70386904761905  17 4.07142857142857  L 17 17.6428571428571  C 17 18.0104166666667  16.8705929487179 18.3284970238095  16.6117788461538 18.5970982142857  C 16.3529647435897 18.8656994047619  16.0464743589744 19  15.6923076923077 19  L 1.30769230769231 19  C 0.953525641025641 19  0.647035256410257 18.8656994047619  0.388221153846154 18.5970982142857  C 0.129407051282051 18.3284970238095  0 18.0104166666667  0 17.6428571428571  L 0 4.07142857142857  C 0 3.70386904761905  0.129407051282051 3.38578869047619  0.388221153846154 3.1171875  C 0.647035256410257 2.84858630952381  0.953525641025641 2.71428571428572  1.30769230769231 2.71428571428572  L 2.61538461538462 2.71428571428572  L 2.61538461538462 1.69642857142857  C 2.61538461538462 1.22991071428572  2.77544070512821 0.830543154761904  3.09555288461538 0.498325892857143  C 3.41566506410256 0.166108630952381  3.80048076923077 0  4.25 0  L 4.90384615384615 0  C 5.35336538461538 0  5.73818108974359 0.166108630952381  6.05829326923077 0.498325892857143  C 6.37840544871795 0.830543154761904  6.53846153846154 1.22991071428572  6.53846153846154 1.69642857142857  L 6.53846153846154 2.71428571428572  L 10.4615384615385 2.71428571428572  L 10.4615384615385 1.69642857142857  C 10.4615384615385 1.22991071428572  10.6215945512821 0.830543154761904  10.9417067307692 0.498325892857143  C 11.2618189102564 0.166108630952381  11.6466346153846 0  12.0961538461538 0  L 12.75 0  C 13.1995192307692 0  13.5843349358974 0.166108630952381  13.9044471153846 0.498325892857143  C 14.2245592948718 0.830543154761904  14.3846153846154 1.22991071428572  14.3846153846154 1.69642857142857  L 14.3846153846154 2.71428571428572  L 15.6923076923077 2.71428571428572  C 16.0464743589744 2.71428571428572  16.3529647435897 2.84858630952381  16.6117788461538 3.1171875  Z " fill-rule="nonzero" fill="#7f7f7f" stroke="none" transform="matrix(1 0 0 1 332 412 )" />
  </g>
</svg>